<?xml version="1.0" encoding="UTF-8" standalone="no"?>
<!DOCTYPE svg PUBLIC "-//W3C//DTD SVG 1.1//EN"
 "http://www.w3.org/Graphics/SVG/1.1/DTD/svg11.dtd">
<!-- Generated by graphviz version 2.36.0 (20140111.2315)
 -->
<!-- Title: Program Dependency Graph for &#39;main&#39; function Pages: 1 -->
<svg width="944pt" height="535pt"
 viewBox="0.00 0.00 944.00 535.00" xmlns="http://www.w3.org/2000/svg" xmlns:xlink="http://www.w3.org/1999/xlink">
<g id="graph0" class="graph" transform="scale(1 1) rotate(0) translate(4 531)">
<title>Program Dependency Graph for &#39;main&#39; function</title>
<polygon fill="white" stroke="none" points="-4,4 -4,-531 940,-531 940,4 -4,4"/>
<text text-anchor="middle" x="468" y="-7.8" font-family="Times,serif" font-size="14.00">Program Dependency Graph for &#39;main&#39; function</text>
<!-- Node0x2c09f20 -->
<g id="node1" class="node"><title>Node0x2c09f20</title>
<polygon fill="none" stroke="black" points="48.5,-414 48.5,-450 221.5,-450 221.5,-414 48.5,-414"/>
<text text-anchor="middle" x="135" y="-428.3" font-family="Times,serif" font-size="14.00">%retval = alloca i32, align 4</text>
</g>
<!-- Node0x2c0a150 -->
<g id="node2" class="node"><title>Node0x2c0a150</title>
<polygon fill="none" stroke="black" points="0,-302 0,-338 152,-338 152,-302 0,-302"/>
<text text-anchor="middle" x="76" y="-316.3" font-family="Times,serif" font-size="14.00">store i32 0, i32* %retval</text>
</g>
<!-- Node0x2c09f20&#45;&gt;Node0x2c0a150 -->
<g id="edge1" class="edge"><title>Node0x2c09f20&#45;&gt;Node0x2c0a150</title>
<path fill="none" stroke="black" stroke-dasharray="1,5" d="M116.659,-413.844C111.4,-408.222 106.01,-401.691 102,-395 93.2691,-380.432 86.874,-362.493 82.6112,-347.927"/>
<polygon fill="black" stroke="black" points="85.9105,-346.724 79.8811,-338.013 79.1616,-348.583 85.9105,-346.724"/>
<text text-anchor="middle" x="138" y="-372.3" font-family="Times,serif" font-size="14.00">{DEF_USE}</text>
</g>
<!-- Node0x2c0a1c0 -->
<g id="node3" class="node"><title>Node0x2c0a1c0</title>
<polygon fill="none" stroke="black" points="126.5,-190 126.5,-226 275.5,-226 275.5,-190 126.5,-190"/>
<text text-anchor="middle" x="201" y="-204.3" font-family="Times,serif" font-size="14.00">%1 = load i32* %retval</text>
</g>
<!-- Node0x2c09f20&#45;&gt;Node0x2c0a1c0 -->
<g id="edge2" class="edge"><title>Node0x2c09f20&#45;&gt;Node0x2c0a1c0</title>
<path fill="none" stroke="black" stroke-dasharray="1,5" d="M158.868,-413.734C164.694,-408.375 170.307,-402.011 174,-395 200.987,-343.76 203.532,-274.169 202.554,-236.299"/>
<polygon fill="black" stroke="black" points="206.043,-235.926 202.182,-226.06 199.048,-236.18 206.043,-235.926"/>
<text text-anchor="middle" x="236" y="-316.3" font-family="Times,serif" font-size="14.00">{DEF_USE}</text>
</g>
<!-- Node0x2c0a150&#45;&gt;Node0x2c0a1c0 -->
<g id="edge3" class="edge"><title>Node0x2c0a150&#45;&gt;Node0x2c0a1c0</title>
<path fill="none" stroke="black" stroke-dasharray="1,5" d="M75.4026,-301.861C75.7625,-285.303 78.9073,-260.514 93,-245 99.7775,-237.539 108.141,-231.622 117.189,-226.93"/>
<polygon fill="black" stroke="black" points="118.839,-230.023 126.433,-222.634 115.889,-223.675 118.839,-230.023"/>
<text text-anchor="middle" x="133.5" y="-260.3" font-family="Times,serif" font-size="14.00">{RAW} retval</text>
</g>
<!-- Node0x2c0a7d0 -->
<g id="node4" class="node"><title>Node0x2c0a7d0</title>
<polygon fill="none" stroke="black" points="246,-100 246,-136 320,-136 320,-100 246,-100"/>
<text text-anchor="middle" x="283" y="-114.3" font-family="Times,serif" font-size="14.00">ret i32 %1</text>
</g>
<!-- Node0x2c0a1c0&#45;&gt;Node0x2c0a7d0 -->
<g id="edge4" class="edge"><title>Node0x2c0a1c0&#45;&gt;Node0x2c0a7d0</title>
<path fill="none" stroke="black" stroke-dasharray="1,5" d="M212.374,-189.828C219.704,-179.298 229.753,-165.811 240,-155 243.935,-150.849 248.329,-146.707 252.763,-142.788"/>
<polygon fill="black" stroke="black" points="255.359,-145.174 260.699,-136.023 250.818,-139.847 255.359,-145.174"/>
<text text-anchor="middle" x="276" y="-159.3" font-family="Times,serif" font-size="14.00">{DEF_USE}</text>
</g>
<!-- Node0x2c0a290 -->
<g id="node5" class="node"><title>Node0x2c0a290</title>
<polygon fill="none" stroke="black" points="340.5,-358 340.5,-394 489.5,-394 489.5,-358 340.5,-358"/>
<text text-anchor="middle" x="415" y="-372.3" font-family="Times,serif" font-size="14.00">%a = alloca i32, align 4</text>
</g>
<!-- Node0x2c0a300 -->
<g id="node6" class="node"><title>Node0x2c0a300</title>
<polygon fill="none" stroke="black" points="326.5,-24 326.5,-60 499.5,-60 499.5,-24 326.5,-24"/>
<text text-anchor="middle" x="413" y="-38.3" font-family="Times,serif" font-size="14.00">store i32 1, i32* %a, align 4</text>
</g>
<!-- Node0x2c0a290&#45;&gt;Node0x2c0a300 -->
<g id="edge5" class="edge"><title>Node0x2c0a290&#45;&gt;Node0x2c0a300</title>
<path fill="none" stroke="black" stroke-dasharray="1,5" d="M414.748,-357.852C414.451,-336.213 414,-297.849 414,-265 414,-265 414,-265 414,-117 414,-101.59 413.781,-84.3765 413.547,-70.4319"/>
<polygon fill="black" stroke="black" points="417.04,-69.9819 413.361,-60.0463 410.041,-70.1074 417.04,-69.9819"/>
<text text-anchor="middle" x="450" y="-204.3" font-family="Times,serif" font-size="14.00">{DEF_USE}</text>
</g>
<!-- Node0x2c0a230 -->
<g id="node7" class="node"><title>Node0x2c0a230</title>
<polygon fill="none" stroke="black" points="765.5,-246 765.5,-282 914.5,-282 914.5,-246 765.5,-246"/>
<text text-anchor="middle" x="840" y="-260.3" font-family="Times,serif" font-size="14.00">%b = alloca i32, align 4</text>
</g>
<!-- Node0x2c0a3b0 -->
<g id="node8" class="node"><title>Node0x2c0a3b0</title>
<polygon fill="none" stroke="black" points="763.5,-24 763.5,-60 936.5,-60 936.5,-24 763.5,-24"/>
<text text-anchor="middle" x="850" y="-38.3" font-family="Times,serif" font-size="14.00">store i32 2, i32* %b, align 4</text>
</g>
<!-- Node0x2c0a230&#45;&gt;Node0x2c0a3b0 -->
<g id="edge6" class="edge"><title>Node0x2c0a230&#45;&gt;Node0x2c0a3b0</title>
<path fill="none" stroke="black" stroke-dasharray="1,5" d="M840.785,-245.737C842.515,-207.664 846.671,-116.231 848.759,-70.3009"/>
<polygon fill="black" stroke="black" points="852.261,-70.3315 849.219,-60.1828 845.268,-70.0136 852.261,-70.3315"/>
<text text-anchor="middle" x="880" y="-159.3" font-family="Times,serif" font-size="14.00">{DEF_USE}</text>
</g>
<!-- Node0x2c0a420 -->
<g id="node9" class="node"><title>Node0x2c0a420</title>
<polygon fill="none" stroke="black" points="557,-414 557,-450 719,-450 719,-414 557,-414"/>
<text text-anchor="middle" x="638" y="-428.3" font-family="Times,serif" font-size="14.00">%key = alloca i32, align 4</text>
</g>
<!-- Node0x2c0a490 -->
<g id="node10" class="node"><title>Node0x2c0a490</title>
<polygon fill="none" stroke="black" points="534,-302 534,-338 716,-338 716,-302 534,-302"/>
<text text-anchor="middle" x="625" y="-316.3" font-family="Times,serif" font-size="14.00">%0 = load i32* %key, align 4</text>
</g>
<!-- Node0x2c0a420&#45;&gt;Node0x2c0a490 -->
<g id="edge7" class="edge"><title>Node0x2c0a420&#45;&gt;Node0x2c0a490</title>
<path fill="none" stroke="black" stroke-dasharray="1,5" d="M635.969,-413.812C633.889,-396.215 630.626,-368.607 628.199,-348.071"/>
<polygon fill="black" stroke="black" points="631.667,-347.587 627.017,-338.067 624.715,-348.409 631.667,-347.587"/>
<text text-anchor="middle" x="669" y="-372.3" font-family="Times,serif" font-size="14.00">{DEF_USE}</text>
</g>
<!-- Node0x2c0a5b0 -->
<g id="node11" class="node"><title>Node0x2c0a5b0</title>
<polygon fill="none" stroke="black" points="534.5,-190 534.5,-226 715.5,-226 715.5,-190 534.5,-190"/>
<text text-anchor="middle" x="625" y="-204.3" font-family="Times,serif" font-size="14.00">%tobool = icmp ne i32 %0, 0</text>
</g>
<!-- Node0x2c0a490&#45;&gt;Node0x2c0a5b0 -->
<g id="edge8" class="edge"><title>Node0x2c0a490&#45;&gt;Node0x2c0a5b0</title>
<path fill="none" stroke="black" stroke-dasharray="1,5" d="M625,-301.812C625,-284.215 625,-256.607 625,-236.071"/>
<polygon fill="black" stroke="black" points="628.5,-236.067 625,-226.067 621.5,-236.067 628.5,-236.067"/>
<text text-anchor="middle" x="661" y="-260.3" font-family="Times,serif" font-size="14.00">{DEF_USE}</text>
</g>
<!-- Node0x2c0a640 -->
<g id="node12" class="node"><title>Node0x2c0a640</title>
<polygon fill="none" stroke="black" points="536,-100 536,-136 796,-136 796,-100 536,-100"/>
<text text-anchor="middle" x="666" y="-114.3" font-family="Times,serif" font-size="14.00">br i1 %tobool, label %if.then, label %if.else</text>
</g>
<!-- Node0x2c0a5b0&#45;&gt;Node0x2c0a640 -->
<g id="edge9" class="edge"><title>Node0x2c0a5b0&#45;&gt;Node0x2c0a640</title>
<path fill="none" stroke="black" stroke-dasharray="1,5" d="M633.1,-189.614C638.978,-176.998 647.035,-159.705 653.704,-145.391"/>
<polygon fill="black" stroke="black" points="657.005,-146.593 658.056,-136.05 650.66,-143.637 657.005,-146.593"/>
<text text-anchor="middle" x="685" y="-159.3" font-family="Times,serif" font-size="14.00">{DEF_USE}</text>
</g>
<!-- Node0x2c0a640&#45;&gt;Node0x2c0a300 -->
<g id="edge10" class="edge"><title>Node0x2c0a640&#45;&gt;Node0x2c0a300</title>
<path fill="none" stroke="black" d="M607.639,-99.93C569.97,-88.9123 520.812,-74.534 481.323,-62.9839"/>
<polygon fill="black" stroke="black" points="482.086,-59.5603 471.505,-60.1122 480.12,-66.2788 482.086,-59.5603"/>
</g>
<!-- Node0x2c0a640&#45;&gt;Node0x2c0a3b0 -->
<g id="edge12" class="edge"><title>Node0x2c0a640&#45;&gt;Node0x2c0a3b0</title>
<path fill="none" stroke="black" d="M708.676,-99.8369C735.382,-89.0962 769.962,-75.1891 798.231,-63.8201"/>
<polygon fill="black" stroke="black" points="799.584,-67.0486 807.556,-60.07 796.972,-60.5541 799.584,-67.0486"/>
</g>
<!-- Node0x2c0a6f0 -->
<g id="node13" class="node"><title>Node0x2c0a6f0</title>
<polygon fill="none" stroke="black" points="517.5,-24 517.5,-60 622.5,-60 622.5,-24 517.5,-24"/>
<text text-anchor="middle" x="570" y="-38.3" font-family="Times,serif" font-size="14.00">br label %if.end</text>
</g>
<!-- Node0x2c0a640&#45;&gt;Node0x2c0a6f0 -->
<g id="edge11" class="edge"><title>Node0x2c0a640&#45;&gt;Node0x2c0a6f0</title>
<path fill="none" stroke="black" d="M643.734,-99.8369C630.77,-89.8434 614.249,-77.1087 600.133,-66.2277"/>
<polygon fill="black" stroke="black" points="602.202,-63.4031 592.145,-60.07 597.928,-68.9472 602.202,-63.4031"/>
</g>
<!-- Node0x2c0a760 -->
<g id="node14" class="node"><title>Node0x2c0a760</title>
<polygon fill="none" stroke="black" points="640.5,-24 640.5,-60 745.5,-60 745.5,-24 640.5,-24"/>
<text text-anchor="middle" x="693" y="-38.3" font-family="Times,serif" font-size="14.00">br label %if.end</text>
</g>
<!-- Node0x2c0a640&#45;&gt;Node0x2c0a760 -->
<g id="edge13" class="edge"><title>Node0x2c0a640&#45;&gt;Node0x2c0a760</title>
<path fill="none" stroke="black" d="M672.262,-99.8369C675.534,-90.8708 679.61,-79.6981 683.281,-69.6373"/>
<polygon fill="black" stroke="black" points="686.632,-70.6639 686.772,-60.07 680.056,-68.2645 686.632,-70.6639"/>
</g>
<!-- Node0x2c0a840 -->
<g id="node15" class="node"><title>Node0x2c0a840</title>
<polygon fill="none" stroke="black" points="399,-490 399,-526 525,-526 525,-490 399,-490"/>
<text text-anchor="middle" x="462" y="-504.3" font-family="Times,serif" font-size="14.00">&lt;&lt;ENTRY&gt;&gt; main</text>
</g>
<!-- Node0x2c0a840&#45;&gt;Node0x2c09f20 -->
<g id="edge14" class="edge"><title>Node0x2c0a840&#45;&gt;Node0x2c09f20</title>
<path fill="none" stroke="black" d="M398.94,-500.416C353.213,-494.807 290.153,-485.343 236,-471 218.741,-466.429 200.336,-459.995 184.029,-453.719"/>
<polygon fill="black" stroke="black" points="185.283,-450.451 174.695,-450.057 182.726,-456.968 185.283,-450.451"/>
</g>
<!-- Node0x2c0a840&#45;&gt;Node0x2c0a150 -->
<g id="edge18" class="edge"><title>Node0x2c0a840&#45;&gt;Node0x2c0a150</title>
<path fill="none" stroke="black" d="M398.638,-506.126C360.089,-502.982 311.27,-494.134 274,-471 246.509,-453.936 250.812,-437.775 230,-413 208.154,-386.994 206.394,-375.638 178,-357 169.045,-351.122 159.017,-346.077 148.839,-341.784"/>
<polygon fill="black" stroke="black" points="150.061,-338.503 139.476,-338.051 147.469,-345.006 150.061,-338.503"/>
</g>
<!-- Node0x2c0a840&#45;&gt;Node0x2c0a1c0 -->
<g id="edge22" class="edge"><title>Node0x2c0a840&#45;&gt;Node0x2c0a1c0</title>
<path fill="none" stroke="black" d="M398.841,-498.642C363.595,-492.704 324.353,-483.548 312,-471 257.685,-415.83 307.349,-370.869 274,-301 261.89,-275.628 241.648,-250.899 225.547,-233.479"/>
<polygon fill="black" stroke="black" points="227.9,-230.873 218.485,-226.014 222.815,-235.684 227.9,-230.873"/>
</g>
<!-- Node0x2c0a840&#45;&gt;Node0x2c0a7d0 -->
<g id="edge23" class="edge"><title>Node0x2c0a840&#45;&gt;Node0x2c0a7d0</title>
<path fill="none" stroke="black" d="M398.778,-497.141C363.262,-487.606 326,-469.019 326,-433 326,-433 326,-433 326,-207 326,-183.066 322.851,-176.333 312,-155 310.169,-151.401 307.938,-147.826 305.534,-144.405"/>
<polygon fill="black" stroke="black" points="308.187,-142.112 299.334,-136.291 302.625,-146.362 308.187,-142.112"/>
</g>
<!-- Node0x2c0a840&#45;&gt;Node0x2c0a290 -->
<g id="edge15" class="edge"><title>Node0x2c0a840&#45;&gt;Node0x2c0a290</title>
<path fill="none" stroke="black" d="M455.759,-489.737C447.823,-467.786 434.035,-429.649 424.717,-403.877"/>
<polygon fill="black" stroke="black" points="427.959,-402.549 421.267,-394.334 421.376,-404.929 427.959,-402.549"/>
</g>
<!-- Node0x2c0a840&#45;&gt;Node0x2c0a230 -->
<g id="edge16" class="edge"><title>Node0x2c0a840&#45;&gt;Node0x2c0a230</title>
<path fill="none" stroke="black" d="M525.328,-506.858C602.041,-505.433 725.436,-498.728 761,-471 817.371,-427.05 833.537,-337.711 838.159,-292.511"/>
<polygon fill="black" stroke="black" points="841.669,-292.555 839.083,-282.28 834.697,-291.925 841.669,-292.555"/>
</g>
<!-- Node0x2c0a840&#45;&gt;Node0x2c0a420 -->
<g id="edge17" class="edge"><title>Node0x2c0a840&#45;&gt;Node0x2c0a420</title>
<path fill="none" stroke="black" d="M502.82,-489.837C528.255,-479.143 561.155,-465.31 588.129,-453.969"/>
<polygon fill="black" stroke="black" points="589.539,-457.172 597.401,-450.07 586.826,-450.72 589.539,-457.172"/>
</g>
<!-- Node0x2c0a840&#45;&gt;Node0x2c0a490 -->
<g id="edge19" class="edge"><title>Node0x2c0a840&#45;&gt;Node0x2c0a490</title>
<path fill="none" stroke="black" d="M484.323,-489.997C491.257,-484.282 498.722,-477.66 505,-471 527.011,-447.649 528.138,-438.204 548,-413 566.223,-389.876 587.797,-364.24 603.467,-345.915"/>
<polygon fill="black" stroke="black" points="606.363,-347.915 610.217,-338.046 601.05,-343.357 606.363,-347.915"/>
</g>
<!-- Node0x2c0a840&#45;&gt;Node0x2c0a5b0 -->
<g id="edge20" class="edge"><title>Node0x2c0a840&#45;&gt;Node0x2c0a5b0</title>
<path fill="none" stroke="black" d="M465.997,-489.91C476.326,-446.572 504.525,-333.519 525,-301 542.275,-273.562 569.825,-249.068 591.638,-232.265"/>
<polygon fill="black" stroke="black" points="593.797,-235.021 599.683,-226.212 589.588,-229.427 593.797,-235.021"/>
</g>
<!-- Node0x2c0a840&#45;&gt;Node0x2c0a640 -->
<g id="edge21" class="edge"><title>Node0x2c0a840&#45;&gt;Node0x2c0a640</title>
<path fill="none" stroke="black" d="M525.251,-503.248C609.214,-496.501 747,-478.497 747,-433 747,-433 747,-433 747,-207 747,-181.906 741.388,-174.005 725,-155 720.835,-150.169 715.855,-145.793 710.58,-141.89"/>
<polygon fill="black" stroke="black" points="712.36,-138.868 702.12,-136.149 708.429,-144.661 712.36,-138.868"/>
</g>
</g>
</svg>
