<?xml version="1.0" encoding="UTF-8" standalone="no"?>
<!DOCTYPE svg PUBLIC "-//W3C//DTD SVG 1.1//EN"
 "http://www.w3.org/Graphics/SVG/1.1/DTD/svg11.dtd">
<!-- Generated by graphviz version 2.36.0 (20140111.2315)
 -->
<!-- Title: Program Dependency Graph for &#39;main&#39; function Pages: 1 -->
<svg width="2458pt" height="535pt"
 viewBox="0.00 0.00 2458.00 535.00" xmlns="http://www.w3.org/2000/svg" xmlns:xlink="http://www.w3.org/1999/xlink">
<g id="graph0" class="graph" transform="scale(1 1) rotate(0) translate(4 531)">
<title>Program Dependency Graph for &#39;main&#39; function</title>
<polygon fill="white" stroke="none" points="-4,4 -4,-531 2454,-531 2454,4 -4,4"/>
<text text-anchor="middle" x="1225" y="-7.8" font-family="Times,serif" font-size="14.00">Program Dependency Graph for &#39;main&#39; function</text>
<!-- Node0x3d834c0 -->
<g id="node1" class="node"><title>Node0x3d834c0</title>
<polygon fill="none" stroke="black" points="85.5,-414 85.5,-450 258.5,-450 258.5,-414 85.5,-414"/>
<text text-anchor="middle" x="172" y="-428.3" font-family="Times,serif" font-size="14.00">%retval = alloca i32, align 4</text>
</g>
<!-- Node0x3d83790 -->
<g id="node2" class="node"><title>Node0x3d83790</title>
<polygon fill="none" stroke="black" points="145,-302 145,-338 297,-338 297,-302 145,-302"/>
<text text-anchor="middle" x="221" y="-316.3" font-family="Times,serif" font-size="14.00">store i32 0, i32* %retval</text>
</g>
<!-- Node0x3d834c0&#45;&gt;Node0x3d83790 -->
<g id="edge1" class="edge"><title>Node0x3d834c0&#45;&gt;Node0x3d83790</title>
<path fill="none" stroke="black" stroke-dasharray="1,5" d="M177.936,-413.977C183.401,-398.8 192.002,-376.098 201,-357 202.508,-353.798 204.181,-350.489 205.899,-347.233"/>
<polygon fill="black" stroke="black" points="209.037,-348.788 210.756,-338.333 202.893,-345.434 209.037,-348.788"/>
<text text-anchor="middle" x="237" y="-372.3" font-family="Times,serif" font-size="14.00">{DEF_USE}</text>
</g>
<!-- Node0x3d83800 -->
<g id="node3" class="node"><title>Node0x3d83800</title>
<polygon fill="none" stroke="black" points="-0.5,-190 -0.5,-226 202.5,-226 202.5,-190 -0.5,-190"/>
<text text-anchor="middle" x="101" y="-204.3" font-family="Times,serif" font-size="14.00">%1 = load i32* %retval, !dbg !26</text>
</g>
<!-- Node0x3d834c0&#45;&gt;Node0x3d83800 -->
<g id="edge2" class="edge"><title>Node0x3d834c0&#45;&gt;Node0x3d83800</title>
<path fill="none" stroke="black" stroke-dasharray="1,5" d="M139.752,-413.995C113.906,-398.363 79.4895,-372.542 64,-339 48.0714,-304.507 67.0915,-261.644 83.2245,-234.796"/>
<polygon fill="black" stroke="black" points="86.3902,-236.336 88.7485,-226.007 80.4637,-232.611 86.3902,-236.336"/>
<text text-anchor="middle" x="100" y="-316.3" font-family="Times,serif" font-size="14.00">{DEF_USE}</text>
</g>
<!-- Node0x3d83790&#45;&gt;Node0x3d83800 -->
<g id="edge3" class="edge"><title>Node0x3d83790&#45;&gt;Node0x3d83800</title>
<path fill="none" stroke="black" stroke-dasharray="1,5" d="M202.25,-301.812C182.084,-283.327 149.868,-253.795 127.202,-233.018"/>
<polygon fill="black" stroke="black" points="129.355,-230.244 119.618,-226.067 124.625,-235.404 129.355,-230.244"/>
<text text-anchor="middle" x="219.5" y="-260.3" font-family="Times,serif" font-size="14.00">{RAW} retval</text>
</g>
<!-- Node0x3d85340 -->
<g id="node4" class="node"><title>Node0x3d85340</title>
<polygon fill="none" stroke="black" points="149,-100 149,-136 277,-136 277,-100 149,-100"/>
<text text-anchor="middle" x="213" y="-114.3" font-family="Times,serif" font-size="14.00">ret i32 %1, !dbg !26</text>
</g>
<!-- Node0x3d83800&#45;&gt;Node0x3d85340 -->
<g id="edge4" class="edge"><title>Node0x3d83800&#45;&gt;Node0x3d85340</title>
<path fill="none" stroke="black" stroke-dasharray="1,5" d="M122.861,-189.824C140.051,-176.317 164.183,-157.356 183.152,-142.452"/>
<polygon fill="black" stroke="black" points="185.494,-145.063 191.195,-136.133 181.169,-139.559 185.494,-145.063"/>
<text text-anchor="middle" x="204" y="-159.3" font-family="Times,serif" font-size="14.00">{DEF_USE}</text>
</g>
<!-- Node0x3d838d0 -->
<g id="node5" class="node"><title>Node0x3d838d0</title>
<polygon fill="none" stroke="black" points="339.5,-358 339.5,-394 488.5,-394 488.5,-358 339.5,-358"/>
<text text-anchor="middle" x="414" y="-372.3" font-family="Times,serif" font-size="14.00">%a = alloca i32, align 4</text>
</g>
<!-- Node0x3d83940 -->
<g id="node6" class="node"><title>Node0x3d83940</title>
<polygon fill="none" stroke="black" points="299.5,-24 299.5,-60 526.5,-60 526.5,-24 299.5,-24"/>
<text text-anchor="middle" x="413" y="-38.3" font-family="Times,serif" font-size="14.00">store i32 1, i32* %a, align 4, !dbg !21</text>
</g>
<!-- Node0x3d838d0&#45;&gt;Node0x3d83940 -->
<g id="edge5" class="edge"><title>Node0x3d838d0&#45;&gt;Node0x3d83940</title>
<path fill="none" stroke="black" stroke-dasharray="1,5" d="M402.702,-357.9C389.962,-336.928 371,-299.858 371,-265 371,-265 371,-265 371,-117 371,-99.0171 380.497,-81.4036 390.459,-67.8747"/>
<polygon fill="black" stroke="black" points="393.212,-70.0364 396.641,-60.012 387.709,-65.7098 393.212,-70.0364"/>
<text text-anchor="middle" x="407" y="-204.3" font-family="Times,serif" font-size="14.00">{DEF_USE}</text>
</g>
<!-- Node0x3d83870 -->
<g id="node7" class="node"><title>Node0x3d83870</title>
<polygon fill="none" stroke="black" points="1380.5,-246 1380.5,-282 1529.5,-282 1529.5,-246 1380.5,-246"/>
<text text-anchor="middle" x="1455" y="-260.3" font-family="Times,serif" font-size="14.00">%b = alloca i32, align 4</text>
</g>
<!-- Node0x3d839f0 -->
<g id="node8" class="node"><title>Node0x3d839f0</title>
<polygon fill="none" stroke="black" points="1267.5,-24 1267.5,-60 1494.5,-60 1494.5,-24 1267.5,-24"/>
<text text-anchor="middle" x="1381" y="-38.3" font-family="Times,serif" font-size="14.00">store i32 2, i32* %b, align 4, !dbg !24</text>
</g>
<!-- Node0x3d83870&#45;&gt;Node0x3d839f0 -->
<g id="edge6" class="edge"><title>Node0x3d83870&#45;&gt;Node0x3d839f0</title>
<path fill="none" stroke="black" stroke-dasharray="1,5" d="M1529.64,-259.394C1615.8,-254.45 1747.72,-244.168 1763,-227 1774.23,-214.384 1772.58,-202.912 1763,-189 1705.44,-105.377 1593,-69.6201 1504.95,-54.3471"/>
<polygon fill="black" stroke="black" points="1505.32,-50.8609 1494.88,-52.6709 1504.17,-57.7658 1505.32,-50.8609"/>
<text text-anchor="middle" x="1783" y="-159.3" font-family="Times,serif" font-size="14.00">{DEF_USE}</text>
</g>
<!-- Node0x3d83a60 -->
<g id="node9" class="node"><title>Node0x3d83a60</title>
<polygon fill="none" stroke="black" points="753,-414 753,-450 915,-450 915,-414 753,-414"/>
<text text-anchor="middle" x="834" y="-428.3" font-family="Times,serif" font-size="14.00">%key = alloca i32, align 4</text>
</g>
<!-- Node0x3d83ad0 -->
<g id="node10" class="node"><title>Node0x3d83ad0</title>
<polygon fill="none" stroke="black" points="753,-302 753,-338 1011,-338 1011,-302 753,-302"/>
<text text-anchor="middle" x="882" y="-316.3" font-family="Times,serif" font-size="14.00">%key1 = bitcast i32* %key to i8*, !dbg !18</text>
</g>
<!-- Node0x3d83a60&#45;&gt;Node0x3d83ad0 -->
<g id="edge7" class="edge"><title>Node0x3d83a60&#45;&gt;Node0x3d83ad0</title>
<path fill="none" stroke="black" stroke-dasharray="1,5" d="M837.715,-413.985C841.434,-398.615 847.911,-375.618 857,-357 858.667,-353.585 860.635,-350.133 862.723,-346.788"/>
<polygon fill="black" stroke="black" points="865.761,-348.541 868.406,-338.281 859.941,-344.652 865.761,-348.541"/>
<text text-anchor="middle" x="893" y="-372.3" font-family="Times,serif" font-size="14.00">{DEF_USE}</text>
</g>
<!-- Node0x3d83bd0 -->
<g id="node11" class="node"><title>Node0x3d83bd0</title>
<polygon fill="none" stroke="black" points="461,-302 461,-338 697,-338 697,-302 461,-302"/>
<text text-anchor="middle" x="579" y="-316.3" font-family="Times,serif" font-size="14.00">%0 = load i32* %key, align 4, !dbg !19</text>
</g>
<!-- Node0x3d83a60&#45;&gt;Node0x3d83bd0 -->
<g id="edge8" class="edge"><title>Node0x3d83a60&#45;&gt;Node0x3d83bd0</title>
<path fill="none" stroke="black" stroke-dasharray="1,5" d="M794.436,-413.933C749.583,-394.585 676.422,-363.025 627.996,-342.136"/>
<polygon fill="black" stroke="black" points="629.225,-338.854 618.657,-338.107 626.453,-345.282 629.225,-338.854"/>
<text text-anchor="middle" x="780" y="-372.3" font-family="Times,serif" font-size="14.00">{DEF_USE}</text>
</g>
<!-- Node0x3d83c70 -->
<g id="node12" class="node"><title>Node0x3d83c70</title>
<polygon fill="none" stroke="black" points="753.5,-190 753.5,-226 1754.5,-226 1754.5,-190 753.5,-190"/>
<text text-anchor="middle" x="1254" y="-204.3" font-family="Times,serif" font-size="14.00">call void @llvm.var.annotation(i8* %key1, i8* getelementptr inbounds ([10 x i8]* @.str, i32 0, i32 0), i8* getelementptr inbounds ([6 x i8]* @.str1, i32 0, i32 0), i32 4), !dbg !18</text>
</g>
<!-- Node0x3d83ad0&#45;&gt;Node0x3d83c70 -->
<g id="edge9" class="edge"><title>Node0x3d83ad0&#45;&gt;Node0x3d83c70</title>
<path fill="none" stroke="black" stroke-dasharray="1,5" d="M893.02,-301.925C905.346,-284.41 927.029,-257.95 953,-245 967.114,-237.962 991.117,-232.247 1019.61,-227.62"/>
<polygon fill="black" stroke="black" points="1020.52,-231.02 1029.86,-226.028 1019.44,-224.103 1020.52,-231.02"/>
<text text-anchor="middle" x="989" y="-260.3" font-family="Times,serif" font-size="14.00">{DEF_USE}</text>
</g>
<!-- Node0x3d850d0 -->
<g id="node13" class="node"><title>Node0x3d850d0</title>
<polygon fill="none" stroke="black" points="461.5,-190 461.5,-226 696.5,-226 696.5,-190 461.5,-190"/>
<text text-anchor="middle" x="579" y="-204.3" font-family="Times,serif" font-size="14.00">%tobool = icmp ne i32 %0, 0, !dbg !19</text>
</g>
<!-- Node0x3d83bd0&#45;&gt;Node0x3d850d0 -->
<g id="edge10" class="edge"><title>Node0x3d83bd0&#45;&gt;Node0x3d850d0</title>
<path fill="none" stroke="black" stroke-dasharray="1,5" d="M579,-301.812C579,-284.215 579,-256.607 579,-236.071"/>
<polygon fill="black" stroke="black" points="582.5,-236.067 579,-226.067 575.5,-236.067 582.5,-236.067"/>
<text text-anchor="middle" x="615" y="-260.3" font-family="Times,serif" font-size="14.00">{DEF_USE}</text>
</g>
<!-- Node0x3d85160 -->
<g id="node14" class="node"><title>Node0x3d85160</title>
<polygon fill="none" stroke="black" points="510,-100 510,-136 824,-136 824,-100 510,-100"/>
<text text-anchor="middle" x="667" y="-114.3" font-family="Times,serif" font-size="14.00">br i1 %tobool, label %if.then, label %if.else, !dbg !19</text>
</g>
<!-- Node0x3d850d0&#45;&gt;Node0x3d85160 -->
<g id="edge11" class="edge"><title>Node0x3d850d0&#45;&gt;Node0x3d85160</title>
<path fill="none" stroke="black" stroke-dasharray="1,5" d="M596.386,-189.614C609.609,-176.391 627.968,-158.032 642.652,-143.348"/>
<polygon fill="black" stroke="black" points="645.353,-145.596 649.95,-136.05 640.404,-140.647 645.353,-145.596"/>
<text text-anchor="middle" x="667" y="-159.3" font-family="Times,serif" font-size="14.00">{DEF_USE}</text>
</g>
<!-- Node0x3d85160&#45;&gt;Node0x3d83940 -->
<g id="edge12" class="edge"><title>Node0x3d85160&#45;&gt;Node0x3d83940</title>
<path fill="none" stroke="black" d="M608.408,-99.93C570.511,-88.8889 521.029,-74.473 481.342,-62.9105"/>
<polygon fill="black" stroke="black" points="482.316,-59.549 471.736,-60.1122 480.358,-66.2696 482.316,-59.549"/>
</g>
<!-- Node0x3d85160&#45;&gt;Node0x3d839f0 -->
<g id="edge14" class="edge"><title>Node0x3d85160&#45;&gt;Node0x3d839f0</title>
<path fill="none" stroke="black" d="M824.132,-100.715C954.524,-87.2006 1137.4,-68.247 1257.49,-55.8008"/>
<polygon fill="black" stroke="black" points="1257.88,-59.2791 1267.47,-54.7668 1257.16,-52.3164 1257.88,-59.2791"/>
</g>
<!-- Node0x3d85210 -->
<g id="node15" class="node"><title>Node0x3d85210</title>
<polygon fill="none" stroke="black" points="565.5,-24 565.5,-60 724.5,-60 724.5,-24 565.5,-24"/>
<text text-anchor="middle" x="645" y="-38.3" font-family="Times,serif" font-size="14.00">br label %if.end, !dbg !23</text>
</g>
<!-- Node0x3d85160&#45;&gt;Node0x3d85210 -->
<g id="edge13" class="edge"><title>Node0x3d85160&#45;&gt;Node0x3d85210</title>
<path fill="none" stroke="black" d="M661.897,-99.8369C659.26,-90.9642 655.979,-79.9306 653.013,-69.952"/>
<polygon fill="black" stroke="black" points="656.28,-68.658 650.075,-60.07 649.57,-70.6528 656.28,-68.658"/>
</g>
<!-- Node0x3d85280 -->
<g id="node16" class="node"><title>Node0x3d85280</title>
<polygon fill="none" stroke="black" points="742.5,-24 742.5,-60 847.5,-60 847.5,-24 742.5,-24"/>
<text text-anchor="middle" x="795" y="-38.3" font-family="Times,serif" font-size="14.00">br label %if.end</text>
</g>
<!-- Node0x3d85160&#45;&gt;Node0x3d85280 -->
<g id="edge15" class="edge"><title>Node0x3d85160&#45;&gt;Node0x3d85280</title>
<path fill="none" stroke="black" d="M696.688,-99.8369C714.539,-89.5165 737.447,-76.2727 756.659,-65.166"/>
<polygon fill="black" stroke="black" points="758.568,-68.1052 765.473,-60.07 755.064,-62.045 758.568,-68.1052"/>
</g>
<!-- Node0x3d853b0 -->
<g id="node17" class="node"><title>Node0x3d853b0</title>
<polygon fill="none" stroke="black" points="662,-490 662,-526 788,-526 788,-490 662,-490"/>
<text text-anchor="middle" x="725" y="-504.3" font-family="Times,serif" font-size="14.00">&lt;&lt;ENTRY&gt;&gt; main</text>
</g>
<!-- Node0x3d853b0&#45;&gt;Node0x3d834c0 -->
<g id="edge16" class="edge"><title>Node0x3d853b0&#45;&gt;Node0x3d834c0</title>
<path fill="none" stroke="black" d="M661.658,-507.507C573.468,-506.964 409.18,-501.405 273,-471 254.964,-466.973 235.832,-460.408 219.126,-453.858"/>
<polygon fill="black" stroke="black" points="220.181,-450.51 209.597,-450.023 217.567,-457.003 220.181,-450.51"/>
</g>
<!-- Node0x3d853b0&#45;&gt;Node0x3d83790 -->
<g id="edge20" class="edge"><title>Node0x3d853b0&#45;&gt;Node0x3d83790</title>
<path fill="none" stroke="black" d="M661.57,-505.274C552.357,-501.749 337.871,-492.196 311,-471 269.068,-437.923 305.044,-399.726 273,-357 269.497,-352.329 265.206,-348.046 260.605,-344.19"/>
<polygon fill="black" stroke="black" points="262.725,-341.405 252.655,-338.112 258.474,-346.966 262.725,-341.405"/>
</g>
<!-- Node0x3d853b0&#45;&gt;Node0x3d83800 -->
<g id="edge29" class="edge"><title>Node0x3d853b0&#45;&gt;Node0x3d83800</title>
<path fill="none" stroke="black" d="M661.949,-505.854C507.301,-502.445 118.642,-490.046 76,-451 8.21898,-388.934 16.1697,-326.833 58,-245 60.2102,-240.676 63.1913,-236.671 66.559,-233.024"/>
<polygon fill="black" stroke="black" points="69.0549,-235.48 73.8918,-226.054 64.2323,-230.406 69.0549,-235.48"/>
</g>
<!-- Node0x3d853b0&#45;&gt;Node0x3d85340 -->
<g id="edge30" class="edge"><title>Node0x3d853b0&#45;&gt;Node0x3d85340</title>
<path fill="none" stroke="black" d="M661.619,-501.713C548.83,-491.446 325,-466.811 325,-433 325,-433 325,-433 325,-207 325,-176.341 298.729,-154.737 271.634,-140.61"/>
<polygon fill="black" stroke="black" points="272.97,-137.367 262.451,-136.103 269.886,-143.651 272.97,-137.367"/>
</g>
<!-- Node0x3d853b0&#45;&gt;Node0x3d838d0 -->
<g id="edge17" class="edge"><title>Node0x3d853b0&#45;&gt;Node0x3d838d0</title>
<path fill="none" stroke="black" d="M661.876,-502.565C602.183,-497.451 517.612,-487.549 489,-471 461.485,-455.086 440.17,-424.853 427.413,-402.962"/>
<polygon fill="black" stroke="black" points="430.42,-401.168 422.476,-394.157 424.314,-404.591 430.42,-401.168"/>
</g>
<!-- Node0x3d853b0&#45;&gt;Node0x3d83870 -->
<g id="edge18" class="edge"><title>Node0x3d853b0&#45;&gt;Node0x3d83870</title>
<path fill="none" stroke="black" d="M788.225,-505.932C870.557,-503.55 1009.14,-495.854 1053,-471 1081.15,-455.048 1071.38,-432.759 1097,-413 1181.4,-347.915 1298.49,-306.696 1375.46,-284.735"/>
<polygon fill="black" stroke="black" points="1376.43,-288.099 1385.11,-282.023 1374.54,-281.36 1376.43,-288.099"/>
</g>
<!-- Node0x3d853b0&#45;&gt;Node0x3d83a60 -->
<g id="edge19" class="edge"><title>Node0x3d853b0&#45;&gt;Node0x3d83a60</title>
<path fill="none" stroke="black" d="M750.281,-489.837C765.139,-479.75 784.11,-466.87 800.235,-455.923"/>
<polygon fill="black" stroke="black" points="802.549,-458.583 808.856,-450.07 798.617,-452.791 802.549,-458.583"/>
</g>
<!-- Node0x3d853b0&#45;&gt;Node0x3d83ad0 -->
<g id="edge24" class="edge"><title>Node0x3d853b0&#45;&gt;Node0x3d83ad0</title>
<path fill="none" stroke="black" d="M788.218,-497.175C839.69,-487.796 906.579,-471.989 924,-451 950.72,-418.807 947.52,-394.514 929,-357 926.839,-352.622 923.861,-348.63 920.445,-345.03"/>
<polygon fill="black" stroke="black" points="922.689,-342.339 912.938,-338.196 917.976,-347.516 922.689,-342.339"/>
</g>
<!-- Node0x3d853b0&#45;&gt;Node0x3d83bd0 -->
<g id="edge26" class="edge"><title>Node0x3d853b0&#45;&gt;Node0x3d83bd0</title>
<path fill="none" stroke="black" d="M711.526,-489.835C685.668,-456.893 628.978,-384.671 598.807,-346.233"/>
<polygon fill="black" stroke="black" points="601.369,-343.829 592.441,-338.124 595.862,-348.151 601.369,-343.829"/>
</g>
<!-- Node0x3d853b0&#45;&gt;Node0x3d83c70 -->
<g id="edge25" class="edge"><title>Node0x3d853b0&#45;&gt;Node0x3d83c70</title>
<path fill="none" stroke="black" d="M788.003,-498.804C823.555,-493.127 868.447,-484.182 907,-471 1050.31,-422 1182.12,-288.879 1232.44,-233.589"/>
<polygon fill="black" stroke="black" points="1235.17,-235.787 1239.26,-226.015 1229.97,-231.102 1235.17,-235.787"/>
</g>
<!-- Node0x3d853b0&#45;&gt;Node0x3d850d0 -->
<g id="edge27" class="edge"><title>Node0x3d853b0&#45;&gt;Node0x3d850d0</title>
<path fill="none" stroke="black" d="M700.081,-489.833C657.649,-460.906 568.255,-401.278 489,-357 473.035,-348.081 461.699,-354.503 452,-339 424.704,-295.366 483.76,-254.555 530.204,-230.687"/>
<polygon fill="black" stroke="black" points="531.915,-233.745 539.295,-226.143 528.785,-227.483 531.915,-233.745"/>
</g>
<!-- Node0x3d853b0&#45;&gt;Node0x3d85160 -->
<g id="edge28" class="edge"><title>Node0x3d853b0&#45;&gt;Node0x3d85160</title>
<path fill="none" stroke="black" d="M725,-489.953C725,-474.954 725,-452.528 725,-433 725,-433 725,-433 725,-207 725,-182.543 720.517,-175.381 707,-155 704.302,-150.932 701.039,-147.025 697.554,-143.382"/>
<polygon fill="black" stroke="black" points="699.833,-140.718 690.199,-136.31 694.982,-145.764 699.833,-140.718"/>
</g>
<!-- Node0x3d83e80 -->
<g id="node18" class="node"><title>Node0x3d83e80</title>
<polygon fill="none" stroke="black" points="1105.5,-414 1105.5,-450 1536.5,-450 1536.5,-414 1105.5,-414"/>
<text text-anchor="middle" x="1321" y="-428.3" font-family="Times,serif" font-size="14.00">call void @llvm.dbg.declare(metadata !{i32* %a}, metadata !12), !dbg !13</text>
</g>
<!-- Node0x3d853b0&#45;&gt;Node0x3d83e80 -->
<g id="edge21" class="edge"><title>Node0x3d853b0&#45;&gt;Node0x3d83e80</title>
<path fill="none" stroke="black" d="M788.292,-502.045C861.373,-496.03 985.127,-484.938 1091,-471 1132.24,-465.57 1177.45,-458.375 1216.78,-451.706"/>
<polygon fill="black" stroke="black" points="1217.38,-455.155 1226.65,-450.024 1216.2,-448.255 1217.38,-455.155"/>
</g>
<!-- Node0x3d83eb0 -->
<g id="node19" class="node"><title>Node0x3d83eb0</title>
<polygon fill="none" stroke="black" points="1555,-414 1555,-450 1987,-450 1987,-414 1555,-414"/>
<text text-anchor="middle" x="1771" y="-428.3" font-family="Times,serif" font-size="14.00">call void @llvm.dbg.declare(metadata !{i32* %b}, metadata !14), !dbg !15</text>
</g>
<!-- Node0x3d853b0&#45;&gt;Node0x3d83eb0 -->
<g id="edge22" class="edge"><title>Node0x3d853b0&#45;&gt;Node0x3d83eb0</title>
<path fill="none" stroke="black" d="M788.03,-502.939C925.524,-494.027 1262.7,-471.881 1545,-451 1546.1,-450.918 1547.21,-450.836 1548.32,-450.754"/>
<polygon fill="black" stroke="black" points="1548.67,-454.238 1558.38,-450.003 1548.15,-447.257 1548.67,-454.238"/>
</g>
<!-- Node0x3d83ee0 -->
<g id="node20" class="node"><title>Node0x3d83ee0</title>
<polygon fill="none" stroke="black" points="2005.5,-414 2005.5,-450 2450.5,-450 2450.5,-414 2005.5,-414"/>
<text text-anchor="middle" x="2228" y="-428.3" font-family="Times,serif" font-size="14.00">call void @llvm.dbg.declare(metadata !{i32* %key}, metadata !16), !dbg !17</text>
</g>
<!-- Node0x3d853b0&#45;&gt;Node0x3d83ee0 -->
<g id="edge23" class="edge"><title>Node0x3d853b0&#45;&gt;Node0x3d83ee0</title>
<path fill="none" stroke="black" d="M788.188,-504.963C973.68,-498.824 1532.74,-479.169 1996,-451 1997.8,-450.89 1999.61,-450.779 2001.43,-450.666"/>
<polygon fill="black" stroke="black" points="2002.14,-454.128 2011.9,-450.004 2001.7,-447.142 2002.14,-454.128"/>
</g>
</g>
</svg>
