<?xml version="1.0" encoding="UTF-8" standalone="no"?>
<!DOCTYPE svg PUBLIC "-//W3C//DTD SVG 1.1//EN"
 "http://www.w3.org/Graphics/SVG/1.1/DTD/svg11.dtd">
<!-- Generated by graphviz version 2.36.0 (20140111.2315)
 -->
<!-- Title: Program Dependency Graph for &#39;main&#39; function Pages: 1 -->
<svg width="1443pt" height="917pt"
 viewBox="0.00 0.00 1443.00 917.00" xmlns="http://www.w3.org/2000/svg" xmlns:xlink="http://www.w3.org/1999/xlink">
<g id="graph0" class="graph" transform="scale(1 1) rotate(0) translate(4 913)">
<title>Program Dependency Graph for &#39;main&#39; function</title>
<polygon fill="white" stroke="none" points="-4,4 -4,-913 1439,-913 1439,4 -4,4"/>
<text text-anchor="middle" x="717.5" y="-7.8" font-family="Times,serif" font-size="14.00">Program Dependency Graph for &#39;main&#39; function</text>
<!-- Node0x2040cd0 -->
<g id="node1" class="node"><title>Node0x2040cd0</title>
<polygon fill="none" stroke="black" points="78.5,-796 78.5,-832 251.5,-832 251.5,-796 78.5,-796"/>
<text text-anchor="middle" x="165" y="-810.3" font-family="Times,serif" font-size="14.00">%retval = alloca i32, align 4</text>
</g>
<!-- Node0x2040d40 -->
<g id="node2" class="node"><title>Node0x2040d40</title>
<polygon fill="none" stroke="black" points="186,-684 186,-720 338,-720 338,-684 186,-684"/>
<text text-anchor="middle" x="262" y="-698.3" font-family="Times,serif" font-size="14.00">store i32 0, i32* %retval</text>
</g>
<!-- Node0x2040cd0&#45;&gt;Node0x2040d40 -->
<g id="edge1" class="edge"><title>Node0x2040cd0&#45;&gt;Node0x2040d40</title>
<path fill="none" stroke="black" stroke-dasharray="1,5" d="M168.113,-795.92C171.838,-779.641 179.482,-755.265 194,-739 198.542,-733.911 203.978,-729.42 209.769,-725.491"/>
<polygon fill="black" stroke="black" points="211.778,-728.364 218.447,-720.132 208.1,-722.408 211.778,-728.364"/>
<text text-anchor="middle" x="230" y="-754.3" font-family="Times,serif" font-size="14.00">{DEF_USE}</text>
</g>
<!-- Node0x2040db0 -->
<g id="node3" class="node"><title>Node0x2040db0</title>
<polygon fill="none" stroke="black" points="30.5,-572 30.5,-608 179.5,-608 179.5,-572 30.5,-572"/>
<text text-anchor="middle" x="105" y="-586.3" font-family="Times,serif" font-size="14.00">%2 = load i32* %retval</text>
</g>
<!-- Node0x2040cd0&#45;&gt;Node0x2040db0 -->
<g id="edge2" class="edge"><title>Node0x2040cd0&#45;&gt;Node0x2040db0</title>
<path fill="none" stroke="black" stroke-dasharray="1,5" d="M149.406,-795.902C134.693,-778.514 113.639,-750.062 105,-721 94.8258,-686.775 97.2265,-645.203 100.546,-618.436"/>
<polygon fill="black" stroke="black" points="104.048,-618.656 101.939,-608.274 97.113,-617.705 104.048,-618.656"/>
<text text-anchor="middle" x="141" y="-698.3" font-family="Times,serif" font-size="14.00">{DEF_USE}</text>
</g>
<!-- Node0x2040d40&#45;&gt;Node0x2040db0 -->
<g id="edge3" class="edge"><title>Node0x2040d40&#45;&gt;Node0x2040db0</title>
<path fill="none" stroke="black" stroke-dasharray="1,5" d="M237.469,-683.812C210.624,-665.004 167.458,-634.76 137.738,-613.938"/>
<polygon fill="black" stroke="black" points="139.557,-610.939 129.359,-608.067 135.541,-616.671 139.557,-610.939"/>
<text text-anchor="middle" x="247.5" y="-642.3" font-family="Times,serif" font-size="14.00">{RAW} retval</text>
</g>
<!-- Node0x20418f0 -->
<g id="node4" class="node"><title>Node0x20418f0</title>
<polygon fill="none" stroke="black" points="0,-460 0,-496 74,-496 74,-460 0,-460"/>
<text text-anchor="middle" x="37" y="-474.3" font-family="Times,serif" font-size="14.00">ret i32 %2</text>
</g>
<!-- Node0x2040db0&#45;&gt;Node0x20418f0 -->
<g id="edge4" class="edge"><title>Node0x2040db0&#45;&gt;Node0x20418f0</title>
<path fill="none" stroke="black" stroke-dasharray="1,5" d="M94.375,-571.812C83.2469,-553.811 65.6437,-525.335 52.8682,-504.669"/>
<polygon fill="black" stroke="black" points="55.7857,-502.732 47.5504,-496.067 49.8316,-506.413 55.7857,-502.732"/>
<text text-anchor="middle" x="118" y="-530.3" font-family="Times,serif" font-size="14.00">{DEF_USE}</text>
</g>
<!-- Node0x2040e80 -->
<g id="node5" class="node"><title>Node0x2040e80</title>
<polygon fill="none" stroke="black" points="810.5,-460 810.5,-496 959.5,-496 959.5,-460 810.5,-460"/>
<text text-anchor="middle" x="885" y="-474.3" font-family="Times,serif" font-size="14.00">%a = alloca i32, align 4</text>
</g>
<!-- Node0x2040ef0 -->
<g id="node6" class="node"><title>Node0x2040ef0</title>
<polygon fill="none" stroke="black" points="732.5,-370 732.5,-406 905.5,-406 905.5,-370 732.5,-370"/>
<text text-anchor="middle" x="819" y="-384.3" font-family="Times,serif" font-size="14.00">store i32 1, i32* %a, align 4</text>
</g>
<!-- Node0x2040e80&#45;&gt;Node0x2040ef0 -->
<g id="edge5" class="edge"><title>Node0x2040e80&#45;&gt;Node0x2040ef0</title>
<path fill="none" stroke="black" stroke-dasharray="1,5" d="M870.923,-459.952C866.112,-454.015 860.749,-447.27 856,-441 849.545,-432.478 842.7,-422.994 836.676,-414.483"/>
<polygon fill="black" stroke="black" points="839.36,-412.215 830.746,-406.046 833.633,-416.24 839.36,-412.215"/>
<text text-anchor="middle" x="892" y="-429.3" font-family="Times,serif" font-size="14.00">{DEF_USE}</text>
</g>
<!-- Node0x2040e20 -->
<g id="node7" class="node"><title>Node0x2040e20</title>
<polygon fill="none" stroke="black" points="857.5,-280 857.5,-316 1026.5,-316 1026.5,-280 857.5,-280"/>
<text text-anchor="middle" x="942" y="-294.3" font-family="Times,serif" font-size="14.00">%1 = load i32* %a, align 4</text>
</g>
<!-- Node0x2040e80&#45;&gt;Node0x2040e20 -->
<g id="edge6" class="edge"><title>Node0x2040e80&#45;&gt;Node0x2040e20</title>
<path fill="none" stroke="black" stroke-dasharray="1,5" d="M911.976,-459.877C918.237,-454.593 924.18,-448.231 928,-441 947.066,-404.91 947.389,-356.454 945.198,-326.5"/>
<polygon fill="black" stroke="black" points="948.668,-326.014 944.307,-316.358 941.695,-326.626 948.668,-326.014"/>
<text text-anchor="middle" x="981" y="-384.3" font-family="Times,serif" font-size="14.00">{DEF_USE}</text>
</g>
<!-- Node0x2040ef0&#45;&gt;Node0x2040e20 -->
<g id="edge7" class="edge"><title>Node0x2040ef0&#45;&gt;Node0x2040e20</title>
<path fill="none" stroke="black" stroke-dasharray="1,5" d="M834.097,-369.717C844.132,-358.886 857.996,-345.113 872,-335 879.084,-329.885 886.995,-325.079 894.88,-320.747"/>
<polygon fill="black" stroke="black" points="896.522,-323.837 903.724,-316.066 893.248,-317.65 896.522,-323.837"/>
<text text-anchor="middle" x="900" y="-339.3" font-family="Times,serif" font-size="14.00">{RAW} a</text>
</g>
<!-- Node0x20416a0 -->
<g id="node8" class="node"><title>Node0x20416a0</title>
<polygon fill="none" stroke="black" points="848,-190 848,-226 1036,-226 1036,-190 848,-190"/>
<text text-anchor="middle" x="942" y="-204.3" font-family="Times,serif" font-size="14.00">%tobool1 = icmp ne i32 %1, 0</text>
</g>
<!-- Node0x2040e20&#45;&gt;Node0x20416a0 -->
<g id="edge8" class="edge"><title>Node0x2040e20&#45;&gt;Node0x20416a0</title>
<path fill="none" stroke="black" stroke-dasharray="1,5" d="M942,-279.614C942,-267.24 942,-250.369 942,-236.22"/>
<polygon fill="black" stroke="black" points="945.5,-236.05 942,-226.05 938.5,-236.05 945.5,-236.05"/>
<text text-anchor="middle" x="978" y="-249.3" font-family="Times,serif" font-size="14.00">{DEF_USE}</text>
</g>
<!-- Node0x2041710 -->
<g id="node21" class="node"><title>Node0x2041710</title>
<polygon fill="none" stroke="black" points="971,-100 971,-136 1251,-136 1251,-100 971,-100"/>
<text text-anchor="middle" x="1111" y="-114.3" font-family="Times,serif" font-size="14.00">br i1 %tobool1, label %if.then2, label %if.else3</text>
</g>
<!-- Node0x20416a0&#45;&gt;Node0x2041710 -->
<g id="edge19" class="edge"><title>Node0x20416a0&#45;&gt;Node0x2041710</title>
<path fill="none" stroke="black" stroke-dasharray="1,5" d="M974.986,-189.824C1001.86,-175.832 1039.96,-155.989 1069.01,-140.864"/>
<polygon fill="black" stroke="black" points="1070.84,-143.856 1078.1,-136.133 1067.61,-137.647 1070.84,-143.856"/>
<text text-anchor="middle" x="1077" y="-159.3" font-family="Times,serif" font-size="14.00">{DEF_USE}</text>
</g>
<!-- Node0x2040fd0 -->
<g id="node9" class="node"><title>Node0x2040fd0</title>
<polygon fill="none" stroke="black" points="924.5,-516 924.5,-552 1073.5,-552 1073.5,-516 924.5,-516"/>
<text text-anchor="middle" x="999" y="-530.3" font-family="Times,serif" font-size="14.00">%b = alloca i32, align 4</text>
</g>
<!-- Node0x2041040 -->
<g id="node10" class="node"><title>Node0x2041040</title>
<polygon fill="none" stroke="black" points="1032.5,-370 1032.5,-406 1205.5,-406 1205.5,-370 1032.5,-370"/>
<text text-anchor="middle" x="1119" y="-384.3" font-family="Times,serif" font-size="14.00">store i32 2, i32* %b, align 4</text>
</g>
<!-- Node0x2040fd0&#45;&gt;Node0x2041040 -->
<g id="edge9" class="edge"><title>Node0x2040fd0&#45;&gt;Node0x2041040</title>
<path fill="none" stroke="black" stroke-dasharray="1,5" d="M1013.24,-515.916C1034.35,-490.583 1074.07,-442.921 1098.37,-413.762"/>
<polygon fill="black" stroke="black" points="1101.07,-415.985 1104.78,-406.062 1095.69,-411.504 1101.07,-415.985"/>
<text text-anchor="middle" x="1095" y="-474.3" font-family="Times,serif" font-size="14.00">{DEF_USE}</text>
</g>
<!-- Node0x20410b0 -->
<g id="node11" class="node"><title>Node0x20410b0</title>
<polygon fill="none" stroke="black" points="294.5,-740 294.5,-776 443.5,-776 443.5,-740 294.5,-740"/>
<text text-anchor="middle" x="369" y="-754.3" font-family="Times,serif" font-size="14.00">%c = alloca i32, align 4</text>
</g>
<!-- Node0x20411b0 -->
<g id="node12" class="node"><title>Node0x20411b0</title>
<polygon fill="none" stroke="black" points="502.5,-24 502.5,-60 675.5,-60 675.5,-24 502.5,-24"/>
<text text-anchor="middle" x="589" y="-38.3" font-family="Times,serif" font-size="14.00">store i32 1, i32* %c, align 4</text>
</g>
<!-- Node0x20410b0&#45;&gt;Node0x20411b0 -->
<g id="edge10" class="edge"><title>Node0x20410b0&#45;&gt;Node0x20411b0</title>
<path fill="none" stroke="black" stroke-dasharray="1,5" d="M368.118,-739.761C365.508,-687.18 358,-524.185 358,-389 358,-389 358,-389 358,-117 358,-87.12 428.982,-67.628 492.251,-56.1887"/>
<polygon fill="black" stroke="black" points="493.082,-59.5965 502.327,-54.4216 491.873,-52.7017 493.082,-59.5965"/>
<text text-anchor="middle" x="395" y="-384.3" font-family="Times,serif" font-size="14.00">{DEF_USE}</text>
</g>
<!-- Node0x2041220 -->
<g id="node13" class="node"><title>Node0x2041220</title>
<polygon fill="none" stroke="black" points="1286.5,-628 1286.5,-664 1435.5,-664 1435.5,-628 1286.5,-628"/>
<text text-anchor="middle" x="1361" y="-642.3" font-family="Times,serif" font-size="14.00">%d = alloca i32, align 4</text>
</g>
<!-- Node0x2041290 -->
<g id="node14" class="node"><title>Node0x2041290</title>
<polygon fill="none" stroke="black" points="1217.5,-24 1217.5,-60 1390.5,-60 1390.5,-24 1217.5,-24"/>
<text text-anchor="middle" x="1304" y="-38.3" font-family="Times,serif" font-size="14.00">store i32 2, i32* %d, align 4</text>
</g>
<!-- Node0x2041220&#45;&gt;Node0x2041290 -->
<g id="edge11" class="edge"><title>Node0x2041220&#45;&gt;Node0x2041290</title>
<path fill="none" stroke="black" stroke-dasharray="1,5" d="M1354.3,-627.77C1346.6,-606.363 1335,-568.556 1335,-535 1335,-535 1335,-535 1335,-117 1335,-100.137 1328.07,-82.6743 1320.76,-68.95"/>
<polygon fill="black" stroke="black" points="1323.71,-67.0577 1315.72,-60.0991 1317.63,-70.5211 1323.71,-67.0577"/>
<text text-anchor="middle" x="1371" y="-339.3" font-family="Times,serif" font-size="14.00">{DEF_USE}</text>
</g>
<!-- Node0x2041300 -->
<g id="node15" class="node"><title>Node0x2041300</title>
<polygon fill="none" stroke="black" points="562,-796 562,-832 724,-832 724,-796 562,-796"/>
<text text-anchor="middle" x="643" y="-810.3" font-family="Times,serif" font-size="14.00">%key = alloca i32, align 4</text>
</g>
<!-- Node0x2041370 -->
<g id="node16" class="node"><title>Node0x2041370</title>
<polygon fill="none" stroke="black" points="531,-684 531,-720 713,-720 713,-684 531,-684"/>
<text text-anchor="middle" x="622" y="-698.3" font-family="Times,serif" font-size="14.00">%0 = load i32* %key, align 4</text>
</g>
<!-- Node0x2041300&#45;&gt;Node0x2041370 -->
<g id="edge12" class="edge"><title>Node0x2041300&#45;&gt;Node0x2041370</title>
<path fill="none" stroke="black" stroke-dasharray="1,5" d="M639.719,-795.812C636.359,-778.215 631.089,-750.607 627.168,-730.071"/>
<polygon fill="black" stroke="black" points="630.571,-729.233 625.258,-720.067 623.696,-730.546 630.571,-729.233"/>
<text text-anchor="middle" x="672" y="-754.3" font-family="Times,serif" font-size="14.00">{DEF_USE}</text>
</g>
<!-- Node0x20413e0 -->
<g id="node17" class="node"><title>Node0x20413e0</title>
<polygon fill="none" stroke="black" points="531.5,-572 531.5,-608 712.5,-608 712.5,-572 531.5,-572"/>
<text text-anchor="middle" x="622" y="-586.3" font-family="Times,serif" font-size="14.00">%tobool = icmp ne i32 %0, 0</text>
</g>
<!-- Node0x2041370&#45;&gt;Node0x20413e0 -->
<g id="edge13" class="edge"><title>Node0x2041370&#45;&gt;Node0x20413e0</title>
<path fill="none" stroke="black" stroke-dasharray="1,5" d="M622,-683.812C622,-666.215 622,-638.607 622,-618.071"/>
<polygon fill="black" stroke="black" points="625.5,-618.067 622,-608.067 618.5,-618.067 625.5,-618.067"/>
<text text-anchor="middle" x="658" y="-642.3" font-family="Times,serif" font-size="14.00">{DEF_USE}</text>
</g>
<!-- Node0x2041470 -->
<g id="node18" class="node"><title>Node0x2041470</title>
<polygon fill="none" stroke="black" points="532,-460 532,-496 792,-496 792,-460 532,-460"/>
<text text-anchor="middle" x="662" y="-474.3" font-family="Times,serif" font-size="14.00">br i1 %tobool, label %if.then, label %if.else</text>
</g>
<!-- Node0x20413e0&#45;&gt;Node0x2041470 -->
<g id="edge14" class="edge"><title>Node0x20413e0&#45;&gt;Node0x2041470</title>
<path fill="none" stroke="black" stroke-dasharray="1,5" d="M628.25,-571.812C634.708,-554.053 644.873,-526.1 652.361,-505.507"/>
<polygon fill="black" stroke="black" points="655.666,-506.661 655.794,-496.067 649.087,-504.269 655.666,-506.661"/>
<text text-anchor="middle" x="684" y="-530.3" font-family="Times,serif" font-size="14.00">{DEF_USE}</text>
</g>
<!-- Node0x2041470&#45;&gt;Node0x2040ef0 -->
<g id="edge15" class="edge"><title>Node0x2041470&#45;&gt;Node0x2040ef0</title>
<path fill="none" stroke="black" d="M692.644,-459.824C717.498,-445.893 752.702,-426.161 779.641,-411.061"/>
<polygon fill="black" stroke="black" points="781.422,-414.075 788.433,-406.133 777.999,-407.969 781.422,-414.075"/>
</g>
<!-- Node0x2041470&#45;&gt;Node0x2041040 -->
<g id="edge17" class="edge"><title>Node0x2041470&#45;&gt;Node0x2041040</title>
<path fill="none" stroke="black" d="M787.706,-459.979C824.046,-454.52 863.693,-448.044 900,-441 948.123,-431.664 1001.67,-418.991 1043.77,-408.494"/>
<polygon fill="black" stroke="black" points="1044.81,-411.84 1053.66,-406.014 1043.11,-405.05 1044.81,-411.84"/>
</g>
<!-- Node0x2041520 -->
<g id="node19" class="node"><title>Node0x2041520</title>
<polygon fill="none" stroke="black" points="609.5,-370 609.5,-406 714.5,-406 714.5,-370 609.5,-370"/>
<text text-anchor="middle" x="662" y="-384.3" font-family="Times,serif" font-size="14.00">br label %if.end</text>
</g>
<!-- Node0x2041470&#45;&gt;Node0x2041520 -->
<g id="edge16" class="edge"><title>Node0x2041470&#45;&gt;Node0x2041520</title>
<path fill="none" stroke="black" d="M662,-459.614C662,-447.24 662,-430.369 662,-416.22"/>
<polygon fill="black" stroke="black" points="665.5,-416.05 662,-406.05 658.5,-416.05 665.5,-416.05"/>
</g>
<!-- Node0x2041120 -->
<g id="node20" class="node"><title>Node0x2041120</title>
<polygon fill="none" stroke="black" points="486.5,-370 486.5,-406 591.5,-406 591.5,-370 486.5,-370"/>
<text text-anchor="middle" x="539" y="-384.3" font-family="Times,serif" font-size="14.00">br label %if.end</text>
</g>
<!-- Node0x2041470&#45;&gt;Node0x2041120 -->
<g id="edge18" class="edge"><title>Node0x2041470&#45;&gt;Node0x2041120</title>
<path fill="none" stroke="black" d="M637.992,-459.824C618.944,-446.196 592.136,-427.016 571.221,-412.052"/>
<polygon fill="black" stroke="black" points="573.116,-409.105 562.947,-406.133 569.043,-414.798 573.116,-409.105"/>
</g>
<!-- Node0x2041710&#45;&gt;Node0x20411b0 -->
<g id="edge20" class="edge"><title>Node0x2041710&#45;&gt;Node0x20411b0</title>
<path fill="none" stroke="black" d="M990.915,-99.9765C898.249,-86.8399 771.737,-68.9052 685.568,-56.6897"/>
<polygon fill="black" stroke="black" points="685.919,-53.2046 675.527,-55.2663 684.937,-60.1353 685.919,-53.2046"/>
</g>
<!-- Node0x2041710&#45;&gt;Node0x2041290 -->
<g id="edge22" class="edge"><title>Node0x2041710&#45;&gt;Node0x2041290</title>
<path fill="none" stroke="black" d="M1155.76,-99.8369C1183.9,-89.0495 1220.36,-75.0681 1250.09,-63.6719"/>
<polygon fill="black" stroke="black" points="1251.4,-66.9182 1259.48,-60.07 1248.89,-60.3821 1251.4,-66.9182"/>
</g>
<!-- Node0x20417c0 -->
<g id="node22" class="node"><title>Node0x20417c0</title>
<polygon fill="none" stroke="black" points="941,-24 941,-60 1053,-60 1053,-24 941,-24"/>
<text text-anchor="middle" x="997" y="-38.3" font-family="Times,serif" font-size="14.00">br label %if.end4</text>
</g>
<!-- Node0x2041710&#45;&gt;Node0x20417c0 -->
<g id="edge21" class="edge"><title>Node0x2041710&#45;&gt;Node0x20417c0</title>
<path fill="none" stroke="black" d="M1084.56,-99.8369C1068.88,-89.6566 1048.81,-76.6317 1031.85,-65.6195"/>
<polygon fill="black" stroke="black" points="1033.59,-62.579 1023.3,-60.07 1029.78,-68.4505 1033.59,-62.579"/>
</g>
<!-- Node0x2041830 -->
<g id="node23" class="node"><title>Node0x2041830</title>
<polygon fill="none" stroke="black" points="1071,-24 1071,-60 1183,-60 1183,-24 1071,-24"/>
<text text-anchor="middle" x="1127" y="-38.3" font-family="Times,serif" font-size="14.00">br label %if.end4</text>
</g>
<!-- Node0x2041710&#45;&gt;Node0x2041830 -->
<g id="edge23" class="edge"><title>Node0x2041710&#45;&gt;Node0x2041830</title>
<path fill="none" stroke="black" d="M1114.71,-99.8369C1116.63,-90.9642 1119.02,-79.9306 1121.17,-69.952"/>
<polygon fill="black" stroke="black" points="1124.62,-70.5838 1123.31,-60.07 1117.77,-69.1045 1124.62,-70.5838"/>
</g>
<!-- Node0x2041960 -->
<g id="node24" class="node"><title>Node0x2041960</title>
<polygon fill="none" stroke="black" points="471,-872 471,-908 597,-908 597,-872 471,-872"/>
<text text-anchor="middle" x="534" y="-886.3" font-family="Times,serif" font-size="14.00">&lt;&lt;ENTRY&gt;&gt; main</text>
</g>
<!-- Node0x2041960&#45;&gt;Node0x2040cd0 -->
<g id="edge24" class="edge"><title>Node0x2041960&#45;&gt;Node0x2040cd0</title>
<path fill="none" stroke="black" d="M470.965,-884.583C416.167,-879.787 334.969,-870.368 266,-853 248.535,-848.602 229.944,-842.148 213.536,-835.803"/>
<polygon fill="black" stroke="black" points="214.739,-832.515 204.153,-832.096 212.167,-839.026 214.739,-832.515"/>
</g>
<!-- Node0x2041960&#45;&gt;Node0x2040d40 -->
<g id="edge30" class="edge"><title>Node0x2041960&#45;&gt;Node0x2040d40</title>
<path fill="none" stroke="black" d="M470.993,-874.789C416.839,-859.437 340.356,-829.765 294,-777 282.216,-763.586 274.23,-745.167 269.183,-730.061"/>
<polygon fill="black" stroke="black" points="272.443,-728.756 266.148,-720.234 265.755,-730.822 272.443,-728.756"/>
</g>
<!-- Node0x2041960&#45;&gt;Node0x2040db0 -->
<g id="edge37" class="edge"><title>Node0x2041960&#45;&gt;Node0x2040db0</title>
<path fill="none" stroke="black" d="M470.927,-885.979C350.023,-879.539 95.2331,-862.582 69,-833 14.8368,-771.923 62.2873,-666.16 89.3085,-617.228"/>
<polygon fill="black" stroke="black" points="92.5221,-618.656 94.4041,-608.23 86.4309,-615.207 92.5221,-618.656"/>
</g>
<!-- Node0x2041960&#45;&gt;Node0x20418f0 -->
<g id="edge38" class="edge"><title>Node0x2041960&#45;&gt;Node0x20418f0</title>
<path fill="none" stroke="black" d="M470.739,-886.686C329.939,-880.693 3,-861.743 3,-815 3,-815 3,-815 3,-589 3,-559.359 14.4082,-527.148 24.0081,-505.291"/>
<polygon fill="black" stroke="black" points="27.2703,-506.573 28.2442,-496.023 20.9038,-503.663 27.2703,-506.573"/>
</g>
<!-- Node0x2041960&#45;&gt;Node0x2040e80 -->
<g id="edge25" class="edge"><title>Node0x2041960&#45;&gt;Node0x2040e80</title>
<path fill="none" stroke="black" d="M597.251,-885.248C681.214,-878.501 819,-860.497 819,-815 819,-815 819,-815 819,-589 819,-556.021 841.084,-524.389 859.702,-503.581"/>
<polygon fill="black" stroke="black" points="862.363,-505.859 866.615,-496.155 857.24,-501.089 862.363,-505.859"/>
</g>
<!-- Node0x2041960&#45;&gt;Node0x2040e20 -->
<g id="edge34" class="edge"><title>Node0x2041960&#45;&gt;Node0x2040e20</title>
<path fill="none" stroke="black" d="M597.045,-888.884C769.109,-887.736 1234,-878.738 1234,-815 1234,-815 1234,-815 1234,-387 1234,-345.046 1122.1,-321.312 1036.84,-309.317"/>
<polygon fill="black" stroke="black" points="1037.23,-305.838 1026.85,-307.947 1036.28,-312.773 1037.23,-305.838"/>
</g>
<!-- Node0x2041960&#45;&gt;Node0x20416a0 -->
<g id="edge35" class="edge"><title>Node0x2041960&#45;&gt;Node0x20416a0</title>
<path fill="none" stroke="black" d="M499.558,-871.974C479.449,-859.365 458,-840.046 458,-815 458,-815 458,-815 458,-297 458,-258.712 695.481,-230.885 837.745,-217.65"/>
<polygon fill="black" stroke="black" points="838.182,-221.125 847.819,-216.723 837.54,-214.155 838.182,-221.125"/>
</g>
<!-- Node0x2041960&#45;&gt;Node0x2040fd0 -->
<g id="edge26" class="edge"><title>Node0x2041960&#45;&gt;Node0x2040fd0</title>
<path fill="none" stroke="black" d="M597.303,-889.966C708.678,-889.945 928,-881.467 928,-815 928,-815 928,-815 928,-645 928,-611.395 951.68,-579.918 971.689,-559.318"/>
<polygon fill="black" stroke="black" points="974.198,-561.759 978.844,-552.237 969.274,-556.783 974.198,-561.759"/>
</g>
<!-- Node0x2041960&#45;&gt;Node0x20410b0 -->
<g id="edge27" class="edge"><title>Node0x2041960&#45;&gt;Node0x20410b0</title>
<path fill="none" stroke="black" d="M478.314,-871.947C466.37,-866.898 454.267,-860.627 444,-853 419.036,-834.455 397.731,-805.666 384.279,-784.833"/>
<polygon fill="black" stroke="black" points="387.118,-782.774 378.836,-776.166 381.19,-786.496 387.118,-782.774"/>
</g>
<!-- Node0x2041960&#45;&gt;Node0x2041220 -->
<g id="edge28" class="edge"><title>Node0x2041960&#45;&gt;Node0x2041220</title>
<path fill="none" stroke="black" d="M597.006,-887.871C772.944,-884.47 1258.45,-873.284 1286,-853 1343.45,-810.691 1356.98,-719.876 1360.11,-674.287"/>
<polygon fill="black" stroke="black" points="1363.6,-674.424 1360.67,-664.242 1356.61,-674.029 1363.6,-674.424"/>
</g>
<!-- Node0x2041960&#45;&gt;Node0x2041300 -->
<g id="edge29" class="edge"><title>Node0x2041960&#45;&gt;Node0x2041300</title>
<path fill="none" stroke="black" d="M559.281,-871.837C574.139,-861.75 593.11,-848.87 609.235,-837.923"/>
<polygon fill="black" stroke="black" points="611.549,-840.583 617.856,-832.07 607.617,-834.791 611.549,-840.583"/>
</g>
<!-- Node0x2041960&#45;&gt;Node0x2041370 -->
<g id="edge31" class="edge"><title>Node0x2041960&#45;&gt;Node0x2041370</title>
<path fill="none" stroke="black" d="M535.201,-871.666C537.061,-852.257 541.693,-820.219 553,-795 564.262,-769.88 583.409,-745.131 598.68,-727.64"/>
<polygon fill="black" stroke="black" points="601.329,-729.929 605.382,-720.14 596.109,-725.265 601.329,-729.929"/>
</g>
<!-- Node0x2041960&#45;&gt;Node0x20413e0 -->
<g id="edge32" class="edge"><title>Node0x2041960&#45;&gt;Node0x20413e0</title>
<path fill="none" stroke="black" d="M527.953,-871.795C516.148,-835.22 493.569,-747.79 522,-683 534.693,-654.076 561.464,-630.241 584.114,-614.084"/>
<polygon fill="black" stroke="black" points="586.303,-616.826 592.556,-608.272 582.334,-611.06 586.303,-616.826"/>
</g>
<!-- Node0x2041960&#45;&gt;Node0x2041470 -->
<g id="edge33" class="edge"><title>Node0x2041960&#45;&gt;Node0x2041470</title>
<path fill="none" stroke="black" d="M597.055,-880.096C661.438,-869.183 752,-847.974 752,-815 752,-815 752,-815 752,-589 752,-553.835 746.74,-541.822 724,-515 719.827,-510.078 714.801,-505.673 709.44,-501.778"/>
<polygon fill="black" stroke="black" points="711.084,-498.669 700.812,-496.075 707.224,-504.509 711.084,-498.669"/>
</g>
<!-- Node0x2041960&#45;&gt;Node0x2041710 -->
<g id="edge36" class="edge"><title>Node0x2041960&#45;&gt;Node0x2041710</title>
<path fill="none" stroke="black" d="M597.24,-889.239C775.982,-889.083 1272,-882.563 1272,-815 1272,-815 1272,-815 1272,-207 1272,-173.369 1244.62,-152.51 1212.44,-139.609"/>
<polygon fill="black" stroke="black" points="1213.38,-136.226 1202.79,-136.016 1210.94,-142.786 1213.38,-136.226"/>
</g>
</g>
</svg>
