<?xml version="1.0" encoding="UTF-8" standalone="no"?>
<!DOCTYPE svg PUBLIC "-//W3C//DTD SVG 1.1//EN"
 "http://www.w3.org/Graphics/SVG/1.1/DTD/svg11.dtd">
<!-- Generated by graphviz version 2.36.0 (20140111.2315)
 -->
<!-- Title: Program Dependency Graph for &#39;main&#39; function Pages: 1 -->
<svg width="4144pt" height="917pt"
 viewBox="0.00 0.00 4144.00 917.00" xmlns="http://www.w3.org/2000/svg" xmlns:xlink="http://www.w3.org/1999/xlink">
<g id="graph0" class="graph" transform="scale(1 1) rotate(0) translate(4 913)">
<title>Program Dependency Graph for &#39;main&#39; function</title>
<polygon fill="white" stroke="none" points="-4,4 -4,-913 4140,-913 4140,4 -4,4"/>
<text text-anchor="middle" x="2068" y="-7.8" font-family="Times,serif" font-size="14.00">Program Dependency Graph for &#39;main&#39; function</text>
<!-- Node0x3be4240 -->
<g id="node1" class="node"><title>Node0x3be4240</title>
<polygon fill="none" stroke="black" points="76.5,-796 76.5,-832 249.5,-832 249.5,-796 76.5,-796"/>
<text text-anchor="middle" x="163" y="-810.3" font-family="Times,serif" font-size="14.00">%retval = alloca i32, align 4</text>
</g>
<!-- Node0x3be42b0 -->
<g id="node2" class="node"><title>Node0x3be42b0</title>
<polygon fill="none" stroke="black" points="136,-684 136,-720 288,-720 288,-684 136,-684"/>
<text text-anchor="middle" x="212" y="-698.3" font-family="Times,serif" font-size="14.00">store i32 0, i32* %retval</text>
</g>
<!-- Node0x3be4240&#45;&gt;Node0x3be42b0 -->
<g id="edge1" class="edge"><title>Node0x3be4240&#45;&gt;Node0x3be42b0</title>
<path fill="none" stroke="black" stroke-dasharray="1,5" d="M168.936,-795.977C174.401,-780.8 183.002,-758.098 192,-739 193.508,-735.798 195.181,-732.489 196.899,-729.233"/>
<polygon fill="black" stroke="black" points="200.037,-730.788 201.756,-720.333 193.893,-727.434 200.037,-730.788"/>
<text text-anchor="middle" x="228" y="-754.3" font-family="Times,serif" font-size="14.00">{DEF_USE}</text>
</g>
<!-- Node0x3be4320 -->
<g id="node3" class="node"><title>Node0x3be4320</title>
<polygon fill="none" stroke="black" points="28.5,-572 28.5,-608 231.5,-608 231.5,-572 28.5,-572"/>
<text text-anchor="middle" x="130" y="-586.3" font-family="Times,serif" font-size="14.00">%2 = load i32* %retval, !dbg !37</text>
</g>
<!-- Node0x3be4240&#45;&gt;Node0x3be4320 -->
<g id="edge2" class="edge"><title>Node0x3be4240&#45;&gt;Node0x3be4320</title>
<path fill="none" stroke="black" stroke-dasharray="1,5" d="M130.752,-795.995C104.906,-780.363 70.4895,-754.542 55,-721 37.2264,-682.512 72.3403,-640.435 100.295,-614.878"/>
<polygon fill="black" stroke="black" points="102.763,-617.368 107.94,-608.124 98.128,-612.122 102.763,-617.368"/>
<text text-anchor="middle" x="91" y="-698.3" font-family="Times,serif" font-size="14.00">{DEF_USE}</text>
</g>
<!-- Node0x3be42b0&#45;&gt;Node0x3be4320 -->
<g id="edge3" class="edge"><title>Node0x3be42b0&#45;&gt;Node0x3be4320</title>
<path fill="none" stroke="black" stroke-dasharray="1,5" d="M151.601,-683.798C143.473,-678.982 136.168,-672.836 131,-665 122.063,-651.45 121.703,-633.251 123.632,-618.293"/>
<polygon fill="black" stroke="black" points="127.141,-618.528 125.35,-608.086 120.238,-617.366 127.141,-618.528"/>
<text text-anchor="middle" x="171.5" y="-642.3" font-family="Times,serif" font-size="14.00">{RAW} retval</text>
</g>
<!-- Node0x3be4c10 -->
<g id="node4" class="node"><title>Node0x3be4c10</title>
<polygon fill="none" stroke="black" points="1,-460 1,-496 129,-496 129,-460 1,-460"/>
<text text-anchor="middle" x="65" y="-474.3" font-family="Times,serif" font-size="14.00">ret i32 %2, !dbg !37</text>
</g>
<!-- Node0x3be4320&#45;&gt;Node0x3be4c10 -->
<g id="edge4" class="edge"><title>Node0x3be4320&#45;&gt;Node0x3be4c10</title>
<path fill="none" stroke="black" stroke-dasharray="1,5" d="M119.844,-571.812C109.254,-553.892 92.5308,-525.591 80.3327,-504.948"/>
<polygon fill="black" stroke="black" points="83.1855,-502.896 75.0849,-496.067 77.159,-506.457 83.1855,-502.896"/>
<text text-anchor="middle" x="144" y="-530.3" font-family="Times,serif" font-size="14.00">{DEF_USE}</text>
</g>
<!-- Node0x3be43f0 -->
<g id="node5" class="node"><title>Node0x3be43f0</title>
<polygon fill="none" stroke="black" points="1014.5,-460 1014.5,-496 1163.5,-496 1163.5,-460 1014.5,-460"/>
<text text-anchor="middle" x="1089" y="-474.3" font-family="Times,serif" font-size="14.00">%a = alloca i32, align 4</text>
</g>
<!-- Node0x3be4460 -->
<g id="node6" class="node"><title>Node0x3be4460</title>
<polygon fill="none" stroke="black" points="975.5,-370 975.5,-406 1202.5,-406 1202.5,-370 975.5,-370"/>
<text text-anchor="middle" x="1089" y="-384.3" font-family="Times,serif" font-size="14.00">store i32 1, i32* %a, align 4, !dbg !25</text>
</g>
<!-- Node0x3be43f0&#45;&gt;Node0x3be4460 -->
<g id="edge5" class="edge"><title>Node0x3be43f0&#45;&gt;Node0x3be4460</title>
<path fill="none" stroke="black" stroke-dasharray="1,5" d="M1089,-459.614C1089,-447.24 1089,-430.369 1089,-416.22"/>
<polygon fill="black" stroke="black" points="1092.5,-416.05 1089,-406.05 1085.5,-416.05 1092.5,-416.05"/>
<text text-anchor="middle" x="1125" y="-429.3" font-family="Times,serif" font-size="14.00">{DEF_USE}</text>
</g>
<!-- Node0x3be4390 -->
<g id="node7" class="node"><title>Node0x3be4390</title>
<polygon fill="none" stroke="black" points="1127.5,-280 1127.5,-316 1350.5,-316 1350.5,-280 1127.5,-280"/>
<text text-anchor="middle" x="1239" y="-294.3" font-family="Times,serif" font-size="14.00">%1 = load i32* %a, align 4, !dbg !30</text>
</g>
<!-- Node0x3be43f0&#45;&gt;Node0x3be4390 -->
<g id="edge6" class="edge"><title>Node0x3be43f0&#45;&gt;Node0x3be4390</title>
<path fill="none" stroke="black" stroke-dasharray="1,5" d="M1140.27,-459.97C1165.6,-448.884 1194.26,-431.79 1211,-407 1227.38,-382.749 1234.18,-349.509 1237,-326.335"/>
<polygon fill="black" stroke="black" points="1240.5,-326.467 1238.06,-316.158 1233.54,-325.739 1240.5,-326.467"/>
<text text-anchor="middle" x="1263" y="-384.3" font-family="Times,serif" font-size="14.00">{DEF_USE}</text>
</g>
<!-- Node0x3be4460&#45;&gt;Node0x3be4390 -->
<g id="edge7" class="edge"><title>Node0x3be4460&#45;&gt;Node0x3be4390</title>
<path fill="none" stroke="black" stroke-dasharray="1,5" d="M1113.81,-369.941C1129.41,-359.455 1150.09,-345.973 1169,-335 1177.33,-330.165 1186.39,-325.262 1195.13,-320.696"/>
<polygon fill="black" stroke="black" points="1196.81,-323.771 1204.09,-316.077 1193.6,-317.55 1196.81,-323.771"/>
<text text-anchor="middle" x="1197" y="-339.3" font-family="Times,serif" font-size="14.00">{RAW} a</text>
</g>
<!-- Node0x3be6310 -->
<g id="node8" class="node"><title>Node0x3be6310</title>
<polygon fill="none" stroke="black" points="1118,-190 1118,-226 1360,-226 1360,-190 1118,-190"/>
<text text-anchor="middle" x="1239" y="-204.3" font-family="Times,serif" font-size="14.00">%tobool2 = icmp ne i32 %1, 0, !dbg !30</text>
</g>
<!-- Node0x3be4390&#45;&gt;Node0x3be6310 -->
<g id="edge8" class="edge"><title>Node0x3be4390&#45;&gt;Node0x3be6310</title>
<path fill="none" stroke="black" stroke-dasharray="1,5" d="M1239,-279.614C1239,-267.24 1239,-250.369 1239,-236.22"/>
<polygon fill="black" stroke="black" points="1242.5,-236.05 1239,-226.05 1235.5,-236.05 1242.5,-236.05"/>
<text text-anchor="middle" x="1275" y="-249.3" font-family="Times,serif" font-size="14.00">{DEF_USE}</text>
</g>
<!-- Node0x3be63a0 -->
<g id="node23" class="node"><title>Node0x3be63a0</title>
<polygon fill="none" stroke="black" points="691,-100 691,-136 1025,-136 1025,-100 691,-100"/>
<text text-anchor="middle" x="858" y="-114.3" font-family="Times,serif" font-size="14.00">br i1 %tobool2, label %if.then3, label %if.else4, !dbg !30</text>
</g>
<!-- Node0x3be6310&#45;&gt;Node0x3be63a0 -->
<g id="edge21" class="edge"><title>Node0x3be6310&#45;&gt;Node0x3be63a0</title>
<path fill="none" stroke="black" stroke-dasharray="1,5" d="M1165.09,-189.928C1101.07,-175.143 1008.52,-153.766 941.774,-138.349"/>
<polygon fill="black" stroke="black" points="942.238,-134.864 931.707,-136.024 940.662,-141.685 942.238,-134.864"/>
<text text-anchor="middle" x="1118" y="-159.3" font-family="Times,serif" font-size="14.00">{DEF_USE}</text>
</g>
<!-- Node0x3be4540 -->
<g id="node9" class="node"><title>Node0x3be4540</title>
<polygon fill="none" stroke="black" points="416.5,-516 416.5,-552 565.5,-552 565.5,-516 416.5,-516"/>
<text text-anchor="middle" x="491" y="-530.3" font-family="Times,serif" font-size="14.00">%b = alloca i32, align 4</text>
</g>
<!-- Node0x3be45b0 -->
<g id="node10" class="node"><title>Node0x3be45b0</title>
<polygon fill="none" stroke="black" points="430.5,-370 430.5,-406 657.5,-406 657.5,-370 430.5,-370"/>
<text text-anchor="middle" x="544" y="-384.3" font-family="Times,serif" font-size="14.00">store i32 2, i32* %b, align 4, !dbg !28</text>
</g>
<!-- Node0x3be4540&#45;&gt;Node0x3be45b0 -->
<g id="edge9" class="edge"><title>Node0x3be4540&#45;&gt;Node0x3be45b0</title>
<path fill="none" stroke="black" stroke-dasharray="1,5" d="M495.11,-515.716C498.9,-500.566 504.989,-478.05 512,-459 517.406,-444.31 524.565,-428.408 530.741,-415.478"/>
<polygon fill="black" stroke="black" points="534.007,-416.763 535.226,-406.239 527.71,-413.706 534.007,-416.763"/>
<text text-anchor="middle" x="548" y="-474.3" font-family="Times,serif" font-size="14.00">{DEF_USE}</text>
</g>
<!-- Node0x3be4620 -->
<g id="node11" class="node"><title>Node0x3be4620</title>
<polygon fill="none" stroke="black" points="1839.5,-740 1839.5,-776 1988.5,-776 1988.5,-740 1839.5,-740"/>
<text text-anchor="middle" x="1914" y="-754.3" font-family="Times,serif" font-size="14.00">%c = alloca i32, align 4</text>
</g>
<!-- Node0x3be4720 -->
<g id="node12" class="node"><title>Node0x3be4720</title>
<polygon fill="none" stroke="black" points="1417.5,-24 1417.5,-60 1644.5,-60 1644.5,-24 1417.5,-24"/>
<text text-anchor="middle" x="1531" y="-38.3" font-family="Times,serif" font-size="14.00">store i32 1, i32* %c, align 4, !dbg !32</text>
</g>
<!-- Node0x3be4620&#45;&gt;Node0x3be4720 -->
<g id="edge10" class="edge"><title>Node0x3be4620&#45;&gt;Node0x3be4720</title>
<path fill="none" stroke="black" stroke-dasharray="1,5" d="M1914,-739.852C1914,-718.212 1914,-679.847 1914,-647 1914,-647 1914,-647 1914,-117 1914,-63.2175 1766.57,-47.6866 1654.65,-43.645"/>
<polygon fill="black" stroke="black" points="1654.73,-40.1458 1644.62,-43.3097 1654.49,-47.1419 1654.73,-40.1458"/>
<text text-anchor="middle" x="1950" y="-384.3" font-family="Times,serif" font-size="14.00">{DEF_USE}</text>
</g>
<!-- Node0x3be4790 -->
<g id="node13" class="node"><title>Node0x3be4790</title>
<polygon fill="none" stroke="black" points="240.5,-628 240.5,-664 389.5,-664 389.5,-628 240.5,-628"/>
<text text-anchor="middle" x="315" y="-642.3" font-family="Times,serif" font-size="14.00">%d = alloca i32, align 4</text>
</g>
<!-- Node0x3be4800 -->
<g id="node14" class="node"><title>Node0x3be4800</title>
<polygon fill="none" stroke="black" points="383.5,-24 383.5,-60 610.5,-60 610.5,-24 383.5,-24"/>
<text text-anchor="middle" x="497" y="-38.3" font-family="Times,serif" font-size="14.00">store i32 2, i32* %d, align 4, !dbg !35</text>
</g>
<!-- Node0x3be4790&#45;&gt;Node0x3be4800 -->
<g id="edge11" class="edge"><title>Node0x3be4790&#45;&gt;Node0x3be4800</title>
<path fill="none" stroke="black" stroke-dasharray="1,5" d="M315,-627.852C315,-606.212 315,-567.847 315,-535 315,-535 315,-535 315,-117 315,-83.9374 341.093,-65.3032 373.519,-54.9112"/>
<polygon fill="black" stroke="black" points="374.664,-58.2233 383.288,-52.0687 372.708,-51.502 374.664,-58.2233"/>
<text text-anchor="middle" x="351" y="-339.3" font-family="Times,serif" font-size="14.00">{DEF_USE}</text>
</g>
<!-- Node0x3be4870 -->
<g id="node15" class="node"><title>Node0x3be4870</title>
<polygon fill="none" stroke="black" points="785,-796 785,-832 947,-832 947,-796 785,-796"/>
<text text-anchor="middle" x="866" y="-810.3" font-family="Times,serif" font-size="14.00">%key = alloca i32, align 4</text>
</g>
<!-- Node0x3be48e0 -->
<g id="node16" class="node"><title>Node0x3be48e0</title>
<polygon fill="none" stroke="black" points="884,-684 884,-720 1142,-720 1142,-684 884,-684"/>
<text text-anchor="middle" x="1013" y="-698.3" font-family="Times,serif" font-size="14.00">%key1 = bitcast i32* %key to i8*, !dbg !22</text>
</g>
<!-- Node0x3be4870&#45;&gt;Node0x3be48e0 -->
<g id="edge12" class="edge"><title>Node0x3be4870&#45;&gt;Node0x3be48e0</title>
<path fill="none" stroke="black" stroke-dasharray="1,5" d="M876.484,-795.978C887.365,-779.509 905.749,-754.786 927,-739 934.443,-733.471 942.86,-728.614 951.444,-724.405"/>
<polygon fill="black" stroke="black" points="953.174,-727.461 960.785,-720.091 950.239,-721.106 953.174,-727.461"/>
<text text-anchor="middle" x="963" y="-754.3" font-family="Times,serif" font-size="14.00">{DEF_USE}</text>
</g>
<!-- Node0x3be4950 -->
<g id="node17" class="node"><title>Node0x3be4950</title>
<polygon fill="none" stroke="black" points="508,-684 508,-720 744,-720 744,-684 508,-684"/>
<text text-anchor="middle" x="626" y="-698.3" font-family="Times,serif" font-size="14.00">%0 = load i32* %key, align 4, !dbg !23</text>
</g>
<!-- Node0x3be4870&#45;&gt;Node0x3be4950 -->
<g id="edge13" class="edge"><title>Node0x3be4870&#45;&gt;Node0x3be4950</title>
<path fill="none" stroke="black" stroke-dasharray="1,5" d="M828.763,-795.933C786.725,-776.665 718.265,-745.288 672.685,-724.397"/>
<polygon fill="black" stroke="black" points="673.873,-721.092 663.324,-720.107 670.956,-727.455 673.873,-721.092"/>
<text text-anchor="middle" x="817" y="-754.3" font-family="Times,serif" font-size="14.00">{DEF_USE}</text>
</g>
<!-- Node0x3be49f0 -->
<g id="node18" class="node"><title>Node0x3be49f0</title>
<polygon fill="none" stroke="black" points="800.5,-572 800.5,-608 1801.5,-608 1801.5,-572 800.5,-572"/>
<text text-anchor="middle" x="1301" y="-586.3" font-family="Times,serif" font-size="14.00">call void @llvm.var.annotation(i8* %key1, i8* getelementptr inbounds ([10 x i8]* @.str, i32 0, i32 0), i8* getelementptr inbounds ([6 x i8]* @.str1, i32 0, i32 0), i32 4), !dbg !22</text>
</g>
<!-- Node0x3be48e0&#45;&gt;Node0x3be49f0 -->
<g id="edge14" class="edge"><title>Node0x3be48e0&#45;&gt;Node0x3be49f0</title>
<path fill="none" stroke="black" stroke-dasharray="1,5" d="M1039.55,-683.937C1066.45,-667.318 1109.72,-642.376 1150,-627 1166.68,-620.634 1184.83,-615.153 1202.58,-610.524"/>
<polygon fill="black" stroke="black" points="1203.56,-613.888 1212.39,-608.04 1201.84,-607.102 1203.56,-613.888"/>
<text text-anchor="middle" x="1186" y="-642.3" font-family="Times,serif" font-size="14.00">{DEF_USE}</text>
</g>
<!-- Node0x3be6020 -->
<g id="node19" class="node"><title>Node0x3be6020</title>
<polygon fill="none" stroke="black" points="508.5,-572 508.5,-608 743.5,-608 743.5,-572 508.5,-572"/>
<text text-anchor="middle" x="626" y="-586.3" font-family="Times,serif" font-size="14.00">%tobool = icmp ne i32 %0, 0, !dbg !23</text>
</g>
<!-- Node0x3be4950&#45;&gt;Node0x3be6020 -->
<g id="edge15" class="edge"><title>Node0x3be4950&#45;&gt;Node0x3be6020</title>
<path fill="none" stroke="black" stroke-dasharray="1,5" d="M626,-683.812C626,-666.215 626,-638.607 626,-618.071"/>
<polygon fill="black" stroke="black" points="629.5,-618.067 626,-608.067 622.5,-618.067 629.5,-618.067"/>
<text text-anchor="middle" x="662" y="-642.3" font-family="Times,serif" font-size="14.00">{DEF_USE}</text>
</g>
<!-- Node0x3be46b0 -->
<g id="node20" class="node"><title>Node0x3be46b0</title>
<polygon fill="none" stroke="black" points="593,-460 593,-496 907,-496 907,-460 593,-460"/>
<text text-anchor="middle" x="750" y="-474.3" font-family="Times,serif" font-size="14.00">br i1 %tobool, label %if.then, label %if.else, !dbg !23</text>
</g>
<!-- Node0x3be6020&#45;&gt;Node0x3be46b0 -->
<g id="edge16" class="edge"><title>Node0x3be6020&#45;&gt;Node0x3be46b0</title>
<path fill="none" stroke="black" stroke-dasharray="1,5" d="M637.076,-571.873C648.084,-555.785 666.155,-531.747 686,-515 691.96,-509.971 698.726,-505.289 705.572,-501.077"/>
<polygon fill="black" stroke="black" points="707.375,-504.077 714.233,-496.001 703.835,-498.038 707.375,-504.077"/>
<text text-anchor="middle" x="722" y="-530.3" font-family="Times,serif" font-size="14.00">{DEF_USE}</text>
</g>
<!-- Node0x3be46b0&#45;&gt;Node0x3be4460 -->
<g id="edge17" class="edge"><title>Node0x3be46b0&#45;&gt;Node0x3be4460</title>
<path fill="none" stroke="black" d="M815.765,-459.928C872.488,-445.204 954.396,-423.941 1013.73,-408.54"/>
<polygon fill="black" stroke="black" points="1014.62,-411.925 1023.42,-406.024 1012.86,-405.149 1014.62,-411.925"/>
</g>
<!-- Node0x3be46b0&#45;&gt;Node0x3be45b0 -->
<g id="edge19" class="edge"><title>Node0x3be46b0&#45;&gt;Node0x3be45b0</title>
<path fill="none" stroke="black" d="M709.792,-459.824C676.472,-445.59 628.975,-425.3 593.353,-410.083"/>
<polygon fill="black" stroke="black" points="594.678,-406.843 584.106,-406.133 591.928,-413.28 594.678,-406.843"/>
</g>
<!-- Node0x3be61e0 -->
<g id="node21" class="node"><title>Node0x3be61e0</title>
<polygon fill="none" stroke="black" points="675.5,-370 675.5,-406 834.5,-406 834.5,-370 675.5,-370"/>
<text text-anchor="middle" x="755" y="-384.3" font-family="Times,serif" font-size="14.00">br label %if.end, !dbg !27</text>
</g>
<!-- Node0x3be46b0&#45;&gt;Node0x3be61e0 -->
<g id="edge18" class="edge"><title>Node0x3be46b0&#45;&gt;Node0x3be61e0</title>
<path fill="none" stroke="black" d="M750.988,-459.614C751.691,-447.24 752.65,-430.369 753.453,-416.22"/>
<polygon fill="black" stroke="black" points="756.958,-416.233 754.031,-406.05 749.97,-415.836 756.958,-416.233"/>
</g>
<!-- Node0x3be6250 -->
<g id="node22" class="node"><title>Node0x3be6250</title>
<polygon fill="none" stroke="black" points="852.5,-370 852.5,-406 957.5,-406 957.5,-370 852.5,-370"/>
<text text-anchor="middle" x="905" y="-384.3" font-family="Times,serif" font-size="14.00">br label %if.end</text>
</g>
<!-- Node0x3be46b0&#45;&gt;Node0x3be6250 -->
<g id="edge20" class="edge"><title>Node0x3be46b0&#45;&gt;Node0x3be6250</title>
<path fill="none" stroke="black" d="M780.254,-459.824C804.684,-445.953 839.245,-426.332 865.795,-411.258"/>
<polygon fill="black" stroke="black" points="867.855,-414.114 874.823,-406.133 864.399,-408.026 867.855,-414.114"/>
</g>
<!-- Node0x3be63a0&#45;&gt;Node0x3be4720 -->
<g id="edge22" class="edge"><title>Node0x3be63a0&#45;&gt;Node0x3be4720</title>
<path fill="none" stroke="black" d="M1012.82,-99.9765C1132.51,-86.816 1296,-68.8399 1407.1,-56.623"/>
<polygon fill="black" stroke="black" points="1407.8,-60.0681 1417.35,-55.496 1407.03,-53.1101 1407.8,-60.0681"/>
</g>
<!-- Node0x3be63a0&#45;&gt;Node0x3be4800 -->
<g id="edge24" class="edge"><title>Node0x3be63a0&#45;&gt;Node0x3be4800</title>
<path fill="none" stroke="black" d="M774.726,-99.93C719.627,-88.6354 647.299,-73.8091 590.267,-62.1185"/>
<polygon fill="black" stroke="black" points="590.666,-58.6276 580.167,-60.0481 589.261,-65.485 590.666,-58.6276"/>
</g>
<!-- Node0x3be4ae0 -->
<g id="node24" class="node"><title>Node0x3be4ae0</title>
<polygon fill="none" stroke="black" points="850,-24 850,-60 1016,-60 1016,-24 850,-24"/>
<text text-anchor="middle" x="933" y="-38.3" font-family="Times,serif" font-size="14.00">br label %if.end5, !dbg !34</text>
</g>
<!-- Node0x3be63a0&#45;&gt;Node0x3be4ae0 -->
<g id="edge23" class="edge"><title>Node0x3be63a0&#45;&gt;Node0x3be4ae0</title>
<path fill="none" stroke="black" d="M875.395,-99.8369C885.24,-90.1236 897.709,-77.8206 908.527,-67.1472"/>
<polygon fill="black" stroke="black" points="911.039,-69.5849 915.699,-60.07 906.123,-64.6021 911.039,-69.5849"/>
</g>
<!-- Node0x3be4b50 -->
<g id="node25" class="node"><title>Node0x3be4b50</title>
<polygon fill="none" stroke="black" points="720,-24 720,-60 832,-60 832,-24 720,-24"/>
<text text-anchor="middle" x="776" y="-38.3" font-family="Times,serif" font-size="14.00">br label %if.end5</text>
</g>
<!-- Node0x3be63a0&#45;&gt;Node0x3be4b50 -->
<g id="edge25" class="edge"><title>Node0x3be63a0&#45;&gt;Node0x3be4b50</title>
<path fill="none" stroke="black" d="M838.981,-99.8369C828.115,-90.0302 814.323,-77.5838 802.417,-66.8397"/>
<polygon fill="black" stroke="black" points="804.684,-64.1713 794.915,-60.07 799.994,-69.3681 804.684,-64.1713"/>
</g>
<!-- Node0x3be4c80 -->
<g id="node26" class="node"><title>Node0x3be4c80</title>
<polygon fill="none" stroke="black" points="878,-872 878,-908 1004,-908 1004,-872 878,-872"/>
<text text-anchor="middle" x="941" y="-886.3" font-family="Times,serif" font-size="14.00">&lt;&lt;ENTRY&gt;&gt; main</text>
</g>
<!-- Node0x3be4c80&#45;&gt;Node0x3be4240 -->
<g id="edge26" class="edge"><title>Node0x3be4c80&#45;&gt;Node0x3be4240</title>
<path fill="none" stroke="black" d="M877.795,-888.106C732.847,-885.655 380.064,-877.313 264,-853 245.759,-849.179 226.444,-842.59 209.644,-835.961"/>
<polygon fill="black" stroke="black" points="210.652,-832.592 200.07,-832.073 208.018,-839.078 210.652,-832.592"/>
</g>
<!-- Node0x3be4c80&#45;&gt;Node0x3be42b0 -->
<g id="edge32" class="edge"><title>Node0x3be4c80&#45;&gt;Node0x3be42b0</title>
<path fill="none" stroke="black" d="M877.909,-889.408C725.597,-889.838 346.993,-887.393 302,-853 259.569,-820.566 296.044,-781.726 264,-739 260.497,-734.329 256.206,-730.046 251.605,-726.19"/>
<polygon fill="black" stroke="black" points="253.725,-723.405 243.655,-720.112 249.474,-728.966 253.725,-723.405"/>
</g>
<!-- Node0x3be4c80&#45;&gt;Node0x3be4320 -->
<g id="edge46" class="edge"><title>Node0x3be4c80&#45;&gt;Node0x3be4320</title>
<path fill="none" stroke="black" d="M877.79,-888.133C752.337,-885.883 476.147,-878.152 385,-853 366.222,-847.818 358.643,-847.819 346,-833 300.479,-779.647 346.836,-732.347 297,-683 278.122,-664.308 261.609,-680.454 240,-665 222.936,-652.797 228.382,-640.105 212,-627 205.12,-621.496 197.267,-616.664 189.21,-612.478"/>
<polygon fill="black" stroke="black" points="190.59,-609.257 180.067,-608.023 187.523,-615.549 190.59,-609.257"/>
</g>
<!-- Node0x3be4c80&#45;&gt;Node0x3be4c10 -->
<g id="edge47" class="edge"><title>Node0x3be4c80&#45;&gt;Node0x3be4c10</title>
<path fill="none" stroke="black" d="M877.797,-887.344C666.813,-881.405 0,-859.143 0,-815 0,-815 0,-815 0,-589 0,-556.152 21.7489,-524.5 40.0857,-503.651"/>
<polygon fill="black" stroke="black" points="42.7261,-505.95 46.8939,-496.209 37.5614,-501.225 42.7261,-505.95"/>
</g>
<!-- Node0x3be4c80&#45;&gt;Node0x3be43f0 -->
<g id="edge27" class="edge"><title>Node0x3be4c80&#45;&gt;Node0x3be43f0</title>
<path fill="none" stroke="black" d="M950.399,-871.957C965.726,-841.606 991.402,-777.748 960,-739 935.687,-708.999 907.493,-741.866 875,-721 810.889,-679.829 746.792,-632.331 792,-571 817.455,-536.467 925.8,-509.349 1004.29,-493.752"/>
<polygon fill="black" stroke="black" points="1005.04,-497.17 1014.19,-491.814 1003.7,-490.301 1005.04,-497.17"/>
</g>
<!-- Node0x3be4c80&#45;&gt;Node0x3be4390 -->
<g id="edge43" class="edge"><title>Node0x3be4c80&#45;&gt;Node0x3be4390</title>
<path fill="none" stroke="black" d="M1004.03,-888.092C1163.42,-882.256 1585.78,-844.184 1810,-609 1833.51,-584.341 1830,-569.069 1830,-535 1830,-535 1830,-535 1830,-387 1830,-339.991 1533.7,-315.434 1360.7,-305.102"/>
<polygon fill="black" stroke="black" points="1360.7,-301.596 1350.51,-304.501 1360.29,-308.584 1360.7,-301.596"/>
</g>
<!-- Node0x3be4c80&#45;&gt;Node0x3be6310 -->
<g id="edge44" class="edge"><title>Node0x3be4c80&#45;&gt;Node0x3be6310</title>
<path fill="none" stroke="black" d="M1004.3,-883.908C1079.8,-877.626 1209.78,-866.149 1321,-853 1600.26,-819.984 1868,-816.208 1868,-535 1868,-535 1868,-535 1868,-297 1868,-247.194 1554.69,-223.858 1370.32,-214.437"/>
<polygon fill="black" stroke="black" points="1370.44,-210.938 1360.28,-213.931 1370.09,-217.93 1370.44,-210.938"/>
</g>
<!-- Node0x3be4c80&#45;&gt;Node0x3be4540 -->
<g id="edge28" class="edge"><title>Node0x3be4c80&#45;&gt;Node0x3be4540</title>
<path fill="none" stroke="black" d="M877.897,-887.354C756.747,-883.741 500.459,-873.729 466,-853 448.883,-842.703 442,-834.975 442,-815 442,-815 442,-815 442,-645 442,-614.085 458.35,-582.182 472.16,-560.748"/>
<polygon fill="black" stroke="black" points="475.206,-562.491 477.869,-552.236 469.392,-558.592 475.206,-562.491"/>
</g>
<!-- Node0x3be4c80&#45;&gt;Node0x3be4620 -->
<g id="edge29" class="edge"><title>Node0x3be4c80&#45;&gt;Node0x3be4620</title>
<path fill="none" stroke="black" d="M1004.29,-889.561C1196.62,-890.838 1765.6,-891.3 1839,-853 1867.69,-838.032 1862.66,-820.16 1883,-795 1885.94,-791.366 1889.09,-787.578 1892.23,-783.881"/>
<polygon fill="black" stroke="black" points="1895.11,-785.9 1898.96,-776.03 1889.79,-781.344 1895.11,-785.9"/>
</g>
<!-- Node0x3be4c80&#45;&gt;Node0x3be4790 -->
<g id="edge30" class="edge"><title>Node0x3be4c80&#45;&gt;Node0x3be4790</title>
<path fill="none" stroke="black" d="M877.898,-888.733C741.446,-887.608 428.109,-881.873 390,-853 326.136,-804.614 358.753,-757.787 330,-683 328.809,-679.903 327.525,-676.673 326.226,-673.474"/>
<polygon fill="black" stroke="black" points="329.421,-672.04 322.367,-664.135 322.952,-674.713 329.421,-672.04"/>
</g>
<!-- Node0x3be4c80&#45;&gt;Node0x3be4870 -->
<g id="edge31" class="edge"><title>Node0x3be4c80&#45;&gt;Node0x3be4870</title>
<path fill="none" stroke="black" d="M923.605,-871.837C913.76,-862.124 901.291,-849.821 890.473,-839.147"/>
<polygon fill="black" stroke="black" points="892.877,-836.602 883.301,-832.07 887.961,-841.585 892.877,-836.602"/>
</g>
<!-- Node0x3be4c80&#45;&gt;Node0x3be48e0 -->
<g id="edge38" class="edge"><title>Node0x3be4c80&#45;&gt;Node0x3be48e0</title>
<path fill="none" stroke="black" d="M971.264,-871.85C978.076,-866.635 984.587,-860.313 989,-853 1011.92,-815.027 1015.08,-762.213 1014.56,-730.443"/>
<polygon fill="black" stroke="black" points="1018.04,-730.031 1014.24,-720.143 1011.05,-730.244 1018.04,-730.031"/>
</g>
<!-- Node0x3be4c80&#45;&gt;Node0x3be4950 -->
<g id="edge40" class="edge"><title>Node0x3be4c80&#45;&gt;Node0x3be4950</title>
<path fill="none" stroke="black" d="M877.614,-888.87C836.602,-886.156 783.505,-877.507 743,-853 693.408,-822.996 656.825,-763.634 638.72,-729.268"/>
<polygon fill="black" stroke="black" points="641.789,-727.581 634.109,-720.283 635.561,-730.778 641.789,-727.581"/>
</g>
<!-- Node0x3be4c80&#45;&gt;Node0x3be49f0 -->
<g id="edge39" class="edge"><title>Node0x3be4c80&#45;&gt;Node0x3be49f0</title>
<path fill="none" stroke="black" d="M972.921,-871.955C982.801,-866.289 993.564,-859.704 1003,-853 1107.57,-778.704 1126.5,-750.646 1222,-665 1240.11,-648.76 1260.1,-630.024 1275.44,-615.468"/>
<polygon fill="black" stroke="black" points="1278.17,-617.701 1283.01,-608.273 1273.35,-612.629 1278.17,-617.701"/>
</g>
<!-- Node0x3be4c80&#45;&gt;Node0x3be6020 -->
<g id="edge41" class="edge"><title>Node0x3be4c80&#45;&gt;Node0x3be6020</title>
<path fill="none" stroke="black" d="M877.981,-883.404C842.777,-876.886 801.076,-862.9 776,-833 732.66,-781.322 782.058,-743.865 753,-683 738.496,-652.621 729.057,-647.029 702,-627 694.838,-621.698 686.772,-616.879 678.639,-612.612"/>
<polygon fill="black" stroke="black" points="679.983,-609.371 669.473,-608.034 676.855,-615.634 679.983,-609.371"/>
</g>
<!-- Node0x3be4c80&#45;&gt;Node0x3be46b0 -->
<g id="edge42" class="edge"><title>Node0x3be4c80&#45;&gt;Node0x3be46b0</title>
<path fill="none" stroke="black" d="M877.867,-885.319C751.61,-877.109 480,-854.82 480,-815 480,-815 480,-815 480,-645 480,-611.044 475.124,-595.144 499,-571 520.681,-549.076 537.042,-563.589 566,-553 603.346,-539.344 610.183,-530.024 647,-515 660.196,-509.615 674.532,-504.286 688.198,-499.445"/>
<polygon fill="black" stroke="black" points="689.723,-502.619 698.005,-496.012 687.41,-496.012 689.723,-502.619"/>
</g>
<!-- Node0x3be4c80&#45;&gt;Node0x3be63a0 -->
<g id="edge45" class="edge"><title>Node0x3be4c80&#45;&gt;Node0x3be63a0</title>
<path fill="none" stroke="black" d="M877.927,-889.328C765.057,-889.088 533.463,-884.603 460,-853 365.331,-812.274 402,-664.041 402,-479 402,-479 402,-479 402,-207 402,-147.731 552.394,-127.514 680.441,-121.042"/>
<polygon fill="black" stroke="black" points="680.971,-124.521 690.792,-120.546 680.636,-117.529 680.971,-124.521"/>
</g>
<!-- Node0x3be4d10 -->
<g id="node27" class="node"><title>Node0x3be4d10</title>
<polygon fill="none" stroke="black" points="1891.5,-796 1891.5,-832 2322.5,-832 2322.5,-796 1891.5,-796"/>
<text text-anchor="middle" x="2107" y="-810.3" font-family="Times,serif" font-size="14.00">call void @llvm.dbg.declare(metadata !{i32* %a}, metadata !12), !dbg !13</text>
</g>
<!-- Node0x3be4c80&#45;&gt;Node0x3be4d10 -->
<g id="edge33" class="edge"><title>Node0x3be4c80&#45;&gt;Node0x3be4d10</title>
<path fill="none" stroke="black" d="M1004.18,-889.295C1155.38,-889.408 1549.78,-886.192 1877,-853 1920.89,-848.548 1969.11,-840.997 2010.01,-833.793"/>
<polygon fill="black" stroke="black" points="2010.74,-837.219 2019.97,-832.021 2009.51,-830.327 2010.74,-837.219"/>
</g>
<!-- Node0x3be4e60 -->
<g id="node28" class="node"><title>Node0x3be4e60</title>
<polygon fill="none" stroke="black" points="2341,-796 2341,-832 2773,-832 2773,-796 2341,-796"/>
<text text-anchor="middle" x="2557" y="-810.3" font-family="Times,serif" font-size="14.00">call void @llvm.dbg.declare(metadata !{i32* %b}, metadata !14), !dbg !15</text>
</g>
<!-- Node0x3be4c80&#45;&gt;Node0x3be4e60 -->
<g id="edge34" class="edge"><title>Node0x3be4c80&#45;&gt;Node0x3be4e60</title>
<path fill="none" stroke="black" d="M1004.09,-887.47C1200.64,-882.485 1819.39,-865.153 2331,-833 2332.72,-832.892 2334.45,-832.782 2336.19,-832.671"/>
<polygon fill="black" stroke="black" points="2336.44,-836.162 2346.19,-832.018 2335.99,-829.177 2336.44,-836.162"/>
</g>
<!-- Node0x3be4d90 -->
<g id="node29" class="node"><title>Node0x3be4d90</title>
<polygon fill="none" stroke="black" points="2791.5,-796 2791.5,-832 3222.5,-832 3222.5,-796 2791.5,-796"/>
<text text-anchor="middle" x="3007" y="-810.3" font-family="Times,serif" font-size="14.00">call void @llvm.dbg.declare(metadata !{i32* %c}, metadata !16), !dbg !17</text>
</g>
<!-- Node0x3be4c80&#45;&gt;Node0x3be4d90 -->
<g id="edge35" class="edge"><title>Node0x3be4c80&#45;&gt;Node0x3be4d90</title>
<path fill="none" stroke="black" d="M1004.24,-888.209C1239.38,-885.026 2085.57,-871.426 2782,-833 2784.27,-832.875 2786.54,-832.746 2788.83,-832.615"/>
<polygon fill="black" stroke="black" points="2789.16,-836.102 2798.93,-832.016 2788.74,-829.114 2789.16,-836.102"/>
</g>
<!-- Node0x3be4fe0 -->
<g id="node30" class="node"><title>Node0x3be4fe0</title>
<polygon fill="none" stroke="black" points="3241,-796 3241,-832 3673,-832 3673,-796 3241,-796"/>
<text text-anchor="middle" x="3457" y="-810.3" font-family="Times,serif" font-size="14.00">call void @llvm.dbg.declare(metadata !{i32* %d}, metadata !18), !dbg !19</text>
</g>
<!-- Node0x3be4c80&#45;&gt;Node0x3be4fe0 -->
<g id="edge36" class="edge"><title>Node0x3be4c80&#45;&gt;Node0x3be4fe0</title>
<path fill="none" stroke="black" d="M1004.34,-888.728C1273.48,-887.303 2348.83,-878.882 3231,-833 3233.58,-832.866 3236.18,-832.727 3238.78,-832.583"/>
<polygon fill="black" stroke="black" points="3239.13,-836.069 3248.91,-832.007 3238.73,-829.081 3239.13,-836.069"/>
</g>
<!-- Node0x3be5050 -->
<g id="node31" class="node"><title>Node0x3be5050</title>
<polygon fill="none" stroke="black" points="3691.5,-796 3691.5,-832 4136.5,-832 4136.5,-796 3691.5,-796"/>
<text text-anchor="middle" x="3914" y="-810.3" font-family="Times,serif" font-size="14.00">call void @llvm.dbg.declare(metadata !{i32* %key}, metadata !20), !dbg !21</text>
</g>
<!-- Node0x3be4c80&#45;&gt;Node0x3be5050 -->
<g id="edge37" class="edge"><title>Node0x3be4c80&#45;&gt;Node0x3be5050</title>
<path fill="none" stroke="black" d="M1004.29,-889.096C1304.15,-889.261 2611.83,-886.706 3682,-833 3684.74,-832.862 3687.5,-832.719 3690.28,-832.571"/>
<polygon fill="black" stroke="black" points="3690.6,-836.059 3700.39,-832.014 3690.21,-829.07 3690.6,-836.059"/>
</g>
</g>
</svg>
