<?xml version="1.0" encoding="UTF-8" standalone="no"?>
<!DOCTYPE svg PUBLIC "-//W3C//DTD SVG 1.1//EN"
 "http://www.w3.org/Graphics/SVG/1.1/DTD/svg11.dtd">
<!-- Generated by graphviz version 2.36.0 (20140111.2315)
 -->
<!-- Title: Program Dependency Graph for &#39;main&#39; function Pages: 1 -->
<svg width="1085pt" height="715pt"
 viewBox="0.00 0.00 1085.00 715.00" xmlns="http://www.w3.org/2000/svg" xmlns:xlink="http://www.w3.org/1999/xlink">
<g id="graph0" class="graph" transform="scale(1 1) rotate(0) translate(4 711)">
<title>Program Dependency Graph for &#39;main&#39; function</title>
<polygon fill="white" stroke="none" points="-4,4 -4,-711 1081,-711 1081,4 -4,4"/>
<text text-anchor="middle" x="538.5" y="-7.8" font-family="Times,serif" font-size="14.00">Program Dependency Graph for &#39;main&#39; function</text>
<!-- Node0x2ca3640 -->
<g id="node1" class="node"><title>Node0x2ca3640</title>
<polygon fill="none" stroke="black" points="28.5002,-594 28.5002,-630 201.5,-630 201.5,-594 28.5002,-594"/>
<text text-anchor="middle" x="115" y="-608.3" font-family="Times,serif" font-size="14.00">%retval = alloca i32, align 4</text>
</g>
<!-- Node0x2ca32d0 -->
<g id="node2" class="node"><title>Node0x2ca32d0</title>
<polygon fill="none" stroke="black" points="88.0002,-482 88.0002,-518 240,-518 240,-482 88.0002,-482"/>
<text text-anchor="middle" x="164" y="-496.3" font-family="Times,serif" font-size="14.00">store i32 0, i32* %retval</text>
</g>
<!-- Node0x2ca3640&#45;&gt;Node0x2ca32d0 -->
<g id="edge1" class="edge"><title>Node0x2ca3640&#45;&gt;Node0x2ca32d0</title>
<path fill="none" stroke="black" stroke-dasharray="1,5" d="M120.936,-593.977C126.401,-578.8 135.002,-556.098 144,-537 145.509,-533.798 147.181,-530.489 148.899,-527.233"/>
<polygon fill="black" stroke="black" points="152.038,-528.788 153.757,-518.333 145.893,-525.434 152.038,-528.788"/>
<text text-anchor="middle" x="180" y="-552.3" font-family="Times,serif" font-size="14.00">{DEF_USE}</text>
</g>
<!-- Node0x2ca3960 -->
<g id="node3" class="node"><title>Node0x2ca3960</title>
<polygon fill="none" stroke="black" points="111.5,-370 111.5,-406 260.5,-406 260.5,-370 111.5,-370"/>
<text text-anchor="middle" x="186" y="-384.3" font-family="Times,serif" font-size="14.00">%2 = load i32* %retval</text>
</g>
<!-- Node0x2ca3640&#45;&gt;Node0x2ca3960 -->
<g id="edge2" class="edge"><title>Node0x2ca3640&#45;&gt;Node0x2ca3960</title>
<path fill="none" stroke="black" stroke-dasharray="1,5" d="M82.4166,-593.964C41.5795,-570.25 -19.9813,-525.204 7.00023,-481 28.5571,-445.683 68.4716,-423.354 105.148,-409.554"/>
<polygon fill="black" stroke="black" points="106.659,-412.73 114.887,-406.055 104.293,-406.142 106.659,-412.73"/>
<text text-anchor="middle" x="43.0002" y="-496.3" font-family="Times,serif" font-size="14.00">{DEF_USE}</text>
</g>
<!-- Node0x2ca32d0&#45;&gt;Node0x2ca3960 -->
<g id="edge3" class="edge"><title>Node0x2ca32d0&#45;&gt;Node0x2ca3960</title>
<path fill="none" stroke="black" stroke-dasharray="1,5" d="M164.993,-481.759C166.125,-466.636 168.443,-444.137 173,-425 173.716,-421.994 174.601,-418.892 175.569,-415.829"/>
<polygon fill="black" stroke="black" points="178.891,-416.932 178.845,-406.337 172.274,-414.648 178.891,-416.932"/>
<text text-anchor="middle" x="213.5" y="-440.3" font-family="Times,serif" font-size="14.00">{RAW} retval</text>
</g>
<!-- Node0x2ca4130 -->
<g id="node4" class="node"><title>Node0x2ca4130</title>
<polygon fill="none" stroke="black" points="200,-280 200,-316 274,-316 274,-280 200,-280"/>
<text text-anchor="middle" x="237" y="-294.3" font-family="Times,serif" font-size="14.00">ret i32 %2</text>
</g>
<!-- Node0x2ca3960&#45;&gt;Node0x2ca4130 -->
<g id="edge4" class="edge"><title>Node0x2ca3960&#45;&gt;Node0x2ca4130</title>
<path fill="none" stroke="black" stroke-dasharray="1,5" d="M196.076,-369.614C203.458,-356.876 213.603,-339.372 221.944,-324.979"/>
<polygon fill="black" stroke="black" points="225.133,-326.457 227.119,-316.05 219.076,-322.947 225.133,-326.457"/>
<text text-anchor="middle" x="253" y="-339.3" font-family="Times,serif" font-size="14.00">{DEF_USE}</text>
</g>
<!-- Node0x2ca3a30 -->
<g id="node5" class="node"><title>Node0x2ca3a30</title>
<polygon fill="none" stroke="black" points="371.5,-482 371.5,-518 520.5,-518 520.5,-482 371.5,-482"/>
<text text-anchor="middle" x="446" y="-496.3" font-family="Times,serif" font-size="14.00">%a = alloca i32, align 4</text>
</g>
<!-- Node0x2ca3aa0 -->
<g id="node6" class="node"><title>Node0x2ca3aa0</title>
<polygon fill="none" stroke="black" points="565.5,-370 565.5,-406 750.5,-406 750.5,-370 565.5,-370"/>
<text text-anchor="middle" x="658" y="-384.3" font-family="Times,serif" font-size="14.00">store i32 %0, i32* %a, align 4</text>
</g>
<!-- Node0x2ca3a30&#45;&gt;Node0x2ca3aa0 -->
<g id="edge5" class="edge"><title>Node0x2ca3a30&#45;&gt;Node0x2ca3aa0</title>
<path fill="none" stroke="black" stroke-dasharray="1,5" d="M469.813,-481.922C492.884,-465.87 529.241,-441.856 563,-425 574.082,-419.467 586.233,-414.26 598.032,-409.618"/>
<polygon fill="black" stroke="black" points="599.314,-412.875 607.393,-406.02 596.803,-406.341 599.314,-412.875"/>
<text text-anchor="middle" x="599" y="-440.3" font-family="Times,serif" font-size="14.00">{DEF_USE}</text>
</g>
<!-- Node0x2ca39d0 -->
<g id="node7" class="node"><title>Node0x2ca39d0</title>
<polygon fill="none" stroke="black" points="614.5,-280 614.5,-316 783.5,-316 783.5,-280 614.5,-280"/>
<text text-anchor="middle" x="699" y="-294.3" font-family="Times,serif" font-size="14.00">%1 = load i32* %a, align 4</text>
</g>
<!-- Node0x2ca3a30&#45;&gt;Node0x2ca39d0 -->
<g id="edge6" class="edge"><title>Node0x2ca3a30&#45;&gt;Node0x2ca39d0</title>
<path fill="none" stroke="black" stroke-dasharray="1,5" d="M446.311,-481.748C447.748,-454.198 454.559,-400.202 485,-369 516.4,-336.815 562.788,-319.421 604.356,-310.023"/>
<polygon fill="black" stroke="black" points="605.199,-313.422 614.25,-307.914 603.74,-306.576 605.199,-313.422"/>
<text text-anchor="middle" x="521" y="-384.3" font-family="Times,serif" font-size="14.00">{DEF_USE}</text>
</g>
<!-- Node0x2ca3aa0&#45;&gt;Node0x2ca39d0 -->
<g id="edge7" class="edge"><title>Node0x2ca3aa0&#45;&gt;Node0x2ca39d0</title>
<path fill="none" stroke="black" stroke-dasharray="1,5" d="M666.101,-369.614C671.979,-356.998 680.035,-339.705 686.705,-325.391"/>
<polygon fill="black" stroke="black" points="690.006,-326.593 691.056,-316.05 683.66,-323.637 690.006,-326.593"/>
<text text-anchor="middle" x="710" y="-339.3" font-family="Times,serif" font-size="14.00">{RAW} a</text>
</g>
<!-- Node0x2ca3f10 -->
<g id="node8" class="node"><title>Node0x2ca3f10</title>
<polygon fill="none" stroke="black" points="653.5,-190 653.5,-226 834.5,-226 834.5,-190 653.5,-190"/>
<text text-anchor="middle" x="744" y="-204.3" font-family="Times,serif" font-size="14.00">%tobool = icmp ne i32 %1, 0</text>
</g>
<!-- Node0x2ca39d0&#45;&gt;Node0x2ca3f10 -->
<g id="edge8" class="edge"><title>Node0x2ca39d0&#45;&gt;Node0x2ca3f10</title>
<path fill="none" stroke="black" stroke-dasharray="1,5" d="M707.891,-279.614C714.404,-266.876 723.355,-249.372 730.716,-234.979"/>
<polygon fill="black" stroke="black" points="733.845,-236.547 735.281,-226.05 727.612,-233.36 733.845,-236.547"/>
<text text-anchor="middle" x="761" y="-249.3" font-family="Times,serif" font-size="14.00">{DEF_USE}</text>
</g>
<!-- Node0x2ca3fa0 -->
<g id="node15" class="node"><title>Node0x2ca3fa0</title>
<polygon fill="none" stroke="black" points="651,-100 651,-136 911,-136 911,-100 651,-100"/>
<text text-anchor="middle" x="781" y="-114.3" font-family="Times,serif" font-size="14.00">br i1 %tobool, label %if.then, label %if.else</text>
</g>
<!-- Node0x2ca3f10&#45;&gt;Node0x2ca3fa0 -->
<g id="edge13" class="edge"><title>Node0x2ca3f10&#45;&gt;Node0x2ca3fa0</title>
<path fill="none" stroke="black" stroke-dasharray="1,5" d="M751.31,-189.614C756.615,-176.998 763.886,-159.705 769.904,-145.391"/>
<polygon fill="black" stroke="black" points="773.182,-146.625 773.831,-136.05 766.729,-143.912 773.182,-146.625"/>
<text text-anchor="middle" x="801" y="-159.3" font-family="Times,serif" font-size="14.00">{DEF_USE}</text>
</g>
<!-- Node0x2ca3b80 -->
<g id="node9" class="node"><title>Node0x2ca3b80</title>
<polygon fill="none" stroke="black" points="324.5,-538 324.5,-574 473.5,-574 473.5,-538 324.5,-538"/>
<text text-anchor="middle" x="399" y="-552.3" font-family="Times,serif" font-size="14.00">%c = alloca i32, align 4</text>
</g>
<!-- Node0x2ca3bf0 -->
<g id="node10" class="node"><title>Node0x2ca3bf0</title>
<polygon fill="none" stroke="black" points="337.5,-24 337.5,-60 510.5,-60 510.5,-24 337.5,-24"/>
<text text-anchor="middle" x="424" y="-38.3" font-family="Times,serif" font-size="14.00">store i32 1, i32* %c, align 4</text>
</g>
<!-- Node0x2ca3b80&#45;&gt;Node0x2ca3bf0 -->
<g id="edge9" class="edge"><title>Node0x2ca3b80&#45;&gt;Node0x2ca3bf0</title>
<path fill="none" stroke="black" stroke-dasharray="1,5" d="M377.164,-537.686C371.506,-532.243 365.911,-525.849 362,-519 345.216,-489.607 344,-478.848 344,-445 344,-445 344,-445 344,-117 344,-95.2129 360.188,-78.0531 378,-65.7662"/>
<polygon fill="black" stroke="black" points="380.275,-68.4657 386.811,-60.1269 376.501,-62.5699 380.275,-68.4657"/>
<text text-anchor="middle" x="380" y="-294.3" font-family="Times,serif" font-size="14.00">{DEF_USE}</text>
</g>
<!-- Node0x2ca3c60 -->
<g id="node11" class="node"><title>Node0x2ca3c60</title>
<polygon fill="none" stroke="black" points="877.5,-426 877.5,-462 1026.5,-462 1026.5,-426 877.5,-426"/>
<text text-anchor="middle" x="952" y="-440.3" font-family="Times,serif" font-size="14.00">%d = alloca i32, align 4</text>
</g>
<!-- Node0x2ca3d60 -->
<g id="node12" class="node"><title>Node0x2ca3d60</title>
<polygon fill="none" stroke="black" points="856.5,-24 856.5,-60 1029.5,-60 1029.5,-24 856.5,-24"/>
<text text-anchor="middle" x="943" y="-38.3" font-family="Times,serif" font-size="14.00">store i32 2, i32* %d, align 4</text>
</g>
<!-- Node0x2ca3c60&#45;&gt;Node0x2ca3d60 -->
<g id="edge10" class="edge"><title>Node0x2ca3c60&#45;&gt;Node0x2ca3d60</title>
<path fill="none" stroke="black" stroke-dasharray="1,5" d="M950.05,-425.857C947.979,-406.137 945,-372.775 945,-344 945,-344 945,-344 945,-117 945,-101.586 944.561,-84.372 944.095,-70.4283"/>
<polygon fill="black" stroke="black" points="947.578,-69.9118 943.722,-60.0436 940.583,-70.1626 947.578,-69.9118"/>
<text text-anchor="middle" x="981" y="-249.3" font-family="Times,serif" font-size="14.00">{DEF_USE}</text>
</g>
<!-- Node0x2ca3dd0 -->
<g id="node13" class="node"><title>Node0x2ca3dd0</title>
<polygon fill="none" stroke="black" points="519,-594 519,-630 681,-630 681,-594 519,-594"/>
<text text-anchor="middle" x="600" y="-608.3" font-family="Times,serif" font-size="14.00">%key = alloca i32, align 4</text>
</g>
<!-- Node0x2ca3e40 -->
<g id="node14" class="node"><title>Node0x2ca3e40</title>
<polygon fill="none" stroke="black" points="539,-482 539,-518 721,-518 721,-482 539,-482"/>
<text text-anchor="middle" x="630" y="-496.3" font-family="Times,serif" font-size="14.00">%0 = load i32* %key, align 4</text>
</g>
<!-- Node0x2ca3dd0&#45;&gt;Node0x2ca3e40 -->
<g id="edge11" class="edge"><title>Node0x2ca3dd0&#45;&gt;Node0x2ca3e40</title>
<path fill="none" stroke="black" stroke-dasharray="1,5" d="M604.688,-593.812C609.509,-576.134 617.086,-548.354 622.694,-527.789"/>
<polygon fill="black" stroke="black" points="626.091,-528.635 625.346,-518.067 619.338,-526.794 626.091,-528.635"/>
<text text-anchor="middle" x="655" y="-552.3" font-family="Times,serif" font-size="14.00">{DEF_USE}</text>
</g>
<!-- Node0x2ca3e40&#45;&gt;Node0x2ca3aa0 -->
<g id="edge12" class="edge"><title>Node0x2ca3e40&#45;&gt;Node0x2ca3aa0</title>
<path fill="none" stroke="black" stroke-dasharray="1,5" d="M634.375,-481.812C638.875,-464.134 645.947,-436.354 651.181,-415.789"/>
<polygon fill="black" stroke="black" points="654.581,-416.621 653.656,-406.067 647.797,-414.894 654.581,-416.621"/>
<text text-anchor="middle" x="684" y="-440.3" font-family="Times,serif" font-size="14.00">{DEF_USE}</text>
</g>
<!-- Node0x2ca3fa0&#45;&gt;Node0x2ca3bf0 -->
<g id="edge14" class="edge"><title>Node0x2ca3fa0&#45;&gt;Node0x2ca3bf0</title>
<path fill="none" stroke="black" d="M698.649,-99.93C644.16,-88.6354 572.634,-73.8091 516.234,-62.1185"/>
<polygon fill="black" stroke="black" points="516.748,-58.6507 506.246,-60.0481 515.327,-65.505 516.748,-58.6507"/>
</g>
<!-- Node0x2ca3fa0&#45;&gt;Node0x2ca3d60 -->
<g id="edge16" class="edge"><title>Node0x2ca3fa0&#45;&gt;Node0x2ca3d60</title>
<path fill="none" stroke="black" d="M818.573,-99.8369C841.78,-89.2363 871.739,-75.5514 896.444,-64.2662"/>
<polygon fill="black" stroke="black" points="897.989,-67.4086 905.631,-60.07 895.081,-61.0414 897.989,-67.4086"/>
</g>
<!-- Node0x2ca4050 -->
<g id="node16" class="node"><title>Node0x2ca4050</title>
<polygon fill="none" stroke="black" points="608.5,-24 608.5,-60 713.5,-60 713.5,-24 608.5,-24"/>
<text text-anchor="middle" x="661" y="-38.3" font-family="Times,serif" font-size="14.00">br label %if.end</text>
</g>
<!-- Node0x2ca3fa0&#45;&gt;Node0x2ca4050 -->
<g id="edge15" class="edge"><title>Node0x2ca3fa0&#45;&gt;Node0x2ca4050</title>
<path fill="none" stroke="black" d="M753.168,-99.8369C736.66,-89.6566 715.538,-76.6317 697.68,-65.6195"/>
<polygon fill="black" stroke="black" points="699.03,-62.3398 688.681,-60.07 695.356,-68.298 699.03,-62.3398"/>
</g>
<!-- Node0x2ca40c0 -->
<g id="node17" class="node"><title>Node0x2ca40c0</title>
<polygon fill="none" stroke="black" points="731.5,-24 731.5,-60 836.5,-60 836.5,-24 731.5,-24"/>
<text text-anchor="middle" x="784" y="-38.3" font-family="Times,serif" font-size="14.00">br label %if.end</text>
</g>
<!-- Node0x2ca3fa0&#45;&gt;Node0x2ca40c0 -->
<g id="edge17" class="edge"><title>Node0x2ca3fa0&#45;&gt;Node0x2ca40c0</title>
<path fill="none" stroke="black" d="M781.696,-99.8369C782.052,-91.0575 782.494,-80.1626 782.895,-70.2675"/>
<polygon fill="black" stroke="black" points="786.4,-70.2036 783.308,-60.07 779.406,-69.92 786.4,-70.2036"/>
</g>
<!-- Node0x2ca3cd0 -->
<g id="node18" class="node"><title>Node0x2ca3cd0</title>
<polygon fill="none" stroke="black" points="612,-670 612,-706 738,-706 738,-670 612,-670"/>
<text text-anchor="middle" x="675" y="-684.3" font-family="Times,serif" font-size="14.00">&lt;&lt;ENTRY&gt;&gt; main</text>
</g>
<!-- Node0x2ca3cd0&#45;&gt;Node0x2ca3640 -->
<g id="edge18" class="edge"><title>Node0x2ca3cd0&#45;&gt;Node0x2ca3640</title>
<path fill="none" stroke="black" d="M611.812,-687.622C522.538,-687.246 354.879,-681.919 216,-651 197.962,-646.984 178.829,-640.421 162.124,-633.87"/>
<polygon fill="black" stroke="black" points="163.178,-630.522 152.595,-630.034 160.564,-637.015 163.178,-630.522"/>
</g>
<!-- Node0x2ca3cd0&#45;&gt;Node0x2ca32d0 -->
<g id="edge24" class="edge"><title>Node0x2ca3cd0&#45;&gt;Node0x2ca32d0</title>
<path fill="none" stroke="black" d="M611.812,-685.381C501.171,-681.997 281.445,-672.617 254,-651 212.045,-617.953 248.045,-579.726 216,-537 212.497,-532.329 208.206,-528.046 203.605,-524.19"/>
<polygon fill="black" stroke="black" points="205.725,-521.405 195.655,-518.112 201.474,-526.966 205.725,-521.405"/>
</g>
<!-- Node0x2ca3cd0&#45;&gt;Node0x2ca3960 -->
<g id="edge30" class="edge"><title>Node0x2ca3cd0&#45;&gt;Node0x2ca3960</title>
<path fill="none" stroke="black" d="M611.923,-685.211C509.209,-681.694 314.898,-672.287 292,-651 217.403,-581.649 313.615,-507.586 254,-425 250.444,-420.074 246.005,-415.761 241.109,-412.001"/>
<polygon fill="black" stroke="black" points="242.756,-408.889 232.513,-406.181 238.832,-414.685 242.756,-408.889"/>
</g>
<!-- Node0x2ca3cd0&#45;&gt;Node0x2ca4130 -->
<g id="edge31" class="edge"><title>Node0x2ca3cd0&#45;&gt;Node0x2ca4130</title>
<path fill="none" stroke="black" d="M611.986,-687.129C506.595,-685.625 306,-674.663 306,-613 306,-613 306,-613 306,-387 306,-363.066 306.045,-354.38 292,-335 288.568,-330.264 284.306,-325.982 279.683,-322.161"/>
<polygon fill="black" stroke="black" points="281.756,-319.34 271.647,-316.168 277.571,-324.952 281.756,-319.34"/>
</g>
<!-- Node0x2ca3cd0&#45;&gt;Node0x2ca3a30 -->
<g id="edge19" class="edge"><title>Node0x2ca3cd0&#45;&gt;Node0x2ca3a30</title>
<path fill="none" stroke="black" d="M611.624,-678.986C577.615,-671.666 537.219,-657.683 510,-631 478.275,-599.899 498.11,-575.534 476,-537 473.859,-533.269 471.323,-529.543 468.646,-525.98"/>
<polygon fill="black" stroke="black" points="471.255,-523.639 462.264,-518.034 465.798,-528.023 471.255,-523.639"/>
</g>
<!-- Node0x2ca3cd0&#45;&gt;Node0x2ca3aa0 -->
<g id="edge26" class="edge"><title>Node0x2ca3cd0&#45;&gt;Node0x2ca3aa0</title>
<path fill="none" stroke="black" d="M692.577,-669.585C701.6,-659.324 711.601,-645.531 716,-631 735.403,-566.917 733.572,-547.861 730,-481 728.665,-456.004 737.908,-445.812 724,-425 720.702,-420.064 716.492,-415.746 711.799,-411.981"/>
<polygon fill="black" stroke="black" points="713.712,-409.048 703.52,-406.157 709.685,-414.773 713.712,-409.048"/>
</g>
<!-- Node0x2ca3cd0&#45;&gt;Node0x2ca39d0 -->
<g id="edge27" class="edge"><title>Node0x2ca3cd0&#45;&gt;Node0x2ca39d0</title>
<path fill="none" stroke="black" d="M736.897,-669.932C762.799,-658.673 787,-640.733 787,-613 787,-613 787,-613 787,-387 787,-358.837 764.186,-336.539 741.79,-321.435"/>
<polygon fill="black" stroke="black" points="743.588,-318.431 733.275,-316.001 739.822,-324.331 743.588,-318.431"/>
</g>
<!-- Node0x2ca3cd0&#45;&gt;Node0x2ca3f10 -->
<g id="edge28" class="edge"><title>Node0x2ca3cd0&#45;&gt;Node0x2ca3f10</title>
<path fill="none" stroke="black" d="M738.179,-680.491C779.173,-672.364 825,-654.089 825,-613 825,-613 825,-613 825,-297 825,-271.546 817.783,-264.137 801,-245 796.797,-240.207 791.802,-235.824 786.542,-231.893"/>
<polygon fill="black" stroke="black" points="788.354,-228.891 778.135,-226.095 784.38,-234.653 788.354,-228.891"/>
</g>
<!-- Node0x2ca3cd0&#45;&gt;Node0x2ca3b80 -->
<g id="edge21" class="edge"><title>Node0x2ca3cd0&#45;&gt;Node0x2ca3b80</title>
<path fill="none" stroke="black" d="M611.946,-686.644C570.747,-683.857 517.156,-675.21 476,-651 448.317,-634.715 426.326,-604.553 413.049,-582.779"/>
<polygon fill="black" stroke="black" points="415.988,-580.872 407.901,-574.026 409.954,-584.42 415.988,-580.872"/>
</g>
<!-- Node0x2ca3cd0&#45;&gt;Node0x2ca3c60 -->
<g id="edge22" class="edge"><title>Node0x2ca3cd0&#45;&gt;Node0x2ca3c60</title>
<path fill="none" stroke="black" d="M738.173,-682.581C789.392,-677.783 856.345,-668.363 877,-651 931.369,-605.298 946.326,-516.762 950.44,-472.125"/>
<polygon fill="black" stroke="black" points="953.939,-472.276 951.253,-462.027 946.962,-471.714 953.939,-472.276"/>
</g>
<!-- Node0x2ca3cd0&#45;&gt;Node0x2ca3dd0 -->
<g id="edge23" class="edge"><title>Node0x2ca3cd0&#45;&gt;Node0x2ca3dd0</title>
<path fill="none" stroke="black" d="M657.605,-669.837C647.761,-660.124 635.291,-647.821 624.474,-637.147"/>
<polygon fill="black" stroke="black" points="626.878,-634.602 617.301,-630.07 621.961,-639.585 626.878,-634.602"/>
</g>
<!-- Node0x2ca3cd0&#45;&gt;Node0x2ca3e40 -->
<g id="edge25" class="edge"><title>Node0x2ca3cd0&#45;&gt;Node0x2ca3e40</title>
<path fill="none" stroke="black" d="M683.792,-669.879C697.536,-640.502 720.076,-579.553 695,-537 692.135,-532.138 688.351,-527.886 684.045,-524.178"/>
<polygon fill="black" stroke="black" points="685.935,-521.222 675.818,-518.077 681.765,-526.845 685.935,-521.222"/>
</g>
<!-- Node0x2ca3cd0&#45;&gt;Node0x2ca3fa0 -->
<g id="edge29" class="edge"><title>Node0x2ca3cd0&#45;&gt;Node0x2ca3fa0</title>
<path fill="none" stroke="black" d="M738.121,-679.101C765.419,-673.841 796.997,-665.178 823,-651 844.529,-639.261 863,-637.521 863,-613 863,-613 863,-613 863,-207 863,-181.906 857.458,-173.944 841,-155 836.765,-150.125 831.702,-145.723 826.337,-141.807"/>
<polygon fill="black" stroke="black" points="827.993,-138.704 817.734,-136.055 824.102,-144.523 827.993,-138.704"/>
</g>
<!-- Node0x2ca42e0 -->
<g id="node19" class="node"><title>Node0x2ca42e0</title>
<polygon fill="none" stroke="black" points="928.5,-594 928.5,-630 1077.5,-630 1077.5,-594 928.5,-594"/>
<text text-anchor="middle" x="1003" y="-608.3" font-family="Times,serif" font-size="14.00">%b = alloca i32, align 4</text>
</g>
<!-- Node0x2ca3cd0&#45;&gt;Node0x2ca42e0 -->
<g id="edge20" class="edge"><title>Node0x2ca3cd0&#45;&gt;Node0x2ca42e0</title>
<path fill="none" stroke="black" d="M738.103,-682.03C787.064,-677.102 856.258,-667.781 915,-651 929.951,-646.729 945.712,-640.513 959.699,-634.342"/>
<polygon fill="black" stroke="black" points="961.4,-637.413 969.067,-630.101 958.513,-631.036 961.4,-637.413"/>
</g>
</g>
</svg>
