<?xml version="1.0" encoding="UTF-8" standalone="no"?>
<!DOCTYPE svg PUBLIC "-//W3C//DTD SVG 1.1//EN"
 "http://www.w3.org/Graphics/SVG/1.1/DTD/svg11.dtd">
<!-- Generated by graphviz version 2.36.0 (20140111.2315)
 -->
<!-- Title: Program Dependency Graph for &#39;main&#39; function Pages: 1 -->
<svg width="3963pt" height="715pt"
 viewBox="0.00 0.00 3962.99 715.00" xmlns="http://www.w3.org/2000/svg" xmlns:xlink="http://www.w3.org/1999/xlink">
<g id="graph0" class="graph" transform="scale(1 1) rotate(0) translate(4 711)">
<title>Program Dependency Graph for &#39;main&#39; function</title>
<polygon fill="white" stroke="none" points="-4,4 -4,-711 3958.99,-711 3958.99,4 -4,4"/>
<text text-anchor="middle" x="1977.49" y="-7.8" font-family="Times,serif" font-size="14.00">Program Dependency Graph for &#39;main&#39; function</text>
<!-- Node0x39bb820 -->
<g id="node1" class="node"><title>Node0x39bb820</title>
<polygon fill="none" stroke="black" points="112.487,-594 112.487,-630 285.487,-630 285.487,-594 112.487,-594"/>
<text text-anchor="middle" x="198.987" y="-608.3" font-family="Times,serif" font-size="14.00">%retval = alloca i32, align 4</text>
</g>
<!-- Node0x39bba50 -->
<g id="node2" class="node"><title>Node0x39bba50</title>
<polygon fill="none" stroke="black" points="20.9868,-482 20.9868,-518 172.987,-518 172.987,-482 20.9868,-482"/>
<text text-anchor="middle" x="96.9868" y="-496.3" font-family="Times,serif" font-size="14.00">store i32 0, i32* %retval</text>
</g>
<!-- Node0x39bb820&#45;&gt;Node0x39bba50 -->
<g id="edge1" class="edge"><title>Node0x39bb820&#45;&gt;Node0x39bba50</title>
<path fill="none" stroke="black" stroke-dasharray="1,5" d="M148.15,-593.839C138.859,-588.902 129.924,-582.703 122.987,-575 111.288,-562.01 104.784,-543.44 101.207,-528.152"/>
<polygon fill="black" stroke="black" points="104.605,-527.297 99.1702,-518.202 97.7468,-528.701 104.605,-527.297"/>
<text text-anchor="middle" x="158.987" y="-552.3" font-family="Times,serif" font-size="14.00">{DEF_USE}</text>
</g>
<!-- Node0x39bbac0 -->
<g id="node3" class="node"><title>Node0x39bbac0</title>
<polygon fill="none" stroke="black" points="40.4868,-370 40.4868,-406 243.487,-406 243.487,-370 40.4868,-370"/>
<text text-anchor="middle" x="141.987" y="-384.3" font-family="Times,serif" font-size="14.00">%2 = load i32* %retval, !dbg !31</text>
</g>
<!-- Node0x39bb820&#45;&gt;Node0x39bbac0 -->
<g id="edge2" class="edge"><title>Node0x39bb820&#45;&gt;Node0x39bbac0</title>
<path fill="none" stroke="black" stroke-dasharray="1,5" d="M203.536,-593.777C211.64,-559.292 225.062,-480.339 194.987,-425 192.495,-420.414 189.135,-416.3 185.311,-412.639"/>
<polygon fill="black" stroke="black" points="187.42,-409.841 177.488,-406.151 182.951,-415.229 187.42,-409.841"/>
<text text-anchor="middle" x="249.987" y="-496.3" font-family="Times,serif" font-size="14.00">{DEF_USE}</text>
</g>
<!-- Node0x39bba50&#45;&gt;Node0x39bbac0 -->
<g id="edge3" class="edge"><title>Node0x39bba50&#45;&gt;Node0x39bbac0</title>
<path fill="none" stroke="black" stroke-dasharray="1,5" d="M98.7846,-481.851C100.894,-466.391 105.277,-443.337 113.987,-425 115.696,-421.402 117.815,-417.827 120.116,-414.406"/>
<polygon fill="black" stroke="black" points="122.978,-416.422 126.084,-406.292 117.34,-412.274 122.978,-416.422"/>
<text text-anchor="middle" x="154.487" y="-440.3" font-family="Times,serif" font-size="14.00">{RAW} retval</text>
</g>
<!-- Node0x39bda20 -->
<g id="node4" class="node"><title>Node0x39bda20</title>
<polygon fill="none" stroke="black" points="150.987,-280 150.987,-316 278.987,-316 278.987,-280 150.987,-280"/>
<text text-anchor="middle" x="214.987" y="-294.3" font-family="Times,serif" font-size="14.00">ret i32 %2, !dbg !31</text>
</g>
<!-- Node0x39bbac0&#45;&gt;Node0x39bda20 -->
<g id="edge4" class="edge"><title>Node0x39bbac0&#45;&gt;Node0x39bda20</title>
<path fill="none" stroke="black" stroke-dasharray="1,5" d="M156.409,-369.614C167.278,-356.512 182.329,-338.368 194.453,-323.753"/>
<polygon fill="black" stroke="black" points="197.152,-325.982 200.843,-316.05 191.764,-321.512 197.152,-325.982"/>
<text text-anchor="middle" x="221.987" y="-339.3" font-family="Times,serif" font-size="14.00">{DEF_USE}</text>
</g>
<!-- Node0x39bbb90 -->
<g id="node5" class="node"><title>Node0x39bbb90</title>
<polygon fill="none" stroke="black" points="634.487,-482 634.487,-518 783.487,-518 783.487,-482 634.487,-482"/>
<text text-anchor="middle" x="708.987" y="-496.3" font-family="Times,serif" font-size="14.00">%a = alloca i32, align 4</text>
</g>
<!-- Node0x39bbc00 -->
<g id="node6" class="node"><title>Node0x39bbc00</title>
<polygon fill="none" stroke="black" points="621.487,-370 621.487,-406 860.487,-406 860.487,-370 621.487,-370"/>
<text text-anchor="middle" x="740.987" y="-384.3" font-family="Times,serif" font-size="14.00">store i32 %0, i32* %a, align 4, !dbg !23</text>
</g>
<!-- Node0x39bbb90&#45;&gt;Node0x39bbc00 -->
<g id="edge5" class="edge"><title>Node0x39bbb90&#45;&gt;Node0x39bbc00</title>
<path fill="none" stroke="black" stroke-dasharray="1,5" d="M711.642,-481.986C714.249,-466.816 718.745,-444.117 724.987,-425 726.006,-421.879 727.205,-418.663 728.481,-415.497"/>
<polygon fill="black" stroke="black" points="731.703,-416.864 732.437,-406.295 725.272,-414.1 731.703,-416.864"/>
<text text-anchor="middle" x="760.987" y="-440.3" font-family="Times,serif" font-size="14.00">{DEF_USE}</text>
</g>
<!-- Node0x39bbb30 -->
<g id="node7" class="node"><title>Node0x39bbb30</title>
<polygon fill="none" stroke="black" points="514.487,-280 514.487,-316 737.487,-316 737.487,-280 514.487,-280"/>
<text text-anchor="middle" x="625.987" y="-294.3" font-family="Times,serif" font-size="14.00">%1 = load i32* %a, align 4, !dbg !24</text>
</g>
<!-- Node0x39bbb90&#45;&gt;Node0x39bbb30 -->
<g id="edge6" class="edge"><title>Node0x39bbb90&#45;&gt;Node0x39bbb30</title>
<path fill="none" stroke="black" stroke-dasharray="1,5" d="M644.727,-481.993C607.075,-468.36 562.597,-445.052 539.987,-407 521.129,-375.264 556.092,-342.622 586.94,-321.652"/>
<polygon fill="black" stroke="black" points="589.035,-324.464 595.483,-316.058 585.2,-318.608 589.035,-324.464"/>
<text text-anchor="middle" x="575.987" y="-384.3" font-family="Times,serif" font-size="14.00">{DEF_USE}</text>
</g>
<!-- Node0x39bbc00&#45;&gt;Node0x39bbb30 -->
<g id="edge7" class="edge"><title>Node0x39bbc00&#45;&gt;Node0x39bbb30</title>
<path fill="none" stroke="black" stroke-dasharray="1,5" d="M718.541,-369.824C700.81,-356.256 675.889,-337.186 656.373,-322.252"/>
<polygon fill="black" stroke="black" points="658.445,-319.43 648.376,-316.133 654.191,-324.99 658.445,-319.43"/>
<text text-anchor="middle" x="721.987" y="-339.3" font-family="Times,serif" font-size="14.00">{RAW} a</text>
</g>
<!-- Node0x39bd720 -->
<g id="node8" class="node"><title>Node0x39bd720</title>
<polygon fill="none" stroke="black" points="785.487,-190 785.487,-226 1020.49,-226 1020.49,-190 785.487,-190"/>
<text text-anchor="middle" x="902.987" y="-204.3" font-family="Times,serif" font-size="14.00">%tobool = icmp ne i32 %1, 0, !dbg !24</text>
</g>
<!-- Node0x39bbb30&#45;&gt;Node0x39bd720 -->
<g id="edge8" class="edge"><title>Node0x39bbb30&#45;&gt;Node0x39bd720</title>
<path fill="none" stroke="black" stroke-dasharray="1,5" d="M679.724,-279.928C725.5,-265.386 791.348,-244.466 839.673,-229.114"/>
<polygon fill="black" stroke="black" points="840.929,-232.388 849.399,-226.024 838.809,-225.716 840.929,-232.388"/>
<text text-anchor="middle" x="825.987" y="-249.3" font-family="Times,serif" font-size="14.00">{DEF_USE}</text>
</g>
<!-- Node0x39bd7b0 -->
<g id="node17" class="node"><title>Node0x39bd7b0</title>
<polygon fill="none" stroke="black" points="745.987,-100 745.987,-136 1059.99,-136 1059.99,-100 745.987,-100"/>
<text text-anchor="middle" x="902.987" y="-114.3" font-family="Times,serif" font-size="14.00">br i1 %tobool, label %if.then, label %if.else, !dbg !24</text>
</g>
<!-- Node0x39bd720&#45;&gt;Node0x39bd7b0 -->
<g id="edge15" class="edge"><title>Node0x39bd720&#45;&gt;Node0x39bd7b0</title>
<path fill="none" stroke="black" stroke-dasharray="1,5" d="M902.987,-189.614C902.987,-177.24 902.987,-160.369 902.987,-146.22"/>
<polygon fill="black" stroke="black" points="906.487,-146.05 902.987,-136.05 899.487,-146.05 906.487,-146.05"/>
<text text-anchor="middle" x="938.987" y="-159.3" font-family="Times,serif" font-size="14.00">{DEF_USE}</text>
</g>
<!-- Node0x39bbce0 -->
<g id="node9" class="node"><title>Node0x39bbce0</title>
<polygon fill="none" stroke="black" points="323.487,-538 323.487,-574 472.487,-574 472.487,-538 323.487,-538"/>
<text text-anchor="middle" x="397.987" y="-552.3" font-family="Times,serif" font-size="14.00">%c = alloca i32, align 4</text>
</g>
<!-- Node0x39bbd50 -->
<g id="node10" class="node"><title>Node0x39bbd50</title>
<polygon fill="none" stroke="black" points="578.487,-24 578.487,-60 805.487,-60 805.487,-24 578.487,-24"/>
<text text-anchor="middle" x="691.987" y="-38.3" font-family="Times,serif" font-size="14.00">store i32 1, i32* %c, align 4, !dbg !26</text>
</g>
<!-- Node0x39bbce0&#45;&gt;Node0x39bbd50 -->
<g id="edge9" class="edge"><title>Node0x39bbce0&#45;&gt;Node0x39bbd50</title>
<path fill="none" stroke="black" stroke-dasharray="1,5" d="M384.32,-537.848C369.213,-517.118 346.987,-480.574 346.987,-445 346.987,-445 346.987,-445 346.987,-117 346.987,-104.865 479.192,-79.3971 579.923,-61.7533"/>
<polygon fill="black" stroke="black" points="580.626,-65.1837 589.876,-60.0175 579.423,-58.2878 580.626,-65.1837"/>
<text text-anchor="middle" x="382.987" y="-294.3" font-family="Times,serif" font-size="14.00">{DEF_USE}</text>
</g>
<!-- Node0x39bbdc0 -->
<g id="node11" class="node"><title>Node0x39bbdc0</title>
<polygon fill="none" stroke="black" points="361.487,-426 361.487,-462 510.487,-462 510.487,-426 361.487,-426"/>
<text text-anchor="middle" x="435.987" y="-440.3" font-family="Times,serif" font-size="14.00">%d = alloca i32, align 4</text>
</g>
<!-- Node0x39bbec0 -->
<g id="node12" class="node"><title>Node0x39bbec0</title>
<polygon fill="none" stroke="black" points="333.487,-24 333.487,-60 560.487,-60 560.487,-24 333.487,-24"/>
<text text-anchor="middle" x="446.987" y="-38.3" font-family="Times,serif" font-size="14.00">store i32 2, i32* %d, align 4, !dbg !29</text>
</g>
<!-- Node0x39bbdc0&#45;&gt;Node0x39bbec0 -->
<g id="edge10" class="edge"><title>Node0x39bbdc0&#45;&gt;Node0x39bbec0</title>
<path fill="none" stroke="black" stroke-dasharray="1,5" d="M439.051,-425.895C442.306,-406.21 446.987,-372.88 446.987,-344 446.987,-344 446.987,-344 446.987,-117 446.987,-101.591 446.987,-84.378 446.987,-70.4331"/>
<polygon fill="black" stroke="black" points="450.487,-70.0471 446.987,-60.0472 443.487,-70.0472 450.487,-70.0471"/>
<text text-anchor="middle" x="482.987" y="-249.3" font-family="Times,serif" font-size="14.00">{DEF_USE}</text>
</g>
<!-- Node0x39bbf30 -->
<g id="node13" class="node"><title>Node0x39bbf30</title>
<polygon fill="none" stroke="black" points="937.987,-594 937.987,-630 1099.99,-630 1099.99,-594 937.987,-594"/>
<text text-anchor="middle" x="1018.99" y="-608.3" font-family="Times,serif" font-size="14.00">%key = alloca i32, align 4</text>
</g>
<!-- Node0x39bbfa0 -->
<g id="node14" class="node"><title>Node0x39bbfa0</title>
<polygon fill="none" stroke="black" points="1092.99,-482 1092.99,-518 1350.99,-518 1350.99,-482 1092.99,-482"/>
<text text-anchor="middle" x="1221.99" y="-496.3" font-family="Times,serif" font-size="14.00">%key1 = bitcast i32* %key to i8*, !dbg !22</text>
</g>
<!-- Node0x39bbf30&#45;&gt;Node0x39bbfa0 -->
<g id="edge11" class="edge"><title>Node0x39bbf30&#45;&gt;Node0x39bbfa0</title>
<path fill="none" stroke="black" stroke-dasharray="1,5" d="M1034.69,-593.868C1052.71,-574.543 1081.51,-544.788 1094.99,-537 1105.71,-530.801 1117.57,-525.614 1129.6,-521.29"/>
<polygon fill="black" stroke="black" points="1130.93,-524.535 1139.27,-518.003 1128.68,-517.907 1130.93,-524.535"/>
<text text-anchor="middle" x="1130.99" y="-552.3" font-family="Times,serif" font-size="14.00">{DEF_USE}</text>
</g>
<!-- Node0x39bc010 -->
<g id="node15" class="node"><title>Node0x39bc010</title>
<polygon fill="none" stroke="black" points="838.987,-482 838.987,-518 1074.99,-518 1074.99,-482 838.987,-482"/>
<text text-anchor="middle" x="956.987" y="-496.3" font-family="Times,serif" font-size="14.00">%0 = load i32* %key, align 4, !dbg !23</text>
</g>
<!-- Node0x39bbf30&#45;&gt;Node0x39bc010 -->
<g id="edge12" class="edge"><title>Node0x39bbf30&#45;&gt;Node0x39bc010</title>
<path fill="none" stroke="black" stroke-dasharray="1,5" d="M995.591,-593.817C989.477,-588.377 983.378,-581.951 978.987,-575 970.058,-560.867 964.607,-542.94 961.365,-528.27"/>
<polygon fill="black" stroke="black" points="964.759,-527.391 959.376,-518.265 957.893,-528.756 964.759,-527.391"/>
<text text-anchor="middle" x="1014.99" y="-552.3" font-family="Times,serif" font-size="14.00">{DEF_USE}</text>
</g>
<!-- Node0x39bc0b0 -->
<g id="node16" class="node"><title>Node0x39bc0b0</title>
<polygon fill="none" stroke="black" points="878.487,-370 878.487,-406 1879.49,-406 1879.49,-370 878.487,-370"/>
<text text-anchor="middle" x="1378.99" y="-384.3" font-family="Times,serif" font-size="14.00">call void @llvm.var.annotation(i8* %key1, i8* getelementptr inbounds ([10 x i8]* @.str, i32 0, i32 0), i8* getelementptr inbounds ([6 x i8]* @.str1, i32 0, i32 0), i32 4), !dbg !22</text>
</g>
<!-- Node0x39bbfa0&#45;&gt;Node0x39bc0b0 -->
<g id="edge13" class="edge"><title>Node0x39bbfa0&#45;&gt;Node0x39bc0b0</title>
<path fill="none" stroke="black" stroke-dasharray="1,5" d="M1235.04,-481.766C1248.18,-465.372 1269.79,-440.913 1292.99,-425 1301.1,-419.438 1310.2,-414.488 1319.37,-410.173"/>
<polygon fill="black" stroke="black" points="1320.83,-413.354 1328.52,-406.071 1317.97,-406.966 1320.83,-413.354"/>
<text text-anchor="middle" x="1328.99" y="-440.3" font-family="Times,serif" font-size="14.00">{DEF_USE}</text>
</g>
<!-- Node0x39bc010&#45;&gt;Node0x39bbc00 -->
<g id="edge14" class="edge"><title>Node0x39bc010&#45;&gt;Node0x39bbc00</title>
<path fill="none" stroke="black" stroke-dasharray="1,5" d="M928.616,-481.94C902.199,-466.333 861.513,-443.002 824.987,-425 814.64,-419.9 803.395,-414.794 792.597,-410.096"/>
<polygon fill="black" stroke="black" points="793.826,-406.814 783.256,-406.082 791.062,-413.246 793.826,-406.814"/>
<text text-anchor="middle" x="929.987" y="-440.3" font-family="Times,serif" font-size="14.00">{DEF_USE}</text>
</g>
<!-- Node0x39bd7b0&#45;&gt;Node0x39bbd50 -->
<g id="edge16" class="edge"><title>Node0x39bd7b0&#45;&gt;Node0x39bbd50</title>
<path fill="none" stroke="black" d="M854.314,-99.93C823.298,-89.0523 782.942,-74.899 750.228,-63.4257"/>
<polygon fill="black" stroke="black" points="751.374,-60.1189 740.78,-60.1122 749.058,-66.7245 751.374,-60.1189"/>
</g>
<!-- Node0x39bd7b0&#45;&gt;Node0x39bbec0 -->
<g id="edge18" class="edge"><title>Node0x39bd7b0&#45;&gt;Node0x39bbec0</title>
<path fill="none" stroke="black" d="M798.085,-99.9765C727.506,-88.5229 634.452,-73.4219 561.875,-61.6442"/>
<polygon fill="black" stroke="black" points="562.207,-58.1522 551.775,-60.0051 561.085,-65.0619 562.207,-58.1522"/>
</g>
<!-- Node0x39bd860 -->
<g id="node18" class="node"><title>Node0x39bd860</title>
<polygon fill="none" stroke="black" points="823.487,-24 823.487,-60 982.487,-60 982.487,-24 823.487,-24"/>
<text text-anchor="middle" x="902.987" y="-38.3" font-family="Times,serif" font-size="14.00">br label %if.end, !dbg !28</text>
</g>
<!-- Node0x39bd7b0&#45;&gt;Node0x39bd860 -->
<g id="edge17" class="edge"><title>Node0x39bd7b0&#45;&gt;Node0x39bd860</title>
<path fill="none" stroke="black" d="M902.987,-99.8369C902.987,-91.0575 902.987,-80.1626 902.987,-70.2675"/>
<polygon fill="black" stroke="black" points="906.487,-70.07 902.987,-60.07 899.487,-70.07 906.487,-70.07"/>
</g>
<!-- Node0x39bbe30 -->
<g id="node19" class="node"><title>Node0x39bbe30</title>
<polygon fill="none" stroke="black" points="1000.49,-24 1000.49,-60 1105.49,-60 1105.49,-24 1000.49,-24"/>
<text text-anchor="middle" x="1052.99" y="-38.3" font-family="Times,serif" font-size="14.00">br label %if.end</text>
</g>
<!-- Node0x39bd7b0&#45;&gt;Node0x39bbe30 -->
<g id="edge19" class="edge"><title>Node0x39bd7b0&#45;&gt;Node0x39bbe30</title>
<path fill="none" stroke="black" d="M937.777,-99.8369C959.075,-89.3297 986.516,-75.7923 1009.27,-64.5651"/>
<polygon fill="black" stroke="black" points="1010.97,-67.6331 1018.39,-60.07 1007.87,-61.3555 1010.97,-67.6331"/>
</g>
<!-- Node0x39bc120 -->
<g id="node20" class="node"><title>Node0x39bc120</title>
<polygon fill="none" stroke="black" points="955.987,-670 955.987,-706 1081.99,-706 1081.99,-670 955.987,-670"/>
<text text-anchor="middle" x="1018.99" y="-684.3" font-family="Times,serif" font-size="14.00">&lt;&lt;ENTRY&gt;&gt; main</text>
</g>
<!-- Node0x39bc120&#45;&gt;Node0x39bb820 -->
<g id="edge20" class="edge"><title>Node0x39bc120&#45;&gt;Node0x39bb820</title>
<path fill="none" stroke="black" d="M955.824,-686.337C804.456,-684.345 424.342,-676.849 299.987,-651 281.74,-647.207 262.424,-640.624 245.624,-633.992"/>
<polygon fill="black" stroke="black" points="246.632,-630.624 236.05,-630.102 243.997,-637.109 246.632,-630.624"/>
</g>
<!-- Node0x39bc120&#45;&gt;Node0x39bba50 -->
<g id="edge26" class="edge"><title>Node0x39bc120&#45;&gt;Node0x39bba50</title>
<path fill="none" stroke="black" d="M955.832,-685.48C753.422,-680.306 132.313,-661.96 102.987,-631 77.248,-603.828 82.3077,-557.386 89.0844,-527.992"/>
<polygon fill="black" stroke="black" points="92.5524,-528.553 91.6049,-518.001 85.7651,-526.841 92.5524,-528.553"/>
</g>
<!-- Node0x39bc120&#45;&gt;Node0x39bbac0 -->
<g id="edge39" class="edge"><title>Node0x39bc120&#45;&gt;Node0x39bbac0</title>
<path fill="none" stroke="black" d="M955.68,-686.933C756.852,-686.214 153.808,-679.977 81.9868,-631 21.2053,-589.552 -21.82,-546.341 11.9868,-481 28.4962,-449.091 61.7377,-425.872 90.4726,-410.743"/>
<polygon fill="black" stroke="black" points="92.2754,-413.753 99.6168,-406.114 89.114,-407.508 92.2754,-413.753"/>
</g>
<!-- Node0x39bc120&#45;&gt;Node0x39bda20 -->
<g id="edge40" class="edge"><title>Node0x39bc120&#45;&gt;Node0x39bda20</title>
<path fill="none" stroke="black" d="M955.966,-685.228C831.58,-681.347 558.624,-670.818 466.987,-651 442.379,-645.678 436.588,-642.092 413.987,-631 371.355,-610.077 351.119,-613.26 322.987,-575 257.79,-486.331 322.58,-426.876 261.987,-335 259.09,-330.608 255.473,-326.533 251.539,-322.824"/>
<polygon fill="black" stroke="black" points="253.577,-319.962 243.689,-316.155 249.044,-325.297 253.577,-319.962"/>
</g>
<!-- Node0x39bc120&#45;&gt;Node0x39bbb90 -->
<g id="edge21" class="edge"><title>Node0x39bc120&#45;&gt;Node0x39bbb90</title>
<path fill="none" stroke="black" d="M955.756,-683.063C898.277,-678.402 818.647,-668.902 792.987,-651 750.394,-621.286 726.895,-562.668 716.211,-528.165"/>
<polygon fill="black" stroke="black" points="719.484,-526.892 713.299,-518.29 712.77,-528.871 719.484,-526.892"/>
</g>
<!-- Node0x39bc120&#45;&gt;Node0x39bbc00 -->
<g id="edge35" class="edge"><title>Node0x39bc120&#45;&gt;Node0x39bbc00</title>
<path fill="none" stroke="black" d="M986.632,-669.924C968.774,-659.769 946.695,-645.969 928.987,-631 878.249,-588.111 863.615,-576.297 829.987,-519 807.575,-480.814 824.432,-459.746 796.987,-425 793.269,-420.294 788.758,-416.016 783.928,-412.187"/>
<polygon fill="black" stroke="black" points="785.739,-409.178 775.581,-406.169 781.646,-414.857 785.739,-409.178"/>
</g>
<!-- Node0x39bc120&#45;&gt;Node0x39bbb30 -->
<g id="edge36" class="edge"><title>Node0x39bc120&#45;&gt;Node0x39bbb30</title>
<path fill="none" stroke="black" d="M955.512,-681.578C908.34,-676.488 842.775,-667.165 786.987,-651 657.849,-613.581 624.592,-574.851 549.987,-463 518.418,-415.672 507.775,-374.219 548.987,-335 554.624,-329.635 561.206,-324.953 568.105,-320.9"/>
<polygon fill="black" stroke="black" points="569.841,-323.94 576.965,-316.099 566.505,-317.786 569.841,-323.94"/>
</g>
<!-- Node0x39bc120&#45;&gt;Node0x39bd720 -->
<g id="edge37" class="edge"><title>Node0x39bc120&#45;&gt;Node0x39bd720</title>
<path fill="none" stroke="black" d="M1082.34,-676.152C1300.43,-637.472 2000.73,-501.538 1887.99,-369 1779.4,-241.347 1272.35,-215.256 1031.14,-210.126"/>
<polygon fill="black" stroke="black" points="1030.98,-206.622 1020.91,-209.918 1030.84,-213.621 1030.98,-206.622"/>
</g>
<!-- Node0x39bc120&#45;&gt;Node0x39bbce0 -->
<g id="edge23" class="edge"><title>Node0x39bc120&#45;&gt;Node0x39bbce0</title>
<path fill="none" stroke="black" d="M955.811,-685.69C821.182,-682.49 514.846,-672.877 472.987,-651 444.654,-636.192 423.383,-605.468 410.861,-583.166"/>
<polygon fill="black" stroke="black" points="413.855,-581.343 406.036,-574.194 407.69,-584.659 413.855,-581.343"/>
</g>
<!-- Node0x39bc120&#45;&gt;Node0x39bbdc0 -->
<g id="edge24" class="edge"><title>Node0x39bc120&#45;&gt;Node0x39bbdc0</title>
<path fill="none" stroke="black" d="M955.958,-686.399C827.671,-684.623 545.389,-677.694 510.987,-651 468.792,-618.259 491.404,-587.131 472.987,-537 464.822,-514.776 454.751,-489.878 447.179,-471.593"/>
<polygon fill="black" stroke="black" points="450.332,-470.061 443.257,-462.174 443.87,-472.752 450.332,-470.061"/>
</g>
<!-- Node0x39bc120&#45;&gt;Node0x39bbf30 -->
<g id="edge25" class="edge"><title>Node0x39bc120&#45;&gt;Node0x39bbf30</title>
<path fill="none" stroke="black" d="M1018.99,-669.837C1018.99,-661.058 1018.99,-650.163 1018.99,-640.267"/>
<polygon fill="black" stroke="black" points="1022.49,-640.07 1018.99,-630.07 1015.49,-640.07 1022.49,-640.07"/>
</g>
<!-- Node0x39bc120&#45;&gt;Node0x39bbfa0 -->
<g id="edge32" class="edge"><title>Node0x39bc120&#45;&gt;Node0x39bbfa0</title>
<path fill="none" stroke="black" d="M1050.05,-669.863C1067.91,-659.484 1090.41,-645.484 1108.99,-631 1137.24,-608.968 1143.33,-601.914 1166.99,-575 1180.46,-559.667 1194.16,-541.246 1204.52,-526.619"/>
<polygon fill="black" stroke="black" points="1207.64,-528.264 1210.5,-518.063 1201.9,-524.252 1207.64,-528.264"/>
</g>
<!-- Node0x39bc120&#45;&gt;Node0x39bc010 -->
<g id="edge34" class="edge"><title>Node0x39bc120&#45;&gt;Node0x39bc010</title>
<path fill="none" stroke="black" d="M955.911,-685.58C897.615,-682.777 817.071,-674.604 796.987,-651 754.212,-600.731 842.733,-549.761 904.349,-522.09"/>
<polygon fill="black" stroke="black" points="905.862,-525.248 913.604,-518.016 903.042,-518.841 905.862,-525.248"/>
</g>
<!-- Node0x39bc120&#45;&gt;Node0x39bc0b0 -->
<g id="edge33" class="edge"><title>Node0x39bc120&#45;&gt;Node0x39bc0b0</title>
<path fill="none" stroke="black" d="M1082.03,-674.863C1160.88,-656.116 1293.58,-612.076 1359.99,-519 1381.48,-488.871 1383.36,-444.705 1381.86,-416.403"/>
<polygon fill="black" stroke="black" points="1385.35,-416.123 1381.15,-406.395 1378.36,-416.617 1385.35,-416.123"/>
</g>
<!-- Node0x39bc120&#45;&gt;Node0x39bd7b0 -->
<g id="edge38" class="edge"><title>Node0x39bc120&#45;&gt;Node0x39bd7b0</title>
<path fill="none" stroke="black" d="M1081.99,-681.049C1159.89,-672.994 1296.25,-656.612 1410.99,-631 1467.24,-618.442 1479.12,-607.175 1534.99,-593 1574.1,-583.076 1585.04,-585.579 1623.99,-575 1697.91,-554.92 1717.34,-550.898 1786.99,-519 1831.9,-498.431 1848.79,-498.639 1882.99,-463 1924.42,-419.822 1945.99,-403.843 1945.99,-344 1945.99,-344 1945.99,-344 1945.99,-207 1945.99,-163.618 1365.48,-135.987 1070.63,-124.75"/>
<polygon fill="black" stroke="black" points="1070.39,-121.239 1060.26,-124.358 1070.12,-128.234 1070.39,-121.239"/>
</g>
<!-- Node0x39bc1e0 -->
<g id="node21" class="node"><title>Node0x39bc1e0</title>
<polygon fill="none" stroke="black" points="1543.49,-594 1543.49,-630 1692.49,-630 1692.49,-594 1543.49,-594"/>
<text text-anchor="middle" x="1617.99" y="-608.3" font-family="Times,serif" font-size="14.00">%b = alloca i32, align 4</text>
</g>
<!-- Node0x39bc120&#45;&gt;Node0x39bc1e0 -->
<g id="edge22" class="edge"><title>Node0x39bc120&#45;&gt;Node0x39bc1e0</title>
<path fill="none" stroke="black" d="M1082.36,-685.194C1199.79,-681.408 1446.82,-671.263 1529.99,-651 1545.64,-647.187 1562.03,-640.825 1576.37,-634.386"/>
<polygon fill="black" stroke="black" points="1577.87,-637.55 1585.47,-630.17 1574.93,-631.199 1577.87,-637.55"/>
</g>
<!-- Node0x39bc1b0 -->
<g id="node22" class="node"><title>Node0x39bc1b0</title>
<polygon fill="none" stroke="black" points="1710.49,-594 1710.49,-630 2141.49,-630 2141.49,-594 1710.49,-594"/>
<text text-anchor="middle" x="1925.99" y="-608.3" font-family="Times,serif" font-size="14.00">call void @llvm.dbg.declare(metadata !{i32* %a}, metadata !12), !dbg !13</text>
</g>
<!-- Node0x39bc120&#45;&gt;Node0x39bc1b0 -->
<g id="edge27" class="edge"><title>Node0x39bc120&#45;&gt;Node0x39bc1b0</title>
<path fill="none" stroke="black" d="M1082.02,-683.353C1181.08,-677.476 1379.21,-665.127 1546.99,-651 1615.93,-645.195 1691.83,-637.787 1757.48,-631.057"/>
<polygon fill="black" stroke="black" points="1757.92,-634.53 1767.51,-630.026 1757.2,-627.567 1757.92,-634.53"/>
</g>
<!-- Node0x39bc370 -->
<g id="node23" class="node"><title>Node0x39bc370</title>
<polygon fill="none" stroke="black" points="2159.99,-594 2159.99,-630 2591.99,-630 2591.99,-594 2159.99,-594"/>
<text text-anchor="middle" x="2375.99" y="-608.3" font-family="Times,serif" font-size="14.00">call void @llvm.dbg.declare(metadata !{i32* %b}, metadata !14), !dbg !15</text>
</g>
<!-- Node0x39bc120&#45;&gt;Node0x39bc370 -->
<g id="edge28" class="edge"><title>Node0x39bc120&#45;&gt;Node0x39bc370</title>
<path fill="none" stroke="black" d="M1082.17,-684.537C1253.87,-677.701 1743.39,-657.252 2149.99,-631 2151.52,-630.901 2153.06,-630.801 2154.61,-630.699"/>
<polygon fill="black" stroke="black" points="2155.13,-634.172 2164.88,-630.015 2154.67,-627.188 2155.13,-634.172"/>
</g>
<!-- Node0x39bc2a0 -->
<g id="node24" class="node"><title>Node0x39bc2a0</title>
<polygon fill="none" stroke="black" points="2610.49,-594 2610.49,-630 3041.49,-630 3041.49,-594 2610.49,-594"/>
<text text-anchor="middle" x="2825.99" y="-608.3" font-family="Times,serif" font-size="14.00">call void @llvm.dbg.declare(metadata !{i32* %c}, metadata !16), !dbg !17</text>
</g>
<!-- Node0x39bc120&#45;&gt;Node0x39bc2a0 -->
<g id="edge29" class="edge"><title>Node0x39bc120&#45;&gt;Node0x39bc2a0</title>
<path fill="none" stroke="black" d="M1082.33,-685.769C1296.19,-681.396 2011.09,-665.019 2600.99,-631 2603.09,-630.879 2605.2,-630.755 2607.32,-630.628"/>
<polygon fill="black" stroke="black" points="2607.55,-634.121 2617.32,-630.016 2607.12,-627.134 2607.55,-634.121"/>
</g>
<!-- Node0x39bc4f0 -->
<g id="node25" class="node"><title>Node0x39bc4f0</title>
<polygon fill="none" stroke="black" points="3059.99,-594 3059.99,-630 3491.99,-630 3491.99,-594 3059.99,-594"/>
<text text-anchor="middle" x="3275.99" y="-608.3" font-family="Times,serif" font-size="14.00">call void @llvm.dbg.declare(metadata !{i32* %d}, metadata !18), !dbg !19</text>
</g>
<!-- Node0x39bc120&#45;&gt;Node0x39bc4f0 -->
<g id="edge30" class="edge"><title>Node0x39bc120&#45;&gt;Node0x39bc4f0</title>
<path fill="none" stroke="black" d="M1082.21,-686.452C1332.1,-684.033 2275.07,-672.514 3049.99,-631 3052.43,-630.869 3054.89,-630.734 3057.37,-630.594"/>
<polygon fill="black" stroke="black" points="3057.82,-634.074 3067.6,-630 3057.41,-627.086 3057.82,-634.074"/>
</g>
<!-- Node0x39bc560 -->
<g id="node26" class="node"><title>Node0x39bc560</title>
<polygon fill="none" stroke="black" points="3510.49,-594 3510.49,-630 3955.49,-630 3955.49,-594 3510.49,-594"/>
<text text-anchor="middle" x="3732.99" y="-608.3" font-family="Times,serif" font-size="14.00">call void @llvm.dbg.declare(metadata !{i32* %key}, metadata !20), !dbg !21</text>
</g>
<!-- Node0x39bc120&#45;&gt;Node0x39bc560 -->
<g id="edge31" class="edge"><title>Node0x39bc120&#45;&gt;Node0x39bc560</title>
<path fill="none" stroke="black" d="M1082.32,-686.869C1364.9,-686.012 2538.9,-679.553 3500.99,-631 3503.73,-630.862 3506.49,-630.718 3509.26,-630.569"/>
<polygon fill="black" stroke="black" points="3509.58,-634.057 3519.37,-630.01 3509.2,-627.068 3509.58,-634.057"/>
</g>
</g>
</svg>
