<?xml version="1.0" encoding="UTF-8" standalone="no"?>
<!DOCTYPE svg PUBLIC "-//W3C//DTD SVG 1.1//EN"
 "http://www.w3.org/Graphics/SVG/1.1/DTD/svg11.dtd">
<!-- Generated by graphviz version 2.36.0 (20140111.2315)
 -->
<!-- Title: Program Dependency Graph for &#39;main&#39; function Pages: 1 -->
<svg width="4488pt" height="1233pt"
 viewBox="0.00 0.00 4488.00 1233.00" xmlns="http://www.w3.org/2000/svg" xmlns:xlink="http://www.w3.org/1999/xlink">
<g id="graph0" class="graph" transform="scale(1 1) rotate(0) translate(4 1229)">
<title>Program Dependency Graph for &#39;main&#39; function</title>
<polygon fill="white" stroke="none" points="-4,4 -4,-1229 4484,-1229 4484,4 -4,4"/>
<text text-anchor="middle" x="2240" y="-7.8" font-family="Times,serif" font-size="14.00">Program Dependency Graph for &#39;main&#39; function</text>
<!-- Node0x2cf12e0 -->
<g id="node1" class="node"><title>Node0x2cf12e0</title>
<polygon fill="none" stroke="black" points="191.5,-1112 191.5,-1148 364.5,-1148 364.5,-1112 191.5,-1112"/>
<text text-anchor="middle" x="278" y="-1126.3" font-family="Times,serif" font-size="14.00">%retval = alloca i32, align 4</text>
</g>
<!-- Node0x2cf1af0 -->
<g id="node2" class="node"><title>Node0x2cf1af0</title>
<polygon fill="none" stroke="black" points="0,-1000 0,-1036 152,-1036 152,-1000 0,-1000"/>
<text text-anchor="middle" x="76" y="-1014.3" font-family="Times,serif" font-size="14.00">store i32 0, i32* %retval</text>
</g>
<!-- Node0x2cf12e0&#45;&gt;Node0x2cf1af0 -->
<g id="edge1" class="edge"><title>Node0x2cf12e0&#45;&gt;Node0x2cf1af0</title>
<path fill="none" stroke="black" stroke-dasharray="1,5" d="M236.713,-1111.89C223.825,-1106.22 209.671,-1099.65 197,-1093 167.037,-1077.27 134.37,-1057.1 110.539,-1041.79"/>
<polygon fill="black" stroke="black" points="112.16,-1038.67 101.862,-1036.18 108.36,-1044.55 112.16,-1038.67"/>
<text text-anchor="middle" x="233" y="-1070.3" font-family="Times,serif" font-size="14.00">{DEF_USE}</text>
</g>
<!-- Node0x2cf1b60 -->
<g id="node3" class="node"><title>Node0x2cf1b60</title>
<polygon fill="none" stroke="black" points="120.5,-910 120.5,-946 323.5,-946 323.5,-910 120.5,-910"/>
<text text-anchor="middle" x="222" y="-924.3" font-family="Times,serif" font-size="14.00">%3 = load i32* %retval, !dbg !46</text>
</g>
<!-- Node0x2cf12e0&#45;&gt;Node0x2cf1b60 -->
<g id="edge2" class="edge"><title>Node0x2cf12e0&#45;&gt;Node0x2cf1b60</title>
<path fill="none" stroke="black" stroke-dasharray="1,5" d="M277.057,-1111.75C275.957,-1096.62 273.657,-1074.11 269,-1055 260.363,-1019.56 244.759,-980.437 233.911,-955.335"/>
<polygon fill="black" stroke="black" points="237.092,-953.873 229.87,-946.121 230.681,-956.685 237.092,-953.873"/>
<text text-anchor="middle" x="300" y="-1014.3" font-family="Times,serif" font-size="14.00">{DEF_USE}</text>
</g>
<!-- Node0x2cf1af0&#45;&gt;Node0x2cf1b60 -->
<g id="edge3" class="edge"><title>Node0x2cf1af0&#45;&gt;Node0x2cf1b60</title>
<path fill="none" stroke="black" stroke-dasharray="1,5" d="M74.5242,-999.978C74.503,-988.698 76.4503,-974.315 85,-965 92.3845,-956.955 101.329,-950.617 111.071,-945.638"/>
<polygon fill="black" stroke="black" points="112.593,-948.79 120.22,-941.436 109.671,-942.429 112.593,-948.79"/>
<text text-anchor="middle" x="125.5" y="-969.3" font-family="Times,serif" font-size="14.00">{RAW} retval</text>
</g>
<!-- Node0x2cf2380 -->
<g id="node4" class="node"><title>Node0x2cf2380</title>
<polygon fill="none" stroke="black" points="259,-820 259,-856 387,-856 387,-820 259,-820"/>
<text text-anchor="middle" x="323" y="-834.3" font-family="Times,serif" font-size="14.00">ret i32 %3, !dbg !46</text>
</g>
<!-- Node0x2cf1b60&#45;&gt;Node0x2cf2380 -->
<g id="edge4" class="edge"><title>Node0x2cf1b60&#45;&gt;Node0x2cf2380</title>
<path fill="none" stroke="black" stroke-dasharray="1,5" d="M241.954,-909.614C257.27,-896.27 278.589,-877.694 295.518,-862.944"/>
<polygon fill="black" stroke="black" points="298.19,-865.259 303.431,-856.05 293.592,-859.981 298.19,-865.259"/>
<text text-anchor="middle" x="318" y="-879.3" font-family="Times,serif" font-size="14.00">{DEF_USE}</text>
</g>
<!-- Node0x2cf1c30 -->
<g id="node5" class="node"><title>Node0x2cf1c30</title>
<polygon fill="none" stroke="black" points="534.5,-820 534.5,-856 683.5,-856 683.5,-820 534.5,-820"/>
<text text-anchor="middle" x="609" y="-834.3" font-family="Times,serif" font-size="14.00">%a = alloca i32, align 4</text>
</g>
<!-- Node0x2cf1ca0 -->
<g id="node6" class="node"><title>Node0x2cf1ca0</title>
<polygon fill="none" stroke="black" points="611.5,-640 611.5,-676 834.5,-676 834.5,-640 611.5,-640"/>
<text text-anchor="middle" x="723" y="-654.3" font-family="Times,serif" font-size="14.00">%0 = load i32* %a, align 4, !dbg !23</text>
</g>
<!-- Node0x2cf1c30&#45;&gt;Node0x2cf1ca0 -->
<g id="edge5" class="edge"><title>Node0x2cf1c30&#45;&gt;Node0x2cf1ca0</title>
<path fill="none" stroke="black" stroke-dasharray="1,5" d="M611.474,-819.671C615.313,-797.24 624.299,-757.638 643,-729 654.944,-710.709 672.946,-694.368 688.85,-682.083"/>
<polygon fill="black" stroke="black" points="691.019,-684.831 696.932,-676.04 686.828,-679.225 691.019,-684.831"/>
<text text-anchor="middle" x="679" y="-744.3" font-family="Times,serif" font-size="14.00">{DEF_USE}</text>
</g>
<!-- Node0x2cf1bd0 -->
<g id="node7" class="node"><title>Node0x2cf1bd0</title>
<polygon fill="none" stroke="black" points="581.5,-370 581.5,-406 808.5,-406 808.5,-370 581.5,-370"/>
<text text-anchor="middle" x="695" y="-384.3" font-family="Times,serif" font-size="14.00">store i32 2, i32* %a, align 4, !dbg !25</text>
</g>
<!-- Node0x2cf1c30&#45;&gt;Node0x2cf1bd0 -->
<g id="edge6" class="edge"><title>Node0x2cf1c30&#45;&gt;Node0x2cf1bd0</title>
<path fill="none" stroke="black" stroke-dasharray="1,5" d="M607.996,-819.724C606.348,-790.395 603.137,-728.982 602,-677 601.631,-660.115 597.994,-655.407 602,-639 608.176,-613.702 618.851,-610.982 629,-587 654.235,-527.369 676.399,-454.51 687.484,-415.946"/>
<polygon fill="black" stroke="black" points="690.938,-416.594 690.309,-406.018 684.205,-414.678 690.938,-416.594"/>
<text text-anchor="middle" x="656" y="-609.3" font-family="Times,serif" font-size="14.00">{DEF_USE}</text>
</g>
<!-- Node0x2cf1dd0 -->
<g id="node8" class="node"><title>Node0x2cf1dd0</title>
<polygon fill="none" stroke="black" points="757.5,-730 757.5,-766 984.5,-766 984.5,-730 757.5,-730"/>
<text text-anchor="middle" x="871" y="-744.3" font-family="Times,serif" font-size="14.00">store i32 2, i32* %a, align 4, !dbg !34</text>
</g>
<!-- Node0x2cf1c30&#45;&gt;Node0x2cf1dd0 -->
<g id="edge7" class="edge"><title>Node0x2cf1c30&#45;&gt;Node0x2cf1dd0</title>
<path fill="none" stroke="black" stroke-dasharray="1,5" d="M659.827,-819.928C703.034,-805.416 765.147,-784.554 810.829,-769.21"/>
<polygon fill="black" stroke="black" points="811.949,-772.526 820.315,-766.024 809.721,-765.89 811.949,-772.526"/>
<text text-anchor="middle" x="800" y="-789.3" font-family="Times,serif" font-size="14.00">{DEF_USE}</text>
</g>
<!-- Node0x2cf1da0 -->
<g id="node9" class="node"><title>Node0x2cf1da0</title>
<polygon fill="none" stroke="black" points="540.5,-280 540.5,-316 763.5,-316 763.5,-280 540.5,-280"/>
<text text-anchor="middle" x="652" y="-294.3" font-family="Times,serif" font-size="14.00">%2 = load i32* %a, align 4, !dbg !39</text>
</g>
<!-- Node0x2cf1c30&#45;&gt;Node0x2cf1da0 -->
<g id="edge8" class="edge"><title>Node0x2cf1c30&#45;&gt;Node0x2cf1da0</title>
<path fill="none" stroke="black" stroke-dasharray="1,5" d="M603.806,-819.945C591.89,-779.814 562.855,-676.08 553,-587 549.921,-559.17 553,-552 553,-524 553,-524 553,-524 553,-387 553,-357.712 577.503,-335.785 602.128,-321.144"/>
<polygon fill="black" stroke="black" points="604.151,-324.023 611.161,-316.079 600.727,-317.917 604.151,-324.023"/>
<text text-anchor="middle" x="589" y="-564.3" font-family="Times,serif" font-size="14.00">{DEF_USE}</text>
</g>
<!-- Node0x2cf3b70 -->
<g id="node10" class="node"><title>Node0x2cf3b70</title>
<polygon fill="none" stroke="black" points="865.5,-550 865.5,-586 1100.5,-586 1100.5,-550 865.5,-550"/>
<text text-anchor="middle" x="983" y="-564.3" font-family="Times,serif" font-size="14.00">%tobool = icmp ne i32 %0, 0, !dbg !23</text>
</g>
<!-- Node0x2cf1ca0&#45;&gt;Node0x2cf3b70 -->
<g id="edge9" class="edge"><title>Node0x2cf1ca0&#45;&gt;Node0x2cf3b70</title>
<path fill="none" stroke="black" stroke-dasharray="1,5" d="M773.439,-639.928C816.226,-625.447 877.697,-604.641 923.003,-589.307"/>
<polygon fill="black" stroke="black" points="924.351,-592.545 932.701,-586.024 922.107,-585.915 924.351,-592.545"/>
<text text-anchor="middle" x="913" y="-609.3" font-family="Times,serif" font-size="14.00">{DEF_USE}</text>
</g>
<!-- Node0x2cf1bd0&#45;&gt;Node0x2cf1ca0 -->
<g id="edge10" class="edge"><title>Node0x2cf1bd0&#45;&gt;Node0x2cf1ca0</title>
<path fill="none" stroke="black" stroke-dasharray="1,5" d="M696.779,-406.029C701.503,-451.246 714.394,-574.624 720.153,-629.755"/>
<polygon fill="black" stroke="black" points="716.686,-630.246 721.206,-639.828 723.648,-629.518 716.686,-630.246"/>
<text text-anchor="middle" x="738" y="-519.3" font-family="Times,serif" font-size="14.00">{RAW} a</text>
</g>
<!-- Node0x2cf1bd0&#45;&gt;Node0x2cf1da0 -->
<g id="edge11" class="edge"><title>Node0x2cf1bd0&#45;&gt;Node0x2cf1da0</title>
<path fill="none" stroke="black" stroke-dasharray="1,5" d="M686.505,-369.614C680.34,-356.998 671.89,-339.705 664.895,-325.391"/>
<polygon fill="black" stroke="black" points="667.866,-323.499 660.331,-316.05 661.577,-326.572 667.866,-323.499"/>
<text text-anchor="middle" x="706" y="-339.3" font-family="Times,serif" font-size="14.00">{RAW} a</text>
</g>
<!-- Node0x2cf1dd0&#45;&gt;Node0x2cf1ca0 -->
<g id="edge12" class="edge"><title>Node0x2cf1dd0&#45;&gt;Node0x2cf1ca0</title>
<path fill="none" stroke="black" stroke-dasharray="1,5" d="M829.703,-729.862C817.61,-724.335 804.543,-717.851 793,-711 778.826,-702.587 764.047,-691.925 751.741,-682.448"/>
<polygon fill="black" stroke="black" points="753.687,-679.526 743.655,-676.118 749.372,-685.038 753.687,-679.526"/>
<text text-anchor="middle" x="821" y="-699.3" font-family="Times,serif" font-size="14.00">{RAW} a</text>
</g>
<!-- Node0x2cf1dd0&#45;&gt;Node0x2cf1da0 -->
<g id="edge13" class="edge"><title>Node0x2cf1dd0&#45;&gt;Node0x2cf1da0</title>
<path fill="none" stroke="black" stroke-dasharray="1,5" d="M866.555,-729.787C857.339,-692.536 837,-601.542 837,-524 837,-524 837,-524 837,-387 837,-351.004 808.086,-329.716 773.12,-317.132"/>
<polygon fill="black" stroke="black" points="774.211,-313.806 763.617,-313.963 771.996,-320.447 774.211,-313.806"/>
<text text-anchor="middle" x="866" y="-519.3" font-family="Times,serif" font-size="14.00">{RAW} a</text>
</g>
<!-- Node0x2cf26c0 -->
<g id="node11" class="node"><title>Node0x2cf26c0</title>
<polygon fill="none" stroke="black" points="531,-190 531,-226 773,-226 773,-190 531,-190"/>
<text text-anchor="middle" x="652" y="-204.3" font-family="Times,serif" font-size="14.00">%tobool6 = icmp ne i32 %2, 0, !dbg !39</text>
</g>
<!-- Node0x2cf1da0&#45;&gt;Node0x2cf26c0 -->
<g id="edge14" class="edge"><title>Node0x2cf1da0&#45;&gt;Node0x2cf26c0</title>
<path fill="none" stroke="black" stroke-dasharray="1,5" d="M652,-279.614C652,-267.24 652,-250.369 652,-236.22"/>
<polygon fill="black" stroke="black" points="655.5,-236.05 652,-226.05 648.5,-236.05 655.5,-236.05"/>
<text text-anchor="middle" x="688" y="-249.3" font-family="Times,serif" font-size="14.00">{DEF_USE}</text>
</g>
<!-- Node0x2cf3be0 -->
<g id="node26" class="node"><title>Node0x2cf3be0</title>
<polygon fill="none" stroke="black" points="1037,-460 1037,-496 1351,-496 1351,-460 1037,-460"/>
<text text-anchor="middle" x="1194" y="-474.3" font-family="Times,serif" font-size="14.00">br i1 %tobool, label %if.then, label %if.else, !dbg !23</text>
</g>
<!-- Node0x2cf3b70&#45;&gt;Node0x2cf3be0 -->
<g id="edge25" class="edge"><title>Node0x2cf3b70&#45;&gt;Node0x2cf3be0</title>
<path fill="none" stroke="black" stroke-dasharray="1,5" d="M998.704,-549.576C1009.96,-538.116 1026.08,-523.684 1043,-515 1055.35,-508.664 1068.84,-503.42 1082.51,-499.086"/>
<polygon fill="black" stroke="black" points="1083.92,-502.318 1092.49,-496.088 1081.91,-495.614 1083.92,-502.318"/>
<text text-anchor="middle" x="1079" y="-519.3" font-family="Times,serif" font-size="14.00">{DEF_USE}</text>
</g>
<!-- Node0x2cf2730 -->
<g id="node32" class="node"><title>Node0x2cf2730</title>
<polygon fill="none" stroke="black" points="895,-100 895,-136 1229,-136 1229,-100 895,-100"/>
<text text-anchor="middle" x="1062" y="-114.3" font-family="Times,serif" font-size="14.00">br i1 %tobool6, label %if.then7, label %if.else8, !dbg !39</text>
</g>
<!-- Node0x2cf26c0&#45;&gt;Node0x2cf2730 -->
<g id="edge37" class="edge"><title>Node0x2cf26c0&#45;&gt;Node0x2cf2730</title>
<path fill="none" stroke="black" stroke-dasharray="1,5" d="M731.538,-189.928C800.708,-175.082 900.841,-153.59 972.733,-138.16"/>
<polygon fill="black" stroke="black" points="973.64,-141.545 982.683,-136.024 972.171,-134.701 973.64,-141.545"/>
<text text-anchor="middle" x="930" y="-159.3" font-family="Times,serif" font-size="14.00">{DEF_USE}</text>
</g>
<!-- Node0x2cf1ed0 -->
<g id="node12" class="node"><title>Node0x2cf1ed0</title>
<polygon fill="none" stroke="black" points="1312.5,-820 1312.5,-856 1461.5,-856 1461.5,-820 1312.5,-820"/>
<text text-anchor="middle" x="1387" y="-834.3" font-family="Times,serif" font-size="14.00">%b = alloca i32, align 4</text>
</g>
<!-- Node0x2cf1fd0 -->
<g id="node13" class="node"><title>Node0x2cf1fd0</title>
<polygon fill="none" stroke="black" points="865.5,-370 865.5,-406 1092.5,-406 1092.5,-370 865.5,-370"/>
<text text-anchor="middle" x="979" y="-384.3" font-family="Times,serif" font-size="14.00">store i32 3, i32* %b, align 4, !dbg !27</text>
</g>
<!-- Node0x2cf1ed0&#45;&gt;Node0x2cf1fd0 -->
<g id="edge15" class="edge"><title>Node0x2cf1ed0&#45;&gt;Node0x2cf1fd0</title>
<path fill="none" stroke="black" stroke-dasharray="1,5" d="M1312.21,-821.822C1248.43,-806.663 1167,-781.035 1167,-749 1167,-749 1167,-749 1167,-612 1167,-573.941 1142.09,-567.795 1109,-549 1075.04,-529.715 1051.88,-557.283 1023,-531 990.587,-501.504 981.815,-448.662 979.582,-416.422"/>
<polygon fill="black" stroke="black" points="983.072,-416.144 979.051,-406.342 976.082,-416.512 983.072,-416.144"/>
<text text-anchor="middle" x="1203" y="-609.3" font-family="Times,serif" font-size="14.00">{DEF_USE}</text>
</g>
<!-- Node0x2cf2040 -->
<g id="node14" class="node"><title>Node0x2cf2040</title>
<polygon fill="none" stroke="black" points="1635.5,-730 1635.5,-766 1862.5,-766 1862.5,-730 1635.5,-730"/>
<text text-anchor="middle" x="1749" y="-744.3" font-family="Times,serif" font-size="14.00">store i32 3, i32* %b, align 4, !dbg !37</text>
</g>
<!-- Node0x2cf1ed0&#45;&gt;Node0x2cf2040 -->
<g id="edge16" class="edge"><title>Node0x2cf1ed0&#45;&gt;Node0x2cf2040</title>
<path fill="none" stroke="black" stroke-dasharray="1,5" d="M1461.71,-830.003C1508.12,-824.554 1568.7,-815.433 1621,-801 1649.37,-793.17 1679.96,-780.899 1704.11,-770.243"/>
<polygon fill="black" stroke="black" points="1705.67,-773.379 1713.37,-766.099 1702.81,-766.989 1705.67,-773.379"/>
<text text-anchor="middle" x="1703" y="-789.3" font-family="Times,serif" font-size="14.00">{DEF_USE}</text>
</g>
<!-- Node0x2cf20e0 -->
<g id="node15" class="node"><title>Node0x2cf20e0</title>
<polygon fill="none" stroke="black" points="1277.5,-24 1277.5,-60 1504.5,-60 1504.5,-24 1277.5,-24"/>
<text text-anchor="middle" x="1391" y="-38.3" font-family="Times,serif" font-size="14.00">store i32 4, i32* %b, align 4, !dbg !41</text>
</g>
<!-- Node0x2cf1ed0&#45;&gt;Node0x2cf20e0 -->
<g id="edge17" class="edge"><title>Node0x2cf1ed0&#45;&gt;Node0x2cf20e0</title>
<path fill="none" stroke="black" stroke-dasharray="1,5" d="M1461.79,-821.822C1525.57,-806.663 1607,-781.035 1607,-749 1607,-749 1607,-749 1607,-477 1607,-453.85 1591.26,-444.326 1604,-425 1615.18,-408.045 1632.36,-422.043 1646,-407 1665.74,-385.24 1666,-373.377 1666,-344 1666,-344 1666,-344 1666,-117 1666,-83.2965 1588,-64.5032 1515.08,-54.2981"/>
<polygon fill="black" stroke="black" points="1515.22,-50.7842 1504.84,-52.9145 1514.28,-57.7213 1515.22,-50.7842"/>
<text text-anchor="middle" x="1640" y="-429.3" font-family="Times,serif" font-size="14.00">{DEF_USE}</text>
</g>
<!-- Node0x2cf20b0 -->
<g id="node16" class="node"><title>Node0x2cf20b0</title>
<polygon fill="none" stroke="black" points="1714.5,-460 1714.5,-496 1863.5,-496 1863.5,-460 1714.5,-460"/>
<text text-anchor="middle" x="1789" y="-474.3" font-family="Times,serif" font-size="14.00">%c = alloca i32, align 4</text>
</g>
<!-- Node0x2cf2190 -->
<g id="node17" class="node"><title>Node0x2cf2190</title>
<polygon fill="none" stroke="black" points="1410.5,-370 1410.5,-406 1637.5,-406 1637.5,-370 1410.5,-370"/>
<text text-anchor="middle" x="1524" y="-384.3" font-family="Times,serif" font-size="14.00">store i32 4, i32* %c, align 4, !dbg !29</text>
</g>
<!-- Node0x2cf20b0&#45;&gt;Node0x2cf2190 -->
<g id="edge18" class="edge"><title>Node0x2cf20b0&#45;&gt;Node0x2cf2190</title>
<path fill="none" stroke="black" stroke-dasharray="1,5" d="M1743.08,-459.879C1729.87,-454.397 1715.63,-447.933 1703,-441 1692.08,-435.007 1691.38,-430.047 1680,-425 1665.38,-418.516 1649.44,-413.128 1633.53,-408.671"/>
<polygon fill="black" stroke="black" points="1634.2,-405.227 1623.63,-406.015 1632.38,-411.988 1634.2,-405.227"/>
<text text-anchor="middle" x="1739" y="-429.3" font-family="Times,serif" font-size="14.00">{DEF_USE}</text>
</g>
<!-- Node0x2cf2200 -->
<g id="node18" class="node"><title>Node0x2cf2200</title>
<polygon fill="none" stroke="black" points="1583.5,-24 1583.5,-60 1810.5,-60 1810.5,-24 1583.5,-24"/>
<text text-anchor="middle" x="1697" y="-38.3" font-family="Times,serif" font-size="14.00">store i32 5, i32* %c, align 4, !dbg !44</text>
</g>
<!-- Node0x2cf20b0&#45;&gt;Node0x2cf2200 -->
<g id="edge19" class="edge"><title>Node0x2cf20b0&#45;&gt;Node0x2cf2200</title>
<path fill="none" stroke="black" stroke-dasharray="1,5" d="M1789,-459.801C1789,-442.062 1789,-413.597 1789,-389 1789,-389 1789,-389 1789,-117 1789,-93.9663 1771.27,-76.8958 1751.38,-64.9915"/>
<polygon fill="black" stroke="black" points="1752.9,-61.8325 1742.46,-60.0434 1749.51,-67.9542 1752.9,-61.8325"/>
<text text-anchor="middle" x="1825" y="-249.3" font-family="Times,serif" font-size="14.00">{DEF_USE}</text>
</g>
<!-- Node0x2cf22a0 -->
<g id="node19" class="node"><title>Node0x2cf22a0</title>
<polygon fill="none" stroke="black" points="2176.5,-1056 2176.5,-1092 2325.5,-1092 2325.5,-1056 2176.5,-1056"/>
<text text-anchor="middle" x="2251" y="-1070.3" font-family="Times,serif" font-size="14.00">%d = alloca i32, align 4</text>
</g>
<!-- Node0x2cf2310 -->
<g id="node20" class="node"><title>Node0x2cf2310</title>
<polygon fill="none" stroke="black" points="1977.5,-370 1977.5,-406 2204.5,-406 2204.5,-370 1977.5,-370"/>
<text text-anchor="middle" x="2091" y="-384.3" font-family="Times,serif" font-size="14.00">store i32 5, i32* %d, align 4, !dbg !31</text>
</g>
<!-- Node0x2cf22a0&#45;&gt;Node0x2cf2310 -->
<g id="edge20" class="edge"><title>Node0x2cf22a0&#45;&gt;Node0x2cf2310</title>
<path fill="none" stroke="black" stroke-dasharray="1,5" d="M2251,-1055.83C2251,-1036.09 2251,-1002.7 2251,-974 2251,-974 2251,-974 2251,-477 2251,-443.385 2223.55,-422.52 2191.39,-409.609"/>
<polygon fill="black" stroke="black" points="2192.34,-406.229 2181.75,-406.013 2189.9,-412.787 2192.34,-406.229"/>
<text text-anchor="middle" x="2287" y="-744.3" font-family="Times,serif" font-size="14.00">{DEF_USE}</text>
</g>
<!-- Node0x2cf1f40 -->
<g id="node21" class="node"><title>Node0x2cf1f40</title>
<polygon fill="none" stroke="black" points="1300.5,-1112 1300.5,-1148 1469.5,-1148 1469.5,-1112 1300.5,-1112"/>
<text text-anchor="middle" x="1385" y="-1126.3" font-family="Times,serif" font-size="14.00">%key1 = alloca i32, align 4</text>
</g>
<!-- Node0x2cf2490 -->
<g id="node22" class="node"><title>Node0x2cf2490</title>
<polygon fill="none" stroke="black" points="973,-1000 973,-1036 1245,-1036 1245,-1000 973,-1000"/>
<text text-anchor="middle" x="1109" y="-1014.3" font-family="Times,serif" font-size="14.00">%key11 = bitcast i32* %key1 to i8*, !dbg !22</text>
</g>
<!-- Node0x2cf1f40&#45;&gt;Node0x2cf2490 -->
<g id="edge21" class="edge"><title>Node0x2cf1f40&#45;&gt;Node0x2cf2490</title>
<path fill="none" stroke="black" stroke-dasharray="1,5" d="M1342.18,-1111.93C1293.43,-1092.5 1213.78,-1060.76 1161.38,-1039.88"/>
<polygon fill="black" stroke="black" points="1162.51,-1036.56 1151.92,-1036.11 1159.92,-1043.06 1162.51,-1036.56"/>
<text text-anchor="middle" x="1323" y="-1070.3" font-family="Times,serif" font-size="14.00">{DEF_USE}</text>
</g>
<!-- Node0x2cf2500 -->
<g id="node23" class="node"><title>Node0x2cf2500</title>
<polygon fill="none" stroke="black" points="1525.5,-1000 1525.5,-1036 1768.5,-1036 1768.5,-1000 1525.5,-1000"/>
<text text-anchor="middle" x="1647" y="-1014.3" font-family="Times,serif" font-size="14.00">%1 = load i32* %key1, align 4, !dbg !32</text>
</g>
<!-- Node0x2cf1f40&#45;&gt;Node0x2cf2500 -->
<g id="edge22" class="edge"><title>Node0x2cf1f40&#45;&gt;Node0x2cf2500</title>
<path fill="none" stroke="black" stroke-dasharray="1,5" d="M1408.19,-1111.71C1431.55,-1095.04 1469.16,-1070.17 1505,-1055 1519.84,-1048.72 1536.03,-1043.34 1551.99,-1038.81"/>
<polygon fill="black" stroke="black" points="1553.17,-1042.11 1561.89,-1036.09 1551.32,-1035.36 1553.17,-1042.11"/>
<text text-anchor="middle" x="1541" y="-1070.3" font-family="Times,serif" font-size="14.00">{DEF_USE}</text>
</g>
<!-- Node0x2cf25a0 -->
<g id="node24" class="node"><title>Node0x2cf25a0</title>
<polygon fill="none" stroke="black" points="871.5,-910 871.5,-946 1878.5,-946 1878.5,-910 871.5,-910"/>
<text text-anchor="middle" x="1375" y="-924.3" font-family="Times,serif" font-size="14.00">call void @llvm.var.annotation(i8* %key11, i8* getelementptr inbounds ([10 x i8]* @.str, i32 0, i32 0), i8* getelementptr inbounds ([6 x i8]* @.str1, i32 0, i32 0), i32 4), !dbg !22</text>
</g>
<!-- Node0x2cf2490&#45;&gt;Node0x2cf25a0 -->
<g id="edge23" class="edge"><title>Node0x2cf2490&#45;&gt;Node0x2cf25a0</title>
<path fill="none" stroke="black" stroke-dasharray="1,5" d="M1129.54,-999.963C1144.56,-988.376 1165.91,-973.633 1187,-965 1203.35,-958.307 1221.01,-952.841 1238.74,-948.382"/>
<polygon fill="black" stroke="black" points="1239.69,-951.754 1248.59,-946.006 1238.05,-944.949 1239.69,-951.754"/>
<text text-anchor="middle" x="1223" y="-969.3" font-family="Times,serif" font-size="14.00">{DEF_USE}</text>
</g>
<!-- Node0x2cf3e40 -->
<g id="node25" class="node"><title>Node0x2cf3e40</title>
<polygon fill="none" stroke="black" points="1897,-910 1897,-946 2139,-946 2139,-910 1897,-910"/>
<text text-anchor="middle" x="2018" y="-924.3" font-family="Times,serif" font-size="14.00">%tobool2 = icmp ne i32 %1, 0, !dbg !32</text>
</g>
<!-- Node0x2cf2500&#45;&gt;Node0x2cf3e40 -->
<g id="edge24" class="edge"><title>Node0x2cf2500&#45;&gt;Node0x2cf3e40</title>
<path fill="none" stroke="black" stroke-dasharray="1,5" d="M1718.97,-999.928C1781.31,-985.143 1871.43,-963.766 1936.42,-948.349"/>
<polygon fill="black" stroke="black" points="1937.31,-951.738 1946.23,-946.024 1935.69,-944.927 1937.31,-951.738"/>
<text text-anchor="middle" x="1901" y="-969.3" font-family="Times,serif" font-size="14.00">{DEF_USE}</text>
</g>
<!-- Node0x2cf3eb0 -->
<g id="node29" class="node"><title>Node0x2cf3eb0</title>
<polygon fill="none" stroke="black" points="1807,-820 1807,-856 2141,-856 2141,-820 1807,-820"/>
<text text-anchor="middle" x="1974" y="-834.3" font-family="Times,serif" font-size="14.00">br i1 %tobool2, label %if.then3, label %if.else4, !dbg !32</text>
</g>
<!-- Node0x2cf3e40&#45;&gt;Node0x2cf3eb0 -->
<g id="edge32" class="edge"><title>Node0x2cf3e40&#45;&gt;Node0x2cf3eb0</title>
<path fill="none" stroke="black" stroke-dasharray="1,5" d="M2009.31,-909.614C2003,-896.998 1994.35,-879.705 1987.2,-865.391"/>
<polygon fill="black" stroke="black" points="1990.13,-863.429 1982.53,-856.05 1983.87,-866.56 1990.13,-863.429"/>
<text text-anchor="middle" x="2035" y="-879.3" font-family="Times,serif" font-size="14.00">{DEF_USE}</text>
</g>
<!-- Node0x2cf3be0&#45;&gt;Node0x2cf1bd0 -->
<g id="edge26" class="edge"><title>Node0x2cf3be0&#45;&gt;Node0x2cf1bd0</title>
<path fill="none" stroke="black" d="M1097.49,-459.981C1012.65,-445.019 889.367,-423.277 801.632,-407.805"/>
<polygon fill="black" stroke="black" points="802.107,-404.335 791.651,-406.045 800.891,-411.228 802.107,-404.335"/>
</g>
<!-- Node0x2cf3be0&#45;&gt;Node0x2cf1fd0 -->
<g id="edge27" class="edge"><title>Node0x2cf3be0&#45;&gt;Node0x2cf1fd0</title>
<path fill="none" stroke="black" d="M1152.29,-459.928C1117.43,-445.659 1067.57,-425.25 1030.27,-409.985"/>
<polygon fill="black" stroke="black" points="1031.17,-406.573 1020.59,-406.024 1028.52,-413.051 1031.17,-406.573"/>
</g>
<!-- Node0x2cf3be0&#45;&gt;Node0x2cf2190 -->
<g id="edge29" class="edge"><title>Node0x2cf3be0&#45;&gt;Node0x2cf2190</title>
<path fill="none" stroke="black" d="M1258.02,-459.928C1313.12,-445.234 1392.64,-424.029 1450.37,-408.635"/>
<polygon fill="black" stroke="black" points="1451.4,-411.983 1460.16,-406.024 1449.6,-405.219 1451.4,-411.983"/>
</g>
<!-- Node0x2cf3be0&#45;&gt;Node0x2cf2310 -->
<g id="edge30" class="edge"><title>Node0x2cf3be0&#45;&gt;Node0x2cf2310</title>
<path fill="none" stroke="black" d="M1307.99,-459.968C1385.87,-448.793 1491.5,-434.535 1585,-425 1715.15,-411.728 1864.64,-401.737 1967.2,-395.688"/>
<polygon fill="black" stroke="black" points="1967.51,-399.176 1977.28,-395.097 1967.1,-392.188 1967.51,-399.176"/>
</g>
<!-- Node0x2cf3c80 -->
<g id="node27" class="node"><title>Node0x2cf3c80</title>
<polygon fill="none" stroke="black" points="1110.5,-370 1110.5,-406 1269.5,-406 1269.5,-370 1110.5,-370"/>
<text text-anchor="middle" x="1190" y="-384.3" font-family="Times,serif" font-size="14.00">br label %if.end, !dbg !28</text>
</g>
<!-- Node0x2cf3be0&#45;&gt;Node0x2cf3c80 -->
<g id="edge28" class="edge"><title>Node0x2cf3be0&#45;&gt;Node0x2cf3c80</title>
<path fill="none" stroke="black" d="M1193.21,-459.614C1192.65,-447.24 1191.88,-430.369 1191.24,-416.22"/>
<polygon fill="black" stroke="black" points="1194.73,-415.881 1190.78,-406.05 1187.73,-416.199 1194.73,-415.881"/>
</g>
<!-- Node0x2cf3c50 -->
<g id="node28" class="node"><title>Node0x2cf3c50</title>
<polygon fill="none" stroke="black" points="1287.5,-370 1287.5,-406 1392.5,-406 1392.5,-370 1287.5,-370"/>
<text text-anchor="middle" x="1340" y="-384.3" font-family="Times,serif" font-size="14.00">br label %if.end</text>
</g>
<!-- Node0x2cf3be0&#45;&gt;Node0x2cf3c50 -->
<g id="edge31" class="edge"><title>Node0x2cf3be0&#45;&gt;Node0x2cf3c50</title>
<path fill="none" stroke="black" d="M1222.5,-459.824C1245.41,-446.014 1277.78,-426.503 1302.74,-411.456"/>
<polygon fill="black" stroke="black" points="1304.82,-414.293 1311.58,-406.133 1301.2,-408.298 1304.82,-414.293"/>
</g>
<!-- Node0x2cf3eb0&#45;&gt;Node0x2cf1dd0 -->
<g id="edge33" class="edge"><title>Node0x2cf3eb0&#45;&gt;Node0x2cf1dd0</title>
<path fill="none" stroke="black" d="M1806.78,-823.659C1583.68,-805.86 1193.79,-774.753 995.073,-758.899"/>
<polygon fill="black" stroke="black" points="995.13,-755.392 984.884,-758.086 994.574,-762.37 995.13,-755.392"/>
</g>
<!-- Node0x2cf3eb0&#45;&gt;Node0x2cf2040 -->
<g id="edge35" class="edge"><title>Node0x2cf3eb0&#45;&gt;Node0x2cf2040</title>
<path fill="none" stroke="black" d="M1930.35,-819.928C1893.71,-805.598 1841.24,-785.076 1802.16,-769.791"/>
<polygon fill="black" stroke="black" points="1803.12,-766.407 1792.53,-766.024 1800.57,-772.926 1803.12,-766.407"/>
</g>
<!-- Node0x2cf3f20 -->
<g id="node30" class="node"><title>Node0x2cf3f20</title>
<polygon fill="none" stroke="black" points="2011,-730 2011,-766 2177,-766 2177,-730 2011,-730"/>
<text text-anchor="middle" x="2094" y="-744.3" font-family="Times,serif" font-size="14.00">br label %if.end5, !dbg !36</text>
</g>
<!-- Node0x2cf3eb0&#45;&gt;Node0x2cf3f20 -->
<g id="edge34" class="edge"><title>Node0x2cf3eb0&#45;&gt;Node0x2cf3f20</title>
<path fill="none" stroke="black" d="M1997.42,-819.824C2016.01,-806.196 2042.16,-787.016 2062.57,-772.052"/>
<polygon fill="black" stroke="black" points="2064.64,-774.869 2070.64,-766.133 2060.5,-769.224 2064.64,-774.869"/>
</g>
<!-- Node0x2cf3f50 -->
<g id="node31" class="node"><title>Node0x2cf3f50</title>
<polygon fill="none" stroke="black" points="1881,-730 1881,-766 1993,-766 1993,-730 1881,-730"/>
<text text-anchor="middle" x="1937" y="-744.3" font-family="Times,serif" font-size="14.00">br label %if.end5</text>
</g>
<!-- Node0x2cf3eb0&#45;&gt;Node0x2cf3f50 -->
<g id="edge36" class="edge"><title>Node0x2cf3eb0&#45;&gt;Node0x2cf3f50</title>
<path fill="none" stroke="black" d="M1966.69,-819.614C1961.39,-806.998 1954.11,-789.705 1948.1,-775.391"/>
<polygon fill="black" stroke="black" points="1951.27,-773.912 1944.17,-766.05 1944.82,-776.625 1951.27,-773.912"/>
</g>
<!-- Node0x2cf2730&#45;&gt;Node0x2cf20e0 -->
<g id="edge38" class="edge"><title>Node0x2cf2730&#45;&gt;Node0x2cf20e0</title>
<path fill="none" stroke="black" d="M1137.89,-99.93C1187.9,-88.6822 1253.48,-73.9319 1305.35,-62.2639"/>
<polygon fill="black" stroke="black" points="1306.22,-65.6573 1315.2,-60.0481 1304.68,-58.8279 1306.22,-65.6573"/>
</g>
<!-- Node0x2cf2730&#45;&gt;Node0x2cf2200 -->
<g id="edge40" class="edge"><title>Node0x2cf2730&#45;&gt;Node0x2cf2200</title>
<path fill="none" stroke="black" d="M1208.08,-99.9765C1318.59,-87.098 1468.67,-69.608 1573.29,-57.4162"/>
<polygon fill="black" stroke="black" points="1573.75,-60.8873 1583.27,-56.2532 1572.94,-53.9343 1573.75,-60.8873"/>
</g>
<!-- Node0x2cf27e0 -->
<g id="node33" class="node"><title>Node0x2cf27e0</title>
<polygon fill="none" stroke="black" points="901,-24 901,-60 1067,-60 1067,-24 901,-24"/>
<text text-anchor="middle" x="984" y="-38.3" font-family="Times,serif" font-size="14.00">br label %if.end9, !dbg !43</text>
</g>
<!-- Node0x2cf2730&#45;&gt;Node0x2cf27e0 -->
<g id="edge39" class="edge"><title>Node0x2cf2730&#45;&gt;Node0x2cf27e0</title>
<path fill="none" stroke="black" d="M1043.91,-99.8369C1033.67,-90.1236 1020.7,-77.8206 1009.45,-67.1472"/>
<polygon fill="black" stroke="black" points="1011.66,-64.4135 1001.99,-60.07 1006.84,-69.4918 1011.66,-64.4135"/>
</g>
<!-- Node0x2cf2850 -->
<g id="node34" class="node"><title>Node0x2cf2850</title>
<polygon fill="none" stroke="black" points="1085,-24 1085,-60 1197,-60 1197,-24 1085,-24"/>
<text text-anchor="middle" x="1141" y="-38.3" font-family="Times,serif" font-size="14.00">br label %if.end9</text>
</g>
<!-- Node0x2cf2730&#45;&gt;Node0x2cf2850 -->
<g id="edge41" class="edge"><title>Node0x2cf2730&#45;&gt;Node0x2cf2850</title>
<path fill="none" stroke="black" d="M1080.32,-99.8369C1090.69,-90.1236 1103.83,-77.8206 1115.22,-67.1472"/>
<polygon fill="black" stroke="black" points="1117.87,-69.4608 1122.78,-60.07 1113.09,-64.352 1117.87,-69.4608"/>
</g>
<!-- Node0x2cf23f0 -->
<g id="node35" class="node"><title>Node0x2cf23f0</title>
<polygon fill="none" stroke="black" points="1046,-1188 1046,-1224 1172,-1224 1172,-1188 1046,-1188"/>
<text text-anchor="middle" x="1109" y="-1202.3" font-family="Times,serif" font-size="14.00">&lt;&lt;ENTRY&gt;&gt; main</text>
</g>
<!-- Node0x2cf23f0&#45;&gt;Node0x2cf12e0 -->
<g id="edge42" class="edge"><title>Node0x2cf23f0&#45;&gt;Node0x2cf12e0</title>
<path fill="none" stroke="black" d="M1045.72,-1204.39C892.614,-1202.51 505.496,-1195.24 379,-1169 360.752,-1165.21 341.435,-1158.63 324.635,-1152"/>
<polygon fill="black" stroke="black" points="325.644,-1148.63 315.062,-1148.11 323.009,-1155.12 325.644,-1148.63"/>
</g>
<!-- Node0x2cf23f0&#45;&gt;Node0x2cf1af0 -->
<g id="edge48" class="edge"><title>Node0x2cf23f0&#45;&gt;Node0x2cf1af0</title>
<path fill="none" stroke="black" d="M1045.9,-1204.41C838.152,-1202.23 186.55,-1193.48 149,-1169 106.564,-1141.34 88.0383,-1081.45 80.5599,-1046.29"/>
<polygon fill="black" stroke="black" points="83.9459,-1045.37 78.5794,-1036.24 77.0778,-1046.72 83.9459,-1045.37"/>
</g>
<!-- Node0x2cf23f0&#45;&gt;Node0x2cf1b60 -->
<g id="edge65" class="edge"><title>Node0x2cf23f0&#45;&gt;Node0x2cf1b60</title>
<path fill="none" stroke="black" d="M1045.85,-1203.49C841.894,-1198.3 212.264,-1179.83 182,-1149 130.356,-1096.38 177.351,-1000.76 205.056,-954.893"/>
<polygon fill="black" stroke="black" points="208.179,-956.497 210.468,-946.153 202.228,-952.812 208.179,-956.497"/>
</g>
<!-- Node0x2cf23f0&#45;&gt;Node0x2cf2380 -->
<g id="edge66" class="edge"><title>Node0x2cf23f0&#45;&gt;Node0x2cf2380</title>
<path fill="none" stroke="black" d="M1045.94,-1205C885.465,-1204.53 470.431,-1200.29 417,-1169 399.762,-1158.91 393,-1150.98 393,-1131 393,-1131 393,-1131 393,-927 393,-901.268 374.442,-878.704 356.437,-862.868"/>
<polygon fill="black" stroke="black" points="358.198,-859.781 348.272,-856.078 353.723,-865.163 358.198,-859.781"/>
</g>
<!-- Node0x2cf23f0&#45;&gt;Node0x2cf1c30 -->
<g id="edge43" class="edge"><title>Node0x2cf23f0&#45;&gt;Node0x2cf1c30</title>
<path fill="none" stroke="black" d="M1045.76,-1202.57C950.469,-1198.33 774.852,-1188.18 715,-1169 683.132,-1158.79 650,-1164.46 650,-1131 650,-1131 650,-1131 650,-927 650,-904.531 638.882,-881.599 628.224,-864.78"/>
<polygon fill="black" stroke="black" points="630.893,-862.474 622.425,-856.107 625.074,-866.365 630.893,-862.474"/>
</g>
<!-- Node0x2cf23f0&#45;&gt;Node0x2cf1ca0 -->
<g id="edge56" class="edge"><title>Node0x2cf23f0&#45;&gt;Node0x2cf1ca0</title>
<path fill="none" stroke="black" d="M1045.7,-1205.14C956.794,-1204.25 800.476,-1198.38 753,-1169 736.014,-1158.49 729,-1150.98 729,-1131 729,-1131 729,-1131 729,-747 729,-726.583 727.373,-703.563 725.813,-686.19"/>
<polygon fill="black" stroke="black" points="729.292,-685.802 724.866,-676.176 722.323,-686.461 729.292,-685.802"/>
</g>
<!-- Node0x2cf23f0&#45;&gt;Node0x2cf1da0 -->
<g id="edge62" class="edge"><title>Node0x2cf23f0&#45;&gt;Node0x2cf1da0</title>
<path fill="none" stroke="black" d="M1046,-1203.76C891.622,-1199.9 507,-1184.87 507,-1131 507,-1131 507,-1131 507,-387 507,-353.9 534.955,-332.902 566.315,-319.759"/>
<polygon fill="black" stroke="black" points="567.643,-322.998 575.678,-316.093 565.091,-316.48 567.643,-322.998"/>
</g>
<!-- Node0x2cf23f0&#45;&gt;Node0x2cf3b70 -->
<g id="edge57" class="edge"><title>Node0x2cf23f0&#45;&gt;Node0x2cf3b70</title>
<path fill="none" stroke="black" d="M1045.87,-1204.09C947.054,-1200.92 767,-1187.42 767,-1131 767,-1131 767,-1131 767,-927 767,-803.931 936.274,-876.216 993,-767 1021.75,-711.646 1004.78,-635.438 992.42,-595.642"/>
<polygon fill="black" stroke="black" points="995.744,-594.546 989.329,-586.115 989.086,-596.707 995.744,-594.546"/>
</g>
<!-- Node0x2cf23f0&#45;&gt;Node0x2cf26c0 -->
<g id="edge63" class="edge"><title>Node0x2cf23f0&#45;&gt;Node0x2cf26c0</title>
<path fill="none" stroke="black" d="M1045.88,-1204.24C884.421,-1201.45 469,-1188.67 469,-1131 469,-1131 469,-1131 469,-297 469,-263.229 494.624,-242.411 526.695,-229.579"/>
<polygon fill="black" stroke="black" points="528.195,-232.756 536.363,-226.008 525.77,-226.19 528.195,-232.756"/>
</g>
<!-- Node0x2cf23f0&#45;&gt;Node0x2cf1ed0 -->
<g id="edge44" class="edge"><title>Node0x2cf23f0&#45;&gt;Node0x2cf1ed0</title>
<path fill="none" stroke="black" d="M1045.75,-1203.05C974.432,-1199.8 863.867,-1191.23 829,-1169 812.158,-1158.26 805,-1150.98 805,-1131 805,-1131 805,-1131 805,-927 805,-877.346 1140.46,-852.365 1302.02,-843.213"/>
<polygon fill="black" stroke="black" points="1302.61,-846.685 1312.4,-842.633 1302.22,-839.696 1302.61,-846.685"/>
</g>
<!-- Node0x2cf23f0&#45;&gt;Node0x2cf20b0 -->
<g id="edge45" class="edge"><title>Node0x2cf23f0&#45;&gt;Node0x2cf20b0</title>
<path fill="none" stroke="black" d="M1172.26,-1205.26C1405.66,-1204.54 2205,-1186.57 2205,-974 2205,-974 2205,-974 2205,-567 2205,-499.955 1995.56,-483.749 1873.9,-479.991"/>
<polygon fill="black" stroke="black" points="1873.95,-476.491 1863.85,-479.703 1873.75,-483.488 1873.95,-476.491"/>
</g>
<!-- Node0x2cf23f0&#45;&gt;Node0x2cf22a0 -->
<g id="edge46" class="edge"><title>Node0x2cf23f0&#45;&gt;Node0x2cf22a0</title>
<path fill="none" stroke="black" d="M1172.25,-1204.36C1394.89,-1201.92 2131.33,-1192.13 2176,-1169 2204.73,-1154.12 2199.66,-1136.16 2220,-1111 2222.94,-1107.37 2226.09,-1103.58 2229.23,-1099.88"/>
<polygon fill="black" stroke="black" points="2232.11,-1101.9 2235.96,-1092.03 2226.79,-1097.34 2232.11,-1101.9"/>
</g>
<!-- Node0x2cf23f0&#45;&gt;Node0x2cf1f40 -->
<g id="edge47" class="edge"><title>Node0x2cf23f0&#45;&gt;Node0x2cf1f40</title>
<path fill="none" stroke="black" d="M1172.24,-1194.92C1206.54,-1188.77 1249.48,-1179.98 1287,-1169 1303.24,-1164.25 1320.58,-1157.95 1336.09,-1151.85"/>
<polygon fill="black" stroke="black" points="1337.49,-1155.06 1345.48,-1148.09 1334.89,-1148.56 1337.49,-1155.06"/>
</g>
<!-- Node0x2cf23f0&#45;&gt;Node0x2cf2490 -->
<g id="edge54" class="edge"><title>Node0x2cf23f0&#45;&gt;Node0x2cf2490</title>
<path fill="none" stroke="black" d="M1109,-1187.83C1109,-1155.45 1109,-1085.09 1109,-1046.2"/>
<polygon fill="black" stroke="black" points="1112.5,-1046.12 1109,-1036.12 1105.5,-1046.12 1112.5,-1046.12"/>
</g>
<!-- Node0x2cf23f0&#45;&gt;Node0x2cf2500 -->
<g id="edge59" class="edge"><title>Node0x2cf23f0&#45;&gt;Node0x2cf2500</title>
<path fill="none" stroke="black" d="M1172.02,-1204.88C1269.87,-1203.79 1453.13,-1197.8 1511,-1169 1566.9,-1141.18 1610.7,-1079.75 1632.28,-1044.75"/>
<polygon fill="black" stroke="black" points="1635.37,-1046.41 1637.53,-1036.04 1629.37,-1042.8 1635.37,-1046.41"/>
</g>
<!-- Node0x2cf23f0&#45;&gt;Node0x2cf25a0 -->
<g id="edge55" class="edge"><title>Node0x2cf23f0&#45;&gt;Node0x2cf25a0</title>
<path fill="none" stroke="black" d="M1125.64,-1187.73C1171.26,-1140.4 1298.46,-1008.42 1351.4,-953.482"/>
<polygon fill="black" stroke="black" points="1353.95,-955.888 1358.37,-946.259 1348.91,-951.03 1353.95,-955.888"/>
</g>
<!-- Node0x2cf23f0&#45;&gt;Node0x2cf3e40 -->
<g id="edge60" class="edge"><title>Node0x2cf23f0&#45;&gt;Node0x2cf3e40</title>
<path fill="none" stroke="black" d="M1172.31,-1203.58C1265.71,-1200.16 1434.14,-1188.53 1478,-1149 1529.17,-1102.88 1465.56,-1044.81 1517,-999 1517.87,-998.224 1738.75,-967.577 1886.9,-947.096"/>
<polygon fill="black" stroke="black" points="1887.57,-950.537 1897,-945.701 1886.61,-943.603 1887.57,-950.537"/>
</g>
<!-- Node0x2cf23f0&#45;&gt;Node0x2cf3be0 -->
<g id="edge58" class="edge"><title>Node0x2cf23f0&#45;&gt;Node0x2cf3be0</title>
<path fill="none" stroke="black" d="M1045.96,-1200.06C967.302,-1192.12 843,-1172.94 843,-1131 843,-1131 843,-1131 843,-972 843,-942.754 846.033,-933.502 862,-909 902.268,-847.206 937.828,-855.062 988,-801 1000.76,-787.252 1002.45,-782.506 1013,-767 1077.43,-672.321 1148.12,-555.815 1178.6,-504.885"/>
<polygon fill="black" stroke="black" points="1181.69,-506.538 1183.82,-496.158 1175.68,-502.947 1181.69,-506.538"/>
</g>
<!-- Node0x2cf23f0&#45;&gt;Node0x2cf3eb0 -->
<g id="edge61" class="edge"><title>Node0x2cf23f0&#45;&gt;Node0x2cf3eb0</title>
<path fill="none" stroke="black" d="M1172.28,-1204.57C1254.64,-1202.87 1402.64,-1195.9 1526,-1169 1812.37,-1106.55 1978.19,-1186.62 2147,-947 2176.4,-905.272 2117.83,-876.293 2061.04,-858.936"/>
<polygon fill="black" stroke="black" points="2061.8,-855.511 2051.22,-856.04 2059.82,-862.225 2061.8,-855.511"/>
</g>
<!-- Node0x2cf23f0&#45;&gt;Node0x2cf2730 -->
<g id="edge64" class="edge"><title>Node0x2cf23f0&#45;&gt;Node0x2cf2730</title>
<path fill="none" stroke="black" d="M1045.82,-1204.66C877.511,-1202.92 431,-1192.5 431,-1131 431,-1131 431,-1131 431,-207 431,-160.942 698.112,-137.566 884.755,-126.853"/>
<polygon fill="black" stroke="black" points="885.188,-130.334 894.974,-126.275 884.792,-123.346 885.188,-130.334"/>
</g>
<!-- Node0x2cf2b20 -->
<g id="node36" class="node"><title>Node0x2cf2b20</title>
<polygon fill="none" stroke="black" points="2228.5,-1112 2228.5,-1148 2659.5,-1148 2659.5,-1112 2228.5,-1112"/>
<text text-anchor="middle" x="2444" y="-1126.3" font-family="Times,serif" font-size="14.00">call void @llvm.dbg.declare(metadata !{i32* %a}, metadata !12), !dbg !13</text>
</g>
<!-- Node0x2cf23f0&#45;&gt;Node0x2cf2b20 -->
<g id="edge49" class="edge"><title>Node0x2cf23f0&#45;&gt;Node0x2cf2b20</title>
<path fill="none" stroke="black" d="M1172.32,-1204.03C1375.51,-1200.75 2009.73,-1189.11 2214,-1169 2258.09,-1164.66 2306.53,-1157.08 2347.54,-1149.83"/>
<polygon fill="black" stroke="black" points="2348.3,-1153.25 2357.53,-1148.04 2347.07,-1146.36 2348.3,-1153.25"/>
</g>
<!-- Node0x2cf2460 -->
<g id="node37" class="node"><title>Node0x2cf2460</title>
<polygon fill="none" stroke="black" points="2678,-1112 2678,-1148 3110,-1148 3110,-1112 2678,-1112"/>
<text text-anchor="middle" x="2894" y="-1126.3" font-family="Times,serif" font-size="14.00">call void @llvm.dbg.declare(metadata !{i32* %b}, metadata !14), !dbg !15</text>
</g>
<!-- Node0x2cf23f0&#45;&gt;Node0x2cf2460 -->
<g id="edge50" class="edge"><title>Node0x2cf23f0&#45;&gt;Node0x2cf2460</title>
<path fill="none" stroke="black" d="M1172.17,-1203.95C1383.87,-1200.16 2087.53,-1185.48 2668,-1149 2669.72,-1148.89 2671.45,-1148.78 2673.19,-1148.67"/>
<polygon fill="black" stroke="black" points="2673.44,-1152.16 2683.19,-1148.02 2672.99,-1145.18 2673.44,-1152.16"/>
</g>
<!-- Node0x2cf2dc0 -->
<g id="node38" class="node"><title>Node0x2cf2dc0</title>
<polygon fill="none" stroke="black" points="3128.5,-1112 3128.5,-1148 3559.5,-1148 3559.5,-1112 3128.5,-1112"/>
<text text-anchor="middle" x="3344" y="-1126.3" font-family="Times,serif" font-size="14.00">call void @llvm.dbg.declare(metadata !{i32* %c}, metadata !16), !dbg !17</text>
</g>
<!-- Node0x2cf23f0&#45;&gt;Node0x2cf2dc0 -->
<g id="edge51" class="edge"><title>Node0x2cf23f0&#45;&gt;Node0x2cf2dc0</title>
<path fill="none" stroke="black" d="M1172.42,-1204.43C1421,-1201.96 2352.98,-1190.28 3119,-1149 3121.39,-1148.87 3123.8,-1148.74 3126.22,-1148.6"/>
<polygon fill="black" stroke="black" points="3126.45,-1152.09 3136.23,-1148.02 3126.04,-1145.11 3126.45,-1152.09"/>
</g>
<!-- Node0x2cf2ba0 -->
<g id="node39" class="node"><title>Node0x2cf2ba0</title>
<polygon fill="none" stroke="black" points="3578,-1112 3578,-1148 4010,-1148 4010,-1112 3578,-1112"/>
<text text-anchor="middle" x="3794" y="-1126.3" font-family="Times,serif" font-size="14.00">call void @llvm.dbg.declare(metadata !{i32* %d}, metadata !18), !dbg !19</text>
</g>
<!-- Node0x2cf23f0&#45;&gt;Node0x2cf2ba0 -->
<g id="edge52" class="edge"><title>Node0x2cf23f0&#45;&gt;Node0x2cf2ba0</title>
<path fill="none" stroke="black" d="M1172.22,-1204.9C1453.02,-1204.16 2615.41,-1198.13 3568,-1149 3570.58,-1148.87 3573.18,-1148.73 3575.79,-1148.59"/>
<polygon fill="black" stroke="black" points="3576.13,-1152.07 3585.91,-1148.01 3575.73,-1145.08 3576.13,-1152.07"/>
</g>
<!-- Node0x2cf2ef0 -->
<g id="node40" class="node"><title>Node0x2cf2ef0</title>
<polygon fill="none" stroke="black" points="4028,-1112 4028,-1148 4480,-1148 4480,-1112 4028,-1112"/>
<text text-anchor="middle" x="4254" y="-1126.3" font-family="Times,serif" font-size="14.00">call void @llvm.dbg.declare(metadata !{i32* %key1}, metadata !20), !dbg !21</text>
</g>
<!-- Node0x2cf23f0&#45;&gt;Node0x2cf2ef0 -->
<g id="edge53" class="edge"><title>Node0x2cf23f0&#45;&gt;Node0x2cf2ef0</title>
<path fill="none" stroke="black" d="M1172.33,-1204C1422.66,-1200.02 2367.4,-1184.77 3145,-1169 3533.47,-1161.12 3630.93,-1168.29 4019,-1149 4021.78,-1148.86 4024.57,-1148.72 4027.38,-1148.57"/>
<polygon fill="black" stroke="black" points="4027.83,-1152.05 4037.62,-1148.01 4027.45,-1145.06 4027.83,-1152.05"/>
</g>
</g>
</svg>
